{"glyphs":{"0":{"ha":739,"x_min":71,"x_max":669,"o":"m 374 791 q 302 739 332 791 q 260 603 273 687 q 247 410 247 519 q 284 153 247 253 q 374 53 321 53 q 430 84 406 53 q 467 170 453 115 q 486 293 480 225 q 492 445 492 361 q 461 698 492 606 q 374 791 430 791 m 373 848 q 488 819 434 848 q 582 737 542 790 q 645 602 622 684 q 669 422 669 521 q 629 208 669 306 q 521 53 589 110 q 373 -4 453 -4 q 257 25 311 -4 q 161 107 202 54 q 95 241 119 160 q 71 422 71 323 q 112 636 71 537 q 223 791 153 734 q 373 848 293 848 z "},"1":{"ha":739,"x_min":159,"x_max":581,"o":"m 302 197 l 302 654 q 297 712 302 698 q 274 726 291 726 q 230 715 263 726 q 176 694 196 705 q 164 706 169 699 q 159 720 159 713 q 161 736 159 736 q 307 800 227 764 q 428 853 386 835 q 472 872 471 872 l 475 872 q 485 863 480 872 q 491 846 490 854 q 479 719 479 807 l 479 197 q 490 69 479 96 q 576 45 496 51 q 581 19 581 37 q 576 -5 581 1 q 391 4 484 4 q 205 -5 297 4 q 200 19 201 1 q 205 45 200 37 q 292 69 285 51 q 302 197 302 96 z "},"2":{"ha":739,"x_min":76,"x_max":663,"o":"m 663 260 q 645 196 658 239 q 620 116 632 153 q 596 42 608 79 q 582 0 583 5 l 88 0 q 76 24 79 9 q 146 101 88 38 q 225 188 205 164 q 284 263 245 211 q 358 368 324 315 q 437 609 437 492 q 393 720 437 674 q 292 765 349 765 q 241 756 265 765 q 198 734 216 748 q 168 707 180 720 q 146 682 156 695 q 136 669 136 669 q 118 678 129 669 q 107 701 107 688 q 139 750 117 724 q 194 805 160 777 q 276 852 227 833 q 378 871 325 871 q 547 810 480 871 q 614 643 614 749 q 511 407 614 528 q 256 138 369 241 l 490 138 q 513 141 502 138 q 532 146 524 143 q 549 156 541 149 q 563 166 557 162 q 576 181 569 171 q 586 195 583 191 q 596 212 590 200 q 603 228 602 223 q 610 244 605 232 q 617 259 616 256 q 636 269 621 269 q 663 260 653 269 z "},"3":{"ha":739,"x_min":90,"x_max":650,"o":"m 391 871 q 437 866 412 871 q 491 849 462 861 q 542 817 519 836 q 580 767 565 798 q 595 697 595 736 q 578 622 595 657 q 534 563 560 586 q 486 525 507 539 q 448 505 465 511 q 486 498 464 504 q 537 477 507 492 q 591 441 567 463 q 633 382 616 419 q 650 298 650 345 q 617 170 650 229 q 533 73 585 111 q 417 13 481 35 q 288 -8 353 -8 q 179 7 227 -8 q 106 42 130 22 q 94 70 99 50 q 90 100 90 89 q 109 150 90 127 q 160 172 127 172 q 172 171 166 172 q 183 167 178 170 q 194 162 189 164 q 204 154 198 159 q 214 146 210 149 q 223 136 217 143 q 231 127 229 129 q 240 117 233 125 q 247 109 246 109 q 342 49 298 49 q 437 99 404 49 q 469 241 469 149 q 429 379 469 321 q 323 437 389 437 q 247 425 292 437 q 236 457 236 438 l 236 469 q 287 481 262 474 q 340 501 312 488 q 389 530 368 514 q 423 570 410 546 q 437 621 437 593 q 402 728 437 686 q 309 770 368 770 q 219 744 262 770 q 160 700 176 718 q 149 715 153 702 q 144 738 144 728 q 251 832 186 794 q 391 871 315 871 z "},"4":{"ha":739,"x_min":65,"x_max":675,"o":"m 559 873 q 580 860 566 873 q 594 836 594 846 l 594 328 l 656 328 q 670 311 664 328 q 675 264 675 293 q 672 249 675 256 q 665 239 669 241 l 662 236 l 594 236 l 594 5 q 502 -7 559 -7 q 423 11 423 -7 l 423 236 l 79 236 q 65 270 65 243 q 311 577 153 379 q 532 854 468 775 q 559 873 548 873 m 423 632 l 182 328 l 423 328 l 423 632 z "},"5":{"ha":739,"x_min":92,"x_max":647,"o":"m 376 574 q 504 538 441 574 q 607 442 567 503 q 647 312 647 381 q 616 182 647 243 q 534 80 585 121 q 420 15 484 39 q 292 -8 357 -8 q 182 7 231 -8 q 109 42 132 23 q 97 70 102 50 q 92 100 92 89 q 111 150 92 127 q 163 172 130 172 q 175 171 169 172 q 186 167 180 170 q 196 162 192 164 q 207 154 201 159 q 216 146 213 149 q 226 136 220 143 q 234 127 232 129 q 242 117 236 125 q 250 109 249 109 q 346 49 300 49 q 441 99 408 49 q 473 241 473 149 q 442 348 473 300 q 369 420 411 396 q 286 445 326 445 q 161 426 209 445 q 152 436 156 426 q 148 453 148 446 q 165 542 149 455 q 200 730 182 629 q 224 861 219 831 l 465 861 q 590 876 520 861 q 593 875 591 876 q 597 873 596 874 q 601 871 599 873 q 605 868 604 870 q 607 864 606 867 q 608 857 608 861 q 588 795 608 842 q 557 727 568 747 q 354 716 473 719 q 263 715 311 715 l 232 556 q 376 574 305 574 z "},"6":{"ha":739,"x_min":88,"x_max":651,"o":"m 275 444 q 266 300 266 377 q 272 212 266 254 q 290 132 277 170 q 326 72 302 94 q 380 49 349 49 q 447 103 420 49 q 473 247 473 157 q 461 356 473 309 q 419 437 450 404 q 343 469 389 469 q 308 463 328 469 q 275 444 288 456 m 403 549 q 497 535 454 549 q 576 489 541 520 q 631 405 611 458 q 651 281 651 352 q 610 136 651 203 q 502 31 568 69 q 365 -8 436 -8 q 227 39 291 -8 q 125 164 162 86 q 88 328 88 241 q 133 527 88 433 q 245 693 178 622 q 367 792 300 751 q 487 850 434 833 q 593 875 541 868 q 602 840 607 864 q 292 515 363 741 q 403 549 351 549 z "},"7":{"ha":739,"x_min":79,"x_max":661,"o":"m 529 864 q 578 865 550 864 q 628 868 607 867 q 651 869 649 869 q 661 849 661 869 q 659 841 661 846 q 653 827 657 836 q 646 812 650 819 q 636 790 643 804 q 624 766 629 777 l 255 -11 q 232 -15 250 -15 q 195 -7 217 -15 q 172 18 172 1 q 336 307 216 79 q 548 727 456 534 l 235 727 q 192 718 210 727 q 162 688 174 708 q 143 654 149 668 q 127 613 136 640 q 111 605 125 606 q 79 616 92 603 q 138 863 105 715 l 529 864 z "},"8":{"ha":739,"x_min":85,"x_max":654,"o":"m 374 49 q 449 80 422 49 q 476 160 476 112 q 464 220 476 190 q 436 271 451 250 q 395 316 420 292 q 358 349 370 340 q 326 373 346 358 q 313 380 317 380 q 307 378 307 380 q 263 212 263 325 q 274 135 263 170 q 310 74 284 100 q 374 49 336 49 m 363 803 q 304 772 327 803 q 281 694 281 741 q 294 631 281 662 q 327 580 307 601 q 365 545 347 559 q 397 524 382 532 q 414 517 408 517 q 422 521 418 517 q 450 659 450 564 q 442 724 450 692 q 413 779 433 755 q 363 803 392 803 m 242 834 q 272 846 242 834 q 366 859 302 859 q 487 837 431 859 q 582 770 544 816 q 620 663 620 725 q 576 555 620 603 q 469 480 533 507 q 467 477 467 479 q 469 473 467 475 q 508 448 488 463 q 556 409 528 433 q 604 357 583 384 q 639 296 625 331 q 654 227 654 261 q 611 102 654 157 q 503 20 568 47 q 363 -8 437 -8 q 262 3 309 -8 q 174 38 214 14 q 109 106 133 62 q 85 208 85 149 q 137 340 85 286 q 259 415 189 394 q 256 422 263 417 q 237 438 252 426 q 213 458 222 451 q 188 481 203 466 q 163 508 173 496 q 141 538 153 520 q 122 574 130 557 q 111 614 115 591 q 106 659 106 636 q 144 763 106 717 q 242 834 183 810 z "},"9":{"ha":739,"x_min":88,"x_max":651,"o":"m 464 423 q 473 567 473 469 q 468 655 473 613 q 449 734 462 696 q 414 795 437 772 q 359 818 391 818 q 292 764 319 818 q 266 620 266 709 q 278 510 266 558 q 320 430 290 463 q 396 397 350 397 q 431 404 411 397 q 464 423 451 410 m 137 27 q 448 351 376 126 q 336 317 389 317 q 242 332 285 317 q 163 377 199 347 q 108 461 128 408 q 88 586 88 515 q 130 730 88 663 q 237 836 171 798 q 374 875 303 875 q 513 828 448 875 q 614 703 577 781 q 651 538 651 625 q 606 339 651 434 q 494 174 562 245 q 372 75 439 116 q 252 16 305 34 q 146 -8 199 -1 q 137 27 132 3 z "}," ":{"ha":407,"x_min":0,"x_max":0,"o":""},"!":{"ha":366,"x_min":80,"x_max":283,"o":"m 80 90 q 110 159 80 130 q 182 189 140 189 q 254 158 224 189 q 283 85 283 127 q 254 15 283 45 q 183 -15 224 -15 q 110 16 140 -15 q 80 90 80 46 m 187 932 q 246 907 221 932 q 271 840 271 882 q 250 604 271 812 q 214 300 231 443 q 186 265 210 265 q 154 301 158 265 q 119 589 133 456 q 98 841 98 793 q 123 907 98 883 q 187 932 149 932 z "},"\"":{"ha":449,"x_min":49,"x_max":392,"o":"m 350 949 q 392 928 376 949 q 384 786 392 893 q 369 616 376 680 q 336 585 358 597 q 323 595 327 585 q 266 837 266 789 q 290 912 266 875 q 350 949 314 949 m 133 949 q 175 928 159 949 q 167 786 175 893 q 152 616 159 680 q 119 585 141 597 q 106 595 110 585 q 49 837 49 789 q 73 912 49 875 q 133 949 97 949 z "},"#":{"ha":644,"x_min":62,"x_max":579,"o":"m 446 292 l 534 292 q 542 270 543 288 q 532 228 541 251 q 515 201 524 205 l 431 201 l 407 49 q 392 38 406 44 q 365 31 379 31 q 355 33 359 31 q 351 35 351 34 l 350 37 l 376 201 l 212 201 l 187 49 q 173 38 186 44 q 146 31 160 31 q 137 33 140 31 q 132 35 133 34 l 132 37 l 158 201 l 69 201 q 64 223 62 204 q 75 266 66 242 q 92 292 84 289 l 172 292 l 199 460 l 107 460 q 102 482 100 463 q 112 525 103 501 q 129 551 121 548 l 214 551 l 239 703 q 278 720 245 720 q 296 716 290 720 l 269 551 l 433 551 l 457 703 q 496 720 463 720 q 514 716 508 720 l 488 551 l 571 551 q 579 529 579 547 q 570 487 578 510 q 553 460 562 464 l 473 460 l 446 292 m 391 292 l 418 460 l 254 460 l 227 292 l 391 292 z "},"$":{"ha":703,"x_min":73,"x_max":635,"o":"m 391 906 q 444 895 444 906 l 438 863 q 467 857 454 860 q 523 845 487 853 q 578 833 559 837 q 591 617 583 781 q 578 610 586 610 q 538 618 541 610 q 521 680 534 648 q 486 744 507 713 q 433 795 465 775 q 428 798 431 797 l 384 530 q 444 490 411 511 q 476 470 455 482 q 510 449 498 457 q 542 428 523 441 q 572 402 561 414 q 597 371 583 390 q 617 332 610 352 q 630 285 625 313 q 635 227 635 258 q 593 102 635 158 q 488 16 552 46 q 351 -14 423 -14 q 296 -12 326 -14 l 289 -54 q 255 -51 274 -54 q 236 -42 236 -48 l 242 -5 q 104 20 180 3 q 86 132 96 58 q 73 241 76 205 q 91 253 77 247 q 111 259 105 259 q 127 248 125 259 q 150 186 132 220 q 193 118 167 151 q 254 66 218 87 l 302 363 q 273 382 278 379 q 172 453 194 435 q 85 597 97 516 q 83 635 83 615 q 124 754 83 699 q 229 839 165 809 q 359 869 292 869 q 385 869 372 869 l 391 906 m 351 330 l 305 44 q 338 41 321 41 q 378 46 359 41 q 418 65 398 52 q 451 104 439 78 q 464 168 464 131 q 453 217 464 193 q 430 258 443 241 q 392 297 417 275 q 353 329 366 319 q 351 330 352 329 m 336 570 l 376 814 q 366 815 371 815 q 288 788 321 815 q 255 703 255 762 q 336 570 255 642 z "},"%":{"ha":930,"x_min":53,"x_max":880,"o":"m 254 829 q 215 815 230 829 q 193 777 199 802 q 184 730 186 752 q 182 678 182 708 q 191 596 182 635 q 222 528 200 557 q 275 499 244 499 q 315 512 299 499 q 337 550 330 526 q 346 596 344 574 q 349 647 349 618 q 339 730 349 690 q 307 799 330 770 q 254 829 285 829 m 264 869 q 417 812 357 869 q 477 667 477 754 q 416 519 477 581 q 266 457 355 457 q 113 515 172 457 q 53 661 53 574 q 114 808 53 747 q 264 869 176 869 m 656 372 q 617 358 633 372 q 595 320 602 345 q 587 273 589 295 q 585 221 585 251 q 594 139 585 178 q 625 71 603 100 q 678 42 647 42 q 718 55 702 42 q 740 93 733 68 q 749 139 747 117 q 751 190 751 161 q 742 273 751 233 q 710 342 732 313 q 656 372 688 372 m 667 412 q 820 355 760 412 q 880 210 880 297 q 819 62 880 124 q 669 0 758 0 q 515 58 575 0 q 456 203 456 117 q 517 351 456 290 q 667 412 578 412 m 845 861 l 145 -7 q 123 -20 140 -14 q 90 -27 106 -27 q 76 -23 81 -27 q 70 -15 71 -19 l 69 -11 l 769 857 q 823 875 789 875 q 839 871 832 875 q 845 861 845 867 z "},"&":{"ha":944,"x_min":76,"x_max":925,"o":"m 518 129 q 304 425 417 267 q 252 298 252 380 q 263 229 252 264 q 295 165 274 195 q 352 116 316 135 q 431 98 387 98 q 518 129 481 98 m 423 826 q 367 794 388 826 q 346 713 346 763 q 412 552 346 642 q 500 696 500 598 q 497 735 500 714 q 485 777 493 755 q 461 812 477 798 q 423 826 445 826 m 400 875 q 572 831 505 875 q 640 718 640 788 q 622 637 640 674 q 574 574 604 600 q 513 531 544 548 q 448 502 482 514 q 541 376 466 477 q 637 245 616 274 q 652 262 642 250 q 668 281 663 275 q 684 299 674 288 q 698 318 693 311 q 709 333 703 325 q 718 347 715 341 q 720 355 720 352 q 707 374 720 369 q 674 380 693 380 q 654 380 654 380 q 650 404 650 386 q 655 423 650 421 l 747 422 q 921 426 798 420 q 925 406 925 424 q 918 381 924 387 q 903 380 918 381 q 876 378 889 379 q 848 372 863 376 q 825 361 833 368 q 788 322 817 354 q 724 251 759 290 q 675 197 690 212 l 684 187 q 699 169 692 178 q 718 149 706 161 q 739 129 730 137 q 759 115 748 121 q 776 109 769 109 q 794 113 785 109 q 812 123 804 117 q 828 138 819 128 q 842 153 837 147 q 854 169 846 159 q 863 180 861 178 q 881 173 871 180 q 897 156 891 166 q 876 124 894 149 q 830 70 857 100 q 768 18 804 41 q 704 -4 733 -4 q 640 10 669 -4 q 595 38 610 24 q 555 81 579 53 q 321 -5 464 -5 q 236 9 279 -5 q 157 51 193 24 q 98 120 121 78 q 76 212 76 162 q 88 292 76 254 q 117 355 100 330 q 160 405 133 380 q 207 442 187 429 q 254 473 226 455 q 266 480 262 477 q 248 506 263 484 q 225 538 232 527 q 208 571 219 550 q 193 616 197 593 q 189 665 189 639 q 247 816 189 757 q 400 875 305 875 z "},"'":{"ha":245,"x_min":45,"x_max":195,"o":"m 144 964 q 195 935 181 964 q 164 637 178 718 q 129 612 153 621 q 113 620 119 612 q 98 659 109 629 q 81 701 86 688 q 68 740 77 714 q 55 781 59 765 q 48 815 52 796 q 45 850 45 835 q 73 930 45 897 q 144 964 102 964 z "},"(":{"ha":637,"x_min":184,"x_max":601,"o":"m 359 232 q 486 -334 359 -82 q 601 -500 545 -451 l 585 -537 q 374 -352 471 -476 q 184 232 184 -109 q 374 814 184 572 q 585 1000 471 939 l 601 962 q 486 797 545 913 q 359 232 359 545 z "},")":{"ha":637,"x_min":37,"x_max":453,"o":"m 278 232 q 151 797 278 545 q 37 962 92 913 l 53 1000 q 264 814 167 939 q 453 232 453 572 q 264 -352 453 -109 q 53 -537 167 -476 l 37 -500 q 151 -334 92 -451 q 278 232 278 -82 z "},"*":{"ha":598,"x_min":43,"x_max":545,"o":"m 390 838 q 440 863 410 861 q 484 849 469 865 q 502 806 501 831 q 482 755 503 781 q 439 725 464 734 q 390 708 414 715 q 351 686 366 701 q 341 669 341 675 q 352 658 341 662 q 419 647 374 648 q 496 632 465 646 q 534 593 524 621 q 535 545 545 566 q 500 515 524 524 q 446 518 475 507 q 410 542 425 527 q 387 570 395 557 q 366 598 379 584 q 338 621 353 613 q 335 623 337 622 q 327 626 332 624 q 319 625 321 628 q 314 614 315 623 q 324 547 311 590 q 333 471 336 505 q 308 423 330 441 q 264 407 286 405 q 223 432 239 411 q 210 483 207 453 q 242 556 213 518 q 275 617 271 594 q 272 636 276 631 q 260 637 271 640 q 199 607 236 632 q 128 575 161 583 q 75 584 98 568 q 47 621 52 599 q 58 667 43 646 q 102 696 73 689 q 155 695 130 702 q 205 681 180 689 q 250 675 229 673 q 268 684 267 677 q 262 699 269 688 q 215 747 250 720 q 162 804 180 774 q 154 859 147 833 q 181 897 161 886 q 227 900 201 908 q 269 867 254 892 q 285 816 283 842 q 286 764 287 789 q 295 720 286 739 q 309 705 302 707 q 321 711 315 705 q 353 771 338 729 q 390 838 368 813 z "},"+":{"ha":735,"x_min":42,"x_max":693,"o":"m 327 643 q 355 654 336 650 q 384 658 374 658 q 406 646 406 658 l 404 373 l 681 373 q 690 367 686 373 q 693 354 693 361 q 674 294 693 318 l 406 294 l 406 26 q 342 11 383 11 q 331 14 336 11 q 327 22 327 18 l 327 294 l 50 294 q 42 316 42 294 q 56 373 42 353 l 326 373 l 327 643 z "},",":{"ha":304,"x_min":26,"x_max":240,"o":"m 161 189 q 221 167 191 189 q 240 79 240 132 q 185 -94 240 -14 q 54 -213 130 -175 q 35 -199 44 -210 q 26 -180 26 -187 q 89 -121 56 -161 q 122 -37 122 -80 q 115 -15 122 -24 q 99 3 109 -5 q 80 21 90 12 q 64 50 71 31 q 57 92 57 68 q 62 117 57 102 q 77 148 66 131 q 110 177 88 165 q 161 189 132 189 z "},"-":{"ha":509,"x_min":76,"x_max":433,"o":"m 96 362 q 423 378 378 377 q 433 366 433 378 q 412 285 433 328 q 85 270 385 283 q 76 285 76 270 q 96 362 76 319 z "},".":{"ha":317,"x_min":57,"x_max":260,"o":"m 57 90 q 87 159 57 130 q 159 189 117 189 q 231 158 201 189 q 260 85 260 127 q 231 15 260 45 q 160 -15 201 -15 q 87 16 117 -15 q 57 90 57 46 z "},"/":{"ha":479,"x_min":20,"x_max":463,"o":"m 437 988 q 463 977 460 988 l 112 -253 q 92 -272 109 -263 q 44 -281 75 -281 q 29 -279 35 -281 q 22 -274 23 -277 l 20 -272 l 370 958 q 393 979 376 969 q 437 988 410 988 z "},":":{"ha":355,"x_min":76,"x_max":279,"o":"m 76 486 q 106 555 76 526 q 178 585 136 585 q 250 554 220 585 q 279 481 279 523 q 250 411 279 441 q 179 381 220 381 q 106 412 136 381 q 76 486 76 442 m 76 90 q 106 159 76 130 q 178 189 136 189 q 250 158 220 189 q 279 85 279 127 q 250 15 279 45 q 179 -15 220 -15 q 106 16 136 -15 q 76 90 76 46 z "},";":{"ha":345,"x_min":53,"x_max":267,"o":"m 189 189 q 248 167 218 189 q 267 79 267 132 q 212 -94 267 -14 q 81 -213 157 -175 q 62 -199 71 -210 q 53 -180 53 -187 q 116 -121 83 -161 q 149 -37 149 -80 q 142 -15 149 -24 q 126 3 136 -5 q 107 21 117 12 q 91 50 98 31 q 84 92 84 68 q 89 117 84 102 q 104 148 94 131 q 137 177 115 165 q 189 189 159 189 m 66 487 q 97 557 66 528 q 170 586 127 586 q 238 557 210 586 q 266 487 266 528 q 238 413 266 445 q 170 381 210 381 q 97 413 127 381 q 66 487 66 446 z "},"<":{"ha":671,"x_min":41,"x_max":602,"o":"m 602 61 q 594 15 602 51 q 581 -20 586 -20 q 574 -18 579 -20 l 65 240 q 41 294 41 253 q 65 327 41 315 l 571 581 q 578 583 576 583 q 601 506 586 583 q 601 499 602 503 q 598 495 600 496 l 597 494 l 165 283 l 598 69 q 602 61 602 68 z "},"=":{"ha":758,"x_min":89,"x_max":672,"o":"m 646 182 q 96 182 646 182 q 90 201 89 184 q 100 238 91 218 q 117 262 109 258 l 664 262 q 672 243 672 259 q 663 207 671 227 q 646 182 655 186 m 646 377 l 96 377 q 90 396 89 380 q 100 433 91 413 q 117 457 109 454 l 664 457 q 672 438 672 454 q 663 402 671 422 q 646 377 655 382 z "},">":{"ha":671,"x_min":69,"x_max":631,"o":"m 69 61 q 71 66 69 64 q 72 68 71 68 l 73 69 l 506 283 l 75 494 q 73 495 74 494 q 71 499 73 496 q 71 506 70 503 q 94 583 85 583 q 100 581 95 583 l 606 327 q 631 294 631 315 q 606 240 631 253 l 98 -18 q 91 -20 92 -20 q 77 15 85 -20 q 69 61 69 51 z "},"?":{"ha":541,"x_min":73,"x_max":495,"o":"m 91 90 q 120 160 91 132 q 189 189 149 189 q 261 160 231 189 q 290 90 290 131 q 262 16 290 47 q 194 -15 234 -15 q 123 15 155 -15 q 91 90 91 45 m 157 703 q 97 730 120 703 q 73 792 73 757 q 80 829 73 809 q 94 854 86 848 q 216 878 134 878 q 269 871 237 878 q 340 847 300 865 q 414 805 380 830 q 472 736 448 779 q 495 639 495 692 q 490 597 495 617 q 479 562 486 577 q 459 531 473 547 q 437 506 446 515 q 409 483 428 496 q 382 464 391 469 q 352 446 373 458 q 324 429 330 433 q 296 411 317 424 q 263 391 275 399 q 236 371 251 384 q 213 347 221 359 q 209 338 210 343 q 207 325 207 332 q 206 313 206 318 q 206 300 205 307 q 206 290 206 292 q 197 275 204 283 q 186 266 191 266 q 155 282 171 266 q 136 342 145 303 q 127 418 127 381 q 137 470 127 446 q 164 513 146 494 q 198 545 182 532 q 236 572 213 557 q 380 722 380 667 q 360 766 380 746 q 307 787 340 787 q 271 773 290 787 q 235 745 251 760 q 198 716 219 729 q 157 703 176 703 z "},"@":{"ha":1040,"x_min":62,"x_max":993,"o":"m 605 784 q 777 753 702 784 q 899 668 852 722 q 969 544 945 614 q 993 393 993 474 q 951 198 993 292 q 840 47 910 104 q 693 -9 770 -9 q 599 20 638 -9 q 560 107 560 49 q 566 146 560 132 q 484 45 540 97 q 373 -7 428 -7 q 323 0 345 -7 q 282 25 301 7 q 252 77 262 42 q 241 163 241 112 q 305 362 241 259 q 466 533 368 465 q 658 601 564 601 q 741 595 694 601 q 806 583 787 590 l 730 172 q 726 138 726 156 q 725 129 726 137 q 725 117 725 121 q 726 105 726 113 q 729 93 727 98 q 734 84 731 89 q 744 77 738 79 q 757 75 749 75 q 813 100 783 75 q 870 165 844 125 q 915 264 897 205 q 933 384 933 323 q 915 516 933 455 q 858 625 896 576 q 755 702 820 674 q 605 730 690 730 q 474 709 538 730 q 358 653 410 688 q 263 569 307 617 q 190 465 219 520 q 144 349 160 410 q 127 231 127 289 q 180 30 127 118 q 311 -104 232 -58 q 415 -141 358 -132 q 396 -159 415 -149 q 361 -168 377 -168 q 300 -156 332 -168 q 132 -16 201 -119 q 62 224 62 87 q 88 384 62 303 q 163 536 114 465 q 278 663 212 608 q 428 751 343 719 q 605 784 513 784 m 601 528 q 502 478 547 528 q 432 354 456 429 q 408 201 408 279 q 423 146 408 165 q 463 127 438 127 q 546 194 506 127 q 609 372 587 261 l 636 510 q 620 524 627 521 q 601 528 614 528 z "},"A":{"ha":916,"x_min":-19,"x_max":925,"o":"m 127 182 l 416 846 q 440 880 423 861 q 467 898 456 898 q 484 895 475 898 q 495 888 493 892 l 773 201 q 794 148 783 178 q 811 103 806 117 q 836 71 819 84 q 870 53 852 58 q 899 46 888 48 q 918 45 910 45 q 924 17 923 36 q 921 -5 925 -1 q 842 0 909 -5 q 739 5 774 5 q 673 3 711 5 q 591 -2 635 1 q 534 -5 547 -5 q 529 22 529 0 q 534 45 529 45 q 577 51 554 45 q 614 69 601 58 q 627 92 627 79 q 606 149 627 98 q 566 250 586 201 l 545 298 q 536 304 540 304 q 406 305 510 305 q 264 304 312 305 q 255 297 258 304 q 206 183 221 221 q 176 91 176 109 q 191 69 176 79 q 225 54 205 59 q 259 47 244 50 q 281 45 275 45 q 286 18 286 37 q 282 -5 286 -1 q 136 5 187 5 q -12 -5 83 5 q -18 15 -16 -1 q -15 43 -19 32 q 35 58 0 43 q 80 87 71 72 q 127 182 103 125 m 400 646 l 285 380 q 288 374 285 374 q 400 370 328 370 q 509 373 467 370 q 511 374 510 373 q 513 378 513 377 l 513 380 l 400 646 z "},"B":{"ha":840,"x_min":47,"x_max":793,"o":"m 340 450 l 340 148 q 351 69 340 85 q 436 53 362 53 q 485 63 461 53 q 531 93 509 73 q 566 151 553 113 q 580 239 580 189 q 571 315 580 279 q 544 382 562 351 q 491 432 525 414 q 410 450 456 450 l 340 450 m 340 503 l 410 503 q 495 545 463 503 q 527 661 527 586 q 414 841 527 841 q 347 825 354 841 q 340 742 340 808 l 340 503 m 454 895 q 550 883 504 895 q 637 847 597 871 q 703 780 678 823 q 728 681 728 737 q 710 609 728 643 q 667 552 693 575 q 620 516 642 530 q 581 496 598 503 q 574 488 570 492 q 623 475 596 486 q 681 445 650 465 q 735 399 711 425 q 777 337 760 374 q 793 260 793 300 q 754 137 793 195 q 650 41 715 79 q 561 8 613 18 q 472 -4 508 -3 q 368 -4 435 -5 l 52 -4 q 48 20 48 2 q 52 46 47 39 q 139 69 132 52 q 150 197 150 96 l 150 696 q 139 823 150 796 q 52 845 133 839 q 48 871 47 852 q 52 895 48 889 q 246 891 113 891 q 342 893 272 891 q 454 895 412 895 z "},"C":{"ha":914,"x_min":54,"x_max":873,"o":"m 524 905 q 806 879 679 905 q 829 781 806 878 q 852 674 852 684 q 840 661 852 668 q 817 654 829 654 q 798 659 803 654 q 784 699 793 679 q 754 747 775 720 q 707 796 734 775 q 635 831 680 817 q 536 846 590 846 q 414 816 467 846 q 331 732 361 785 q 286 615 301 680 q 271 477 271 551 q 289 321 271 395 q 340 185 306 247 q 431 87 374 123 q 563 50 489 50 q 731 109 668 50 q 780 173 757 132 q 813 239 804 214 q 826 277 823 265 q 873 260 855 277 q 852 151 873 241 q 818 54 831 60 q 727 22 759 33 q 637 1 696 12 q 521 -9 579 -9 q 288 48 395 -9 q 118 208 181 105 q 54 437 54 311 q 92 620 54 533 q 192 769 129 707 q 342 868 255 831 q 524 905 429 905 z "},"D":{"ha":1032,"x_min":47,"x_max":975,"o":"m 340 742 l 340 191 q 351 84 340 111 q 382 62 357 71 q 436 53 408 53 q 680 148 602 53 q 759 441 759 242 q 665 738 759 634 q 414 841 570 841 q 347 825 354 841 q 340 742 340 808 m 454 895 q 727 844 610 895 q 909 692 844 792 q 975 456 975 593 q 947 286 975 363 q 872 156 920 210 q 757 66 824 103 q 612 13 690 30 q 444 -4 534 -4 l 52 -4 q 48 20 48 2 q 52 46 47 39 q 139 69 132 52 q 150 197 150 96 l 150 696 q 139 823 150 796 q 52 845 133 839 q 48 871 47 852 q 52 895 48 889 q 246 891 113 891 q 353 893 279 891 q 454 895 427 895 z "},"E":{"ha":817,"x_min":47,"x_max":787,"o":"m 246 891 q 470 896 279 891 q 687 901 662 900 q 698 836 691 870 q 714 760 705 802 q 726 700 723 718 q 695 693 720 693 q 673 704 677 693 q 650 758 661 736 q 621 800 638 779 q 580 831 604 821 q 527 841 557 841 l 414 841 q 347 825 354 841 q 340 742 340 808 l 340 499 q 358 489 340 493 q 398 484 376 484 l 470 484 q 551 502 530 484 q 589 579 573 519 q 606 590 591 590 q 631 583 625 590 l 631 323 q 607 317 626 317 q 588 328 590 317 q 541 411 570 397 q 437 420 517 420 q 340 401 340 420 l 340 191 q 351 84 340 111 q 382 64 356 71 q 439 57 409 57 l 528 57 q 654 102 610 57 q 728 231 694 141 q 747 239 730 239 q 771 236 758 239 q 787 231 785 233 q 771 186 785 222 q 752 132 758 149 q 737 86 747 115 q 722 36 728 57 q 714 -3 717 14 q 52 -4 105 -3 q 48 20 48 2 q 52 46 47 39 q 139 69 132 52 q 150 197 150 96 l 150 696 q 139 823 150 796 q 52 845 133 839 q 48 871 47 852 q 52 895 48 889 q 246 891 113 891 z "},"F":{"ha":745,"x_min":47,"x_max":726,"o":"m 246 891 q 470 896 279 891 q 687 901 662 900 q 698 836 691 870 q 714 760 705 802 q 726 700 723 718 q 695 693 720 693 q 673 704 677 693 q 650 758 661 736 q 621 800 638 779 q 580 831 604 821 q 527 841 557 841 l 414 841 q 347 825 354 841 q 340 742 340 808 l 340 494 q 358 483 340 488 q 398 479 376 479 l 470 479 q 551 496 530 479 q 589 574 573 514 q 606 585 591 585 q 631 578 625 585 l 631 317 q 607 312 626 312 q 588 323 590 312 q 541 406 570 392 q 437 415 517 415 q 340 396 340 415 l 340 197 q 351 69 340 96 q 450 45 357 52 q 454 19 454 37 q 450 -5 454 1 q 243 4 357 4 q 52 -5 145 4 q 48 19 48 1 q 52 45 47 37 q 139 69 132 51 q 150 197 150 96 l 150 696 q 139 823 150 796 q 52 845 133 839 q 48 871 47 852 q 52 895 48 889 q 246 891 113 891 z "},"G":{"ha":979,"x_min":54,"x_max":957,"o":"m 677 248 q 670 317 677 292 q 646 342 666 333 q 610 352 625 351 q 581 354 595 354 q 575 376 575 354 q 579 404 574 399 q 645 401 602 404 q 722 397 687 399 q 787 396 756 396 q 840 397 812 396 q 902 401 868 399 q 954 404 936 404 q 957 384 956 396 q 956 363 957 372 q 952 354 954 354 q 916 348 942 354 q 880 336 890 342 q 869 315 874 332 q 864 278 864 297 l 864 133 q 868 111 864 126 q 872 94 872 96 q 825 58 872 77 q 733 25 768 37 q 639 2 699 14 q 521 -9 579 -9 q 287 48 394 -9 q 117 209 180 106 q 54 437 54 311 q 117 669 54 562 q 289 841 180 777 q 524 905 397 905 q 806 879 679 905 q 829 781 806 878 q 852 674 852 684 q 840 661 852 668 q 817 654 829 654 q 798 659 803 654 q 784 700 792 680 q 755 748 776 720 q 709 796 735 776 q 637 831 682 817 q 538 846 593 846 q 434 825 480 846 q 357 769 387 804 q 308 685 328 734 q 280 583 288 635 q 271 471 271 530 q 290 315 271 390 q 343 181 308 241 q 434 85 378 121 q 559 49 490 49 q 665 71 616 49 q 677 91 677 77 l 677 248 z "},"H":{"ha":1005,"x_min":47,"x_max":959,"o":"m 246 888 q 437 898 345 888 q 442 873 441 892 q 437 848 442 855 q 351 823 357 842 q 340 696 340 796 l 340 503 l 342 499 q 507 495 501 495 q 665 499 519 495 q 668 505 668 502 l 667 696 q 656 823 667 796 q 569 848 649 842 q 565 873 564 855 q 569 898 565 892 q 763 888 662 888 q 954 898 861 888 q 959 873 958 892 q 954 848 959 855 q 867 823 874 842 q 857 696 857 796 l 857 197 q 867 69 857 96 q 954 45 874 51 q 959 19 959 37 q 954 -5 958 1 q 760 4 861 4 q 569 -5 662 4 q 565 19 565 1 q 569 45 564 37 q 656 69 649 51 q 667 197 667 96 l 667 420 l 664 427 q 507 430 564 430 q 341 425 349 430 l 340 419 l 340 197 q 351 69 340 96 q 437 45 357 51 q 442 19 442 37 q 437 -5 441 1 q 243 4 345 4 q 52 -5 145 4 q 48 19 48 1 q 52 45 47 37 q 139 69 132 51 q 150 197 150 96 l 150 696 q 139 823 150 796 q 52 848 132 842 q 48 873 47 855 q 52 898 48 892 q 246 888 145 888 z "},"I":{"ha":488,"x_min":47,"x_max":442,"o":"m 246 888 q 437 898 345 888 q 442 873 441 892 q 437 848 442 855 q 351 823 357 842 q 340 696 340 796 l 340 197 q 351 69 340 96 q 437 45 357 51 q 442 19 442 37 q 437 -5 441 1 q 243 4 345 4 q 52 -5 145 4 q 48 19 48 1 q 52 45 47 37 q 139 69 132 51 q 150 197 150 96 l 150 696 q 139 823 150 796 q 52 848 132 842 q 48 873 47 855 q 52 898 48 892 q 246 888 145 888 z "},"J":{"ha":468,"x_min":-170,"x_max":433,"o":"m 237 888 q 429 898 336 888 q 433 873 433 892 q 429 848 433 855 q 342 823 349 842 q 331 696 331 796 l 331 194 q 223 -166 331 -37 q -71 -296 116 -296 q -113 -288 -89 -296 q -148 -271 -138 -279 q -152 -265 -149 -270 q -156 -258 -155 -260 q -160 -251 -157 -256 q -164 -243 -163 -246 q -167 -234 -165 -239 q -169 -224 -168 -229 q -170 -213 -170 -219 q -145 -150 -170 -178 q -88 -122 -120 -122 q -11 -167 -56 -122 q -4 -174 -9 -168 q 2 -181 1 -179 q 8 -187 4 -182 q 15 -193 13 -191 q 22 -198 18 -195 q 28 -203 26 -202 q 34 -207 31 -205 q 41 -211 38 -210 q 46 -212 43 -212 q 53 -213 50 -213 q 81 -206 68 -213 q 103 -182 94 -199 q 118 -148 112 -165 q 129 -99 125 -130 q 136 -42 133 -68 q 139 27 138 -16 q 141 101 140 69 q 141 183 141 132 l 141 696 q 130 823 141 796 q 43 848 123 842 q 39 873 39 855 q 43 898 39 892 q 237 888 136 888 z "},"K":{"ha":975,"x_min":47,"x_max":995,"o":"m 246 888 q 437 898 345 888 q 442 873 441 892 q 437 848 442 855 q 351 823 357 842 q 340 696 340 796 l 340 457 q 481 581 435 533 q 524 624 496 595 q 563 663 552 652 q 593 695 574 675 q 626 733 612 715 q 657 773 641 751 q 671 818 671 791 q 646 843 671 836 q 595 849 621 849 q 589 873 590 857 q 592 898 589 889 q 646 895 608 897 q 715 890 684 892 q 768 888 746 888 q 937 898 849 888 q 939 874 940 891 q 934 850 939 857 q 781 791 829 839 q 526 528 627 635 q 522 506 515 516 l 766 176 q 827 114 794 140 q 885 75 860 87 q 936 55 910 62 q 972 46 962 47 q 991 45 983 45 q 994 17 995 36 q 991 -5 993 -1 q 813 -11 912 -11 q 689 19 742 -11 q 606 91 636 50 q 545 173 590 113 q 444 307 499 233 q 367 410 389 380 q 353 415 361 415 q 340 407 344 415 l 340 197 q 351 69 340 96 q 437 45 357 51 q 442 19 442 37 q 437 -5 441 1 q 243 4 345 4 q 52 -5 145 4 q 48 19 48 1 q 52 45 47 37 q 139 69 132 51 q 150 197 150 96 l 150 696 q 139 823 150 796 q 52 848 132 842 q 48 873 47 855 q 52 898 48 892 q 246 888 145 888 z "},"L":{"ha":785,"x_min":47,"x_max":787,"o":"m 340 191 q 351 84 340 111 q 382 64 356 71 q 439 57 409 57 l 528 57 q 654 102 610 57 q 728 231 694 141 q 747 239 730 239 q 771 236 758 239 q 787 231 785 233 q 771 186 785 222 q 752 132 758 149 q 737 86 747 115 q 722 36 728 57 q 714 -3 717 14 q 245 -3 428 -3 q 52 -4 71 -3 q 48 20 48 2 q 52 46 47 39 q 139 69 132 52 q 150 197 150 96 l 150 696 q 139 823 150 796 q 52 848 132 842 q 48 873 47 855 q 52 898 48 892 q 246 888 145 888 q 437 898 345 888 q 442 873 441 892 q 437 848 442 855 q 351 823 357 842 q 340 696 338 793 l 340 191 z "},"M":{"ha":1230,"x_min":22,"x_max":1196,"o":"m 232 890 q 309 893 258 890 q 374 898 359 897 q 631 323 474 677 q 636 320 635 320 q 639 323 637 320 q 642 328 642 327 q 802 741 743 578 q 822 804 811 766 q 840 867 833 842 l 846 892 q 993 888 883 888 q 1077 893 1019 888 q 1152 898 1135 897 q 1159 874 1156 893 q 1157 846 1162 855 q 1120 842 1145 846 q 1086 831 1095 838 q 1071 812 1075 823 q 1067 776 1067 802 q 1076 526 1069 747 q 1088 206 1083 306 q 1088 189 1088 203 q 1089 171 1089 175 q 1090 155 1090 168 q 1092 139 1091 143 q 1094 124 1093 134 q 1096 109 1095 114 q 1098 95 1097 103 q 1101 81 1099 87 q 1105 69 1103 75 q 1142 51 1111 57 q 1191 45 1173 45 q 1196 20 1195 35 q 1194 -5 1196 5 q 1113 0 1182 -5 q 1009 5 1044 5 q 891 0 972 5 q 796 -5 810 -5 q 791 18 792 -1 q 793 45 790 37 q 847 52 814 45 q 888 71 880 58 q 899 118 899 88 q 898 201 899 176 l 884 674 q 875 709 884 709 q 868 700 872 709 l 629 54 q 606 19 625 41 q 571 -3 587 -3 q 559 0 567 -3 l 256 709 q 250 504 253 602 q 244 341 247 406 q 239 182 242 276 q 240 128 238 161 q 244 88 242 96 q 296 57 250 70 q 362 45 343 45 q 367 21 366 37 q 365 -5 368 5 q 290 0 349 -5 q 197 5 231 5 q 106 1 161 5 q 27 -5 51 -4 q 23 17 23 1 q 26 43 22 33 q 90 56 48 43 q 141 92 132 69 q 150 146 144 101 q 157 212 156 191 q 166 409 161 281 q 175 654 171 536 q 180 788 180 771 q 174 818 180 808 q 135 838 166 828 q 85 848 104 848 q 81 876 80 857 q 85 898 83 895 q 152 893 108 897 q 232 890 197 890 z "},"N":{"ha":1031,"x_min":39,"x_max":1004,"o":"m 204 888 q 352 898 276 888 q 421 791 370 861 q 523 659 473 722 q 659 493 574 597 q 787 336 745 390 q 790 392 790 346 l 790 646 q 786 748 790 691 q 775 819 782 805 q 730 842 768 835 q 665 849 691 849 q 663 859 664 849 q 662 881 661 869 q 665 899 662 894 q 743 893 690 898 q 831 888 796 888 q 926 893 865 888 q 1002 899 986 899 q 1004 874 1004 891 q 999 848 1004 857 q 966 846 986 848 q 919 837 947 845 q 886 817 891 829 q 877 746 882 803 q 873 650 873 689 l 873 189 q 878 -1 873 140 q 844 -7 873 -7 q 802 24 826 -7 l 250 704 l 250 213 q 255 137 250 178 q 265 81 260 96 q 314 56 271 65 q 376 46 356 46 q 382 20 382 37 q 379 -5 382 3 q 303 0 363 -5 q 208 5 243 5 q 120 1 174 5 q 43 -5 67 -4 q 39 13 39 0 q 40 35 39 25 q 43 45 41 45 q 104 55 64 45 q 151 80 144 64 q 163 136 158 95 q 168 217 168 177 l 168 697 q 143 819 168 783 q 103 839 135 831 q 54 848 71 848 q 47 870 48 848 q 51 898 46 892 q 92 895 63 897 q 149 890 121 892 q 204 888 176 888 z "},"O":{"ha":1031,"x_min":54,"x_max":977,"o":"m 483 846 q 400 825 437 846 q 339 769 363 804 q 300 688 315 734 q 278 592 284 641 q 271 492 271 544 q 278 387 271 439 q 297 284 284 335 q 332 191 310 233 q 383 115 354 148 q 454 63 412 82 q 544 45 495 45 q 628 66 591 45 q 690 121 666 87 q 730 202 714 155 q 753 296 746 248 q 760 396 760 345 q 750 523 760 460 q 720 644 741 585 q 668 748 699 703 q 589 819 637 792 q 483 846 541 846 m 343 868 q 385 886 343 868 q 515 905 427 905 q 688 868 604 905 q 836 770 772 831 q 938 624 899 709 q 977 445 977 538 q 938 267 977 352 q 836 120 899 181 q 688 23 772 59 q 515 -14 604 -14 q 343 23 427 -14 q 195 120 258 59 q 93 267 132 181 q 54 445 54 352 q 93 624 54 538 q 195 770 132 709 q 343 868 258 831 z "},"P":{"ha":793,"x_min":47,"x_max":767,"o":"m 767 654 q 727 514 767 576 q 626 421 687 452 q 494 389 564 389 q 436 400 462 389 q 401 420 411 410 q 391 454 391 431 q 395 464 391 464 q 451 458 414 458 q 533 508 501 458 q 565 635 565 557 q 523 780 565 718 q 414 841 480 841 q 347 825 354 841 q 340 742 340 808 l 340 197 q 351 69 340 96 q 437 45 357 51 q 442 19 442 37 q 437 -5 441 1 q 243 4 345 4 q 52 -5 145 4 q 48 19 48 1 q 52 45 47 37 q 139 69 132 51 q 150 197 150 96 l 150 696 q 139 823 150 796 q 52 845 133 839 q 48 871 47 852 q 52 895 48 889 q 246 891 113 891 q 342 893 272 891 q 455 895 412 895 q 611 868 541 895 q 724 784 681 840 q 767 654 767 728 z "},"Q":{"ha":1031,"x_min":54,"x_max":1086,"o":"m 343 868 q 385 886 343 868 q 515 905 427 905 q 688 868 604 905 q 836 770 772 831 q 938 624 899 709 q 977 445 977 538 q 884 176 977 296 q 654 9 792 56 q 732 -32 686 -6 q 802 -70 779 -58 q 866 -91 825 -81 q 956 -100 907 -100 q 1002 -98 980 -100 q 1037 -92 1023 -95 q 1053 -90 1050 -90 q 1069 -95 1059 -90 q 1084 -107 1079 -100 l 1086 -114 q 946 -170 1026 -146 q 808 -194 867 -194 q 725 -178 767 -194 q 644 -138 682 -163 q 570 -88 606 -114 q 491 -37 534 -62 q 408 0 448 -12 q 156 163 258 39 q 54 445 54 288 q 93 624 54 538 q 195 770 132 709 q 343 868 258 831 m 483 846 q 400 825 437 846 q 339 769 363 804 q 300 688 315 734 q 278 592 284 641 q 271 492 271 544 q 278 387 271 439 q 297 284 284 335 q 332 191 310 233 q 383 115 354 148 q 454 63 412 82 q 544 45 495 45 q 628 66 591 45 q 690 121 666 87 q 730 202 714 155 q 753 296 746 248 q 760 396 760 345 q 750 523 760 460 q 720 644 741 585 q 668 748 699 703 q 589 819 637 792 q 483 846 541 846 z "},"R":{"ha":940,"x_min":47,"x_max":994,"o":"m 455 895 q 670 831 587 895 q 752 648 752 766 q 733 570 752 609 q 684 503 713 531 q 624 454 655 474 q 568 429 593 435 q 661 307 612 370 q 737 210 709 244 l 764 176 q 826 114 793 140 q 884 75 859 87 q 935 55 909 62 q 971 46 960 47 q 989 45 982 45 q 992 17 994 36 q 989 -5 991 -1 q 812 -11 911 -11 q 688 19 741 -11 q 604 91 635 50 l 385 385 q 360 406 371 406 l 340 406 l 340 197 q 351 69 340 96 q 437 45 357 51 q 442 19 442 37 q 437 -5 441 1 q 243 4 345 4 q 52 -5 145 4 q 48 19 48 1 q 52 45 47 37 q 139 69 132 51 q 150 197 150 96 l 150 696 q 139 823 150 796 q 52 845 133 839 q 48 871 47 852 q 52 895 48 889 q 246 891 113 891 q 342 893 272 891 q 455 895 412 895 m 550 635 q 544 713 550 679 q 524 777 538 747 q 482 824 510 808 q 414 841 454 841 q 347 825 354 841 q 340 742 340 808 l 340 458 l 402 458 q 506 509 462 458 q 550 635 550 559 z "},"S":{"ha":707,"x_min":64,"x_max":650,"o":"m 362 909 q 422 905 391 909 q 473 897 453 901 q 533 884 493 892 q 590 871 572 875 q 605 646 598 785 q 590 637 599 637 q 549 647 552 637 q 531 711 545 677 q 495 778 517 745 q 439 831 473 810 q 369 852 406 852 q 288 824 322 852 q 254 734 254 796 q 267 684 254 709 q 298 638 281 658 q 347 592 315 618 q 397 553 378 567 q 450 517 416 539 q 477 499 456 513 q 506 480 499 485 q 532 461 513 475 q 560 439 552 447 q 583 416 568 431 q 606 388 599 400 q 623 358 612 376 q 638 322 633 340 q 646 283 642 305 q 650 237 650 261 q 607 107 650 165 q 496 17 564 48 q 354 -14 429 -14 q 96 22 248 -14 q 77 140 87 62 q 64 252 66 218 q 82 264 68 258 q 103 271 97 271 q 121 260 119 271 q 143 195 125 231 q 189 125 161 159 q 257 67 216 90 q 340 43 297 43 q 435 75 397 43 q 472 175 472 107 q 466 211 472 193 q 451 243 459 229 q 426 275 443 258 q 398 304 409 293 q 364 332 387 315 q 332 355 342 349 q 299 378 322 362 q 271 396 275 393 q 160 477 188 452 q 74 647 79 550 q 73 663 73 655 q 116 788 73 730 q 226 877 159 846 q 362 909 292 909 z "},"T":{"ha":860,"x_min":11,"x_max":849,"o":"m 655 891 q 727 898 698 891 q 772 910 757 904 q 796 917 788 917 q 812 913 804 917 l 849 663 q 833 657 846 661 q 810 654 819 654 q 796 661 798 654 q 744 780 786 728 q 651 831 702 831 l 525 831 l 525 197 q 536 69 525 96 q 623 45 543 51 q 627 19 627 37 q 623 -5 627 1 q 429 4 530 4 q 237 -5 330 4 q 233 19 233 1 q 237 45 233 37 q 324 69 317 51 q 335 197 335 96 l 335 831 l 209 831 q 116 780 158 831 q 64 661 74 728 q 50 654 62 654 q 27 657 41 654 q 11 663 14 661 l 47 913 q 64 917 56 917 q 87 910 72 917 q 132 898 102 904 q 205 891 162 891 l 655 891 z "},"U":{"ha":990,"x_min":26,"x_max":990,"o":"m 224 888 q 416 898 323 888 q 420 873 420 892 q 416 848 420 855 q 329 823 336 842 q 318 696 318 796 l 318 448 q 324 316 318 367 q 352 216 330 265 q 558 85 408 85 q 638 105 600 85 q 709 163 677 124 q 759 268 741 201 q 778 419 778 334 l 778 650 q 772 745 778 695 q 759 815 767 795 q 657 848 748 841 q 653 873 652 855 q 657 898 653 892 q 827 888 769 888 q 916 893 861 888 q 985 898 970 897 q 990 873 989 892 q 985 848 990 855 q 978 847 985 848 q 966 846 970 847 q 953 845 962 846 q 938 843 944 844 q 923 840 932 842 q 909 836 915 838 q 897 830 903 833 q 887 824 890 827 q 881 815 883 820 q 867 746 873 795 q 862 651 862 696 l 862 388 q 842 240 862 307 q 787 127 822 174 q 705 50 753 81 q 604 3 658 18 q 490 -12 550 -12 q 327 18 401 -12 q 204 107 252 48 q 128 408 128 203 l 128 696 q 117 823 128 796 q 31 848 111 842 q 26 873 26 855 q 31 898 26 892 q 224 888 123 888 z "},"V":{"ha":928,"x_min":-8,"x_max":952,"o":"m 191 888 q 382 898 289 888 q 386 873 386 892 q 382 848 387 855 q 374 847 381 848 q 364 847 368 847 q 353 845 361 846 q 340 843 345 844 q 328 840 335 842 q 316 836 321 838 q 308 829 312 833 q 301 821 303 826 q 299 811 299 817 q 332 709 299 785 l 534 252 q 713 707 699 669 q 720 728 714 710 q 729 753 726 745 q 735 774 731 760 q 741 797 739 787 q 743 815 743 807 q 634 848 743 840 q 630 873 629 855 q 634 898 630 892 q 795 888 746 888 q 880 893 830 888 q 947 898 930 897 q 952 873 951 892 q 947 848 952 855 q 938 847 946 848 q 923 846 929 846 q 908 844 918 846 q 891 841 898 843 q 876 837 884 840 q 862 831 867 835 q 852 823 856 828 q 797 711 834 799 q 642 340 733 555 q 516 41 551 125 q 486 4 508 22 q 451 -15 463 -15 q 443 -13 446 -15 q 437 -4 439 -10 q 432 4 434 1 l 136 692 q 89 803 107 763 q 61 830 81 819 q 25 843 41 840 q -3 848 10 846 q -8 873 -8 855 q -3 898 -7 892 q 191 888 90 888 z "},"W":{"ha":1290,"x_min":-8,"x_max":1308,"o":"m 191 888 q 382 898 290 888 q 387 873 387 892 q 382 848 387 855 q 375 847 382 848 q 365 847 368 847 q 353 845 361 846 q 340 843 345 844 q 329 840 336 842 q 317 836 321 838 q 308 829 313 833 q 302 821 304 826 q 300 811 300 817 q 301 797 300 805 q 307 777 303 789 q 314 757 311 765 q 323 732 317 749 q 332 709 330 716 l 465 340 q 646 848 613 760 q 665 883 653 868 q 688 898 677 898 q 704 876 696 898 l 936 290 q 1069 707 1055 663 q 1076 728 1071 713 q 1083 752 1080 743 q 1089 774 1086 762 q 1094 797 1093 787 q 1096 815 1096 807 q 990 848 1096 840 q 986 873 985 855 q 990 898 986 892 q 1152 888 1101 888 q 1236 893 1186 888 q 1303 898 1286 897 q 1308 873 1308 892 q 1303 848 1308 855 q 1294 847 1302 848 q 1279 846 1285 846 q 1264 844 1274 846 q 1247 841 1254 843 q 1232 837 1240 840 q 1218 831 1223 835 q 1208 823 1212 828 q 1153 711 1174 777 q 930 54 1124 622 q 905 6 921 28 q 876 -15 888 -15 q 850 4 864 -15 l 627 567 q 454 60 521 254 q 432 12 447 39 q 407 -15 418 -15 q 381 4 395 -15 l 137 692 q 90 803 130 714 q 62 830 82 819 q 26 843 41 840 q -3 848 11 846 q -8 873 -8 855 q -3 898 -7 891 q 191 888 90 888 z "},"X":{"ha":963,"x_min":-12,"x_max":969,"o":"m 239 890 q 434 898 271 890 q 436 870 437 892 q 431 848 436 848 q 386 840 411 848 q 359 819 360 833 q 370 789 359 806 l 521 562 q 585 641 538 584 q 660 734 631 697 q 697 792 688 772 q 701 806 701 800 q 669 835 701 823 q 601 848 637 848 q 595 870 595 848 q 600 898 595 892 q 780 888 682 888 q 943 898 873 888 q 946 869 946 891 q 941 848 946 848 q 920 846 932 848 q 884 838 907 844 q 835 816 861 832 q 789 776 810 800 l 557 500 q 730 245 644 370 q 830 103 815 120 q 898 59 856 73 q 964 45 939 45 q 969 19 968 35 q 964 -5 969 3 q 747 3 802 3 q 624 -1 703 3 q 533 -5 545 -5 q 529 22 528 0 q 536 45 530 45 q 583 56 553 45 q 612 83 612 66 q 608 98 612 92 l 427 370 q 240 113 271 164 q 229 90 229 94 q 266 56 229 68 q 342 45 303 45 q 348 22 347 38 q 346 -5 349 5 q 167 3 212 3 q 106 1 136 3 q 43 -2 77 0 q -7 -5 9 -5 q -12 19 -12 1 q -7 45 -12 38 q 16 46 2 45 q 54 53 29 48 q 102 73 79 58 q 141 107 126 87 l 382 437 l 193 728 q 178 751 189 734 q 161 776 168 767 q 147 797 155 785 q 132 816 138 808 q 119 827 125 823 q 75 842 106 836 q 27 848 44 848 q 22 870 22 848 q 27 898 22 892 q 239 890 227 890 z "},"Y":{"ha":846,"x_min":0,"x_max":867,"o":"m 317 197 l 317 385 q 309 412 317 394 q 251 524 293 445 q 174 666 209 604 l 139 728 q 97 803 117 770 q 56 835 84 825 q 5 848 27 846 q 0 873 0 855 q 5 898 1 892 q 199 888 98 888 q 390 898 297 888 q 394 873 394 892 q 390 848 395 855 q 382 847 389 848 q 372 847 376 847 q 361 845 369 846 q 348 843 353 844 q 336 840 343 842 q 325 836 329 838 q 316 829 320 833 q 309 821 311 826 q 307 811 307 817 q 317 789 307 806 l 479 490 q 537 579 484 485 q 650 784 591 673 q 657 815 657 798 q 557 848 657 840 q 552 873 552 855 q 557 898 553 892 q 710 888 669 888 q 794 893 745 888 q 862 898 844 897 q 866 873 866 892 q 862 848 867 855 l 853 847 q 841 846 845 846 q 828 845 838 846 q 812 842 819 844 q 798 838 806 840 q 783 832 789 836 q 771 824 777 829 q 762 814 765 819 q 632 607 725 758 q 513 404 538 456 q 507 378 507 391 l 507 197 q 517 69 505 99 q 604 45 524 51 q 609 19 609 37 q 604 -5 608 1 q 410 4 511 4 q 219 -5 312 4 q 215 19 215 1 q 219 45 214 37 q 306 69 299 51 q 309 79 308 74 q 312 90 311 83 q 313 101 313 96 q 315 115 314 106 q 316 128 315 123 q 316 144 316 133 q 316 160 316 155 q 317 178 317 165 q 317 197 317 192 z "},"Z":{"ha":868,"x_min":26,"x_max":833,"o":"m 317 827 q 277 824 296 827 q 244 817 258 821 q 217 803 230 812 q 194 787 203 794 q 176 766 185 780 q 161 744 167 753 q 149 720 156 736 q 139 695 142 703 q 129 668 136 686 q 120 643 123 650 q 102 635 117 635 q 63 642 70 635 q 78 719 68 667 q 97 815 89 770 q 112 898 106 859 q 195 891 126 895 q 290 888 264 888 l 479 890 q 794 903 629 892 q 803 886 798 903 q 808 859 808 869 q 674 655 806 854 q 411 260 543 457 l 280 64 l 573 64 q 702 111 654 64 q 741 160 724 134 q 774 231 758 186 q 793 239 776 239 q 817 236 804 239 q 833 231 831 233 q 797 122 827 210 q 760 1 767 35 l 63 0 q 45 6 55 0 q 31 20 36 13 q 28 30 26 27 l 565 827 l 317 827 z "},"[":{"ha":502,"x_min":149,"x_max":461,"o":"m 175 990 q 453 1012 342 990 q 460 1004 458 1012 q 461 1000 461 1002 q 449 966 461 990 q 448 964 448 964 q 322 933 421 951 q 294 928 303 930 l 294 -469 q 331 -476 304 -471 q 448 -506 412 -490 q 459 -526 455 -509 q 461 -541 461 -534 q 453 -553 460 -551 q 175 -532 340 -532 q 150 -507 154 -530 q 149 -500 149 -504 l 149 959 q 169 989 149 981 q 175 990 172 990 z "},"\\":{"ha":479,"x_min":16,"x_max":459,"o":"m 42 988 q 86 979 69 988 q 109 958 103 969 l 459 -272 l 457 -274 q 450 -279 456 -277 q 435 -281 444 -281 q 387 -272 404 -281 q 367 -253 370 -263 l 16 977 q 42 988 19 988 z "},"]":{"ha":502,"x_min":41,"x_max":353,"o":"m 327 990 q 333 989 330 990 q 353 959 353 981 l 353 -500 q 352 -507 353 -504 q 327 -532 348 -530 q 49 -553 161 -532 q 41 -541 41 -551 q 43 -526 41 -534 q 54 -506 47 -509 q 171 -476 90 -490 q 208 -469 197 -471 l 208 928 q 180 933 199 930 q 54 964 81 951 q 53 966 54 964 q 41 1000 41 990 q 41 1004 41 1002 q 49 1012 43 1012 q 327 990 160 990 z "},"^":{"ha":530,"x_min":52,"x_max":452,"o":"m 252 907 q 279 888 269 907 q 334 790 300 852 q 394 686 369 728 q 452 593 418 644 q 443 575 452 583 q 426 568 435 568 q 347 647 391 601 q 278 724 304 694 l 252 754 q 79 568 157 642 q 60 575 69 568 q 52 593 52 583 q 102 674 78 633 q 138 734 127 714 q 182 811 150 754 q 227 888 215 868 q 252 907 237 907 z "},"_":{"ha":669,"x_min":11,"x_max":646,"o":"m 11 -45 q 31 18 18 18 l 640 18 q 646 11 646 18 q 632 -50 646 -1 q 629 -56 631 -54 q 625 -58 627 -58 l 624 -58 l 20 -58 q 11 -45 11 -58 z "},"`":{"ha":338,"x_min":60,"x_max":294,"o":"m 60 892 q 75 918 60 905 q 122 932 91 932 q 168 920 156 932 q 222 848 191 893 q 274 769 253 803 q 294 732 294 736 q 286 717 294 726 q 271 708 278 708 q 212 743 263 708 q 110 823 161 777 q 60 892 60 869 z "},"a":{"ha":640,"x_min":42,"x_max":621,"o":"m 308 84 q 347 95 331 84 q 363 113 363 105 l 363 302 q 325 285 359 300 q 274 259 290 269 q 225 168 222 226 q 252 106 226 128 q 308 84 277 84 m 336 609 q 481 550 422 609 q 540 401 540 492 l 540 148 q 549 107 540 121 q 572 92 558 92 q 586 94 579 92 q 597 98 593 96 q 606 103 601 100 l 612 106 q 621 83 621 101 q 616 62 621 71 q 584 36 602 50 q 534 7 566 22 q 476 -8 502 -8 q 413 13 444 -8 q 373 60 382 34 q 304 17 356 45 q 220 -11 252 -11 q 94 40 145 -11 q 42 155 42 92 q 63 223 42 193 q 113 263 85 254 q 181 288 135 271 q 283 327 227 305 q 363 358 339 349 l 363 387 l 363 422 q 341 516 363 475 q 283 557 318 557 q 257 551 269 557 q 237 535 245 545 q 223 509 230 526 q 213 479 217 492 q 205 444 210 466 q 129 384 192 384 q 79 402 100 384 q 58 449 58 421 q 77 505 58 471 q 181 570 103 530 q 336 609 260 609 z "},"b":{"ha":735,"x_min":-3,"x_max":694,"o":"m 330 -11 q 231 5 290 -11 q 159 20 172 20 q 109 11 132 20 q 91 25 105 11 q 77 45 77 39 q 93 206 93 87 l 93 757 q 83 822 93 799 q 50 840 79 833 q 2 846 20 846 q -2 856 -1 846 q -2 877 -3 866 q 2 890 -1 887 q 87 901 45 894 q 159 915 129 907 q 213 928 189 922 q 250 939 237 935 q 264 943 263 943 q 276 933 269 942 q 284 920 283 925 q 269 783 269 859 l 269 563 q 269 556 269 559 q 270 549 269 554 q 273 544 271 544 q 277 545 274 544 q 342 587 302 566 q 412 609 382 609 q 612 527 530 609 q 694 320 694 444 q 673 203 694 257 q 616 110 652 149 q 534 43 581 71 q 436 2 488 16 q 330 -11 384 -11 m 344 509 q 273 479 300 509 q 269 467 269 475 l 269 133 q 293 73 269 97 q 359 49 317 49 q 433 82 400 49 q 482 165 466 116 q 498 266 498 214 q 456 452 498 396 q 344 509 414 509 z "},"c":{"ha":606,"x_min":42,"x_max":576,"o":"m 560 518 q 538 460 560 486 q 481 434 516 434 q 462 437 471 434 q 443 449 452 441 q 428 463 433 457 q 413 480 422 468 q 400 495 404 492 q 308 537 363 537 q 257 507 279 537 q 224 435 235 477 q 213 350 213 393 q 231 232 213 282 q 278 154 249 181 q 340 114 308 127 q 408 102 373 102 q 560 170 498 102 q 572 160 567 168 q 576 145 576 152 q 572 119 576 125 q 541 82 562 102 q 490 40 521 62 q 415 3 458 18 q 327 -12 372 -12 q 186 21 250 -12 q 82 120 121 54 q 42 271 42 185 q 71 393 42 332 q 149 502 100 454 q 262 578 197 549 q 396 608 328 608 q 483 600 446 608 q 533 583 519 592 q 560 518 560 553 z "},"d":{"ha":742,"x_min":43,"x_max":713,"o":"m 399 605 q 453 602 431 605 q 460 633 460 602 q 460 757 460 633 q 450 822 460 799 q 416 840 446 833 q 369 846 387 846 q 365 856 366 846 q 365 877 363 866 q 369 890 366 887 q 454 901 412 894 q 526 915 496 907 q 580 928 556 922 q 617 939 604 935 q 631 943 630 943 q 643 933 636 942 q 651 920 650 925 q 636 783 636 859 l 636 146 q 648 95 636 109 q 709 81 661 81 q 713 64 713 77 q 705 38 713 50 q 616 23 671 35 q 520 1 561 11 q 472 -9 479 -9 q 464 0 467 -9 q 460 23 460 9 l 460 45 q 456 52 460 54 q 289 -11 365 -11 q 117 71 190 -11 q 43 271 43 153 q 68 394 43 337 q 133 489 94 451 q 220 553 172 526 q 314 593 269 581 q 399 605 360 605 m 354 536 q 285 506 313 536 q 247 432 258 476 q 236 330 236 387 q 273 146 236 216 q 373 76 311 76 q 430 94 400 76 q 460 126 460 112 l 460 475 q 427 515 460 494 q 354 536 395 536 z "},"e":{"ha":624,"x_min":43,"x_max":582,"o":"m 221 382 q 301 386 230 382 q 396 393 372 390 q 414 415 414 395 q 393 510 414 469 q 331 551 373 551 q 280 531 303 551 q 245 484 258 512 q 227 429 233 455 q 221 382 221 402 m 220 328 q 234 232 220 274 q 269 166 248 190 q 317 127 290 142 q 366 107 344 112 q 410 102 389 102 q 562 170 500 102 q 573 160 568 168 q 578 145 578 152 q 574 119 578 125 q 543 82 563 102 q 491 40 522 62 q 417 3 460 18 q 328 -12 374 -12 q 187 21 252 -12 q 83 120 123 54 q 43 271 43 185 q 86 433 43 355 q 198 558 128 511 q 345 606 269 606 q 437 592 395 606 q 505 557 479 578 q 549 507 531 535 q 574 453 567 479 q 582 401 582 427 q 571 362 582 379 q 545 345 560 345 q 220 328 423 334 z "},"f":{"ha":481,"x_min":31,"x_max":557,"o":"m 415 947 q 555 871 548 947 q 536 806 557 839 q 481 777 517 777 q 415 812 448 777 q 396 829 407 821 q 342 849 371 849 q 313 810 326 849 q 301 724 301 771 q 307 560 301 644 l 465 560 q 473 543 473 560 q 463 519 473 534 q 442 496 453 504 l 311 496 l 311 197 q 321 69 311 98 q 408 45 328 51 q 413 19 413 37 q 408 -5 412 1 q 222 4 316 4 q 37 -5 129 4 q 32 19 33 1 q 37 45 32 37 q 123 69 117 51 q 134 197 134 96 l 134 496 l 38 496 q 31 514 31 499 q 75 560 49 538 l 134 560 l 134 601 q 164 733 134 667 q 236 844 193 798 q 328 918 279 890 q 415 947 376 947 z "},"g":{"ha":648,"x_min":33,"x_max":636,"o":"m 292 551 q 251 539 267 551 q 228 505 235 528 q 219 464 221 483 q 217 416 217 445 q 226 339 217 375 q 257 277 235 304 q 313 251 280 251 q 339 256 328 251 q 358 267 351 260 q 370 286 365 273 q 377 308 375 299 q 381 334 380 316 q 382 360 382 352 q 382 387 382 368 q 375 463 382 428 q 346 524 368 498 q 292 551 325 551 m 353 -19 l 203 -19 q 182 -79 182 -44 q 227 -182 182 -144 q 345 -220 272 -220 q 424 -209 391 -220 q 474 -180 457 -198 q 497 -144 490 -162 q 505 -107 505 -126 q 462 -42 505 -66 q 353 -19 420 -19 m 442 130 q 523 111 486 127 q 579 70 559 94 q 611 23 600 47 q 623 -19 623 -1 q 570 -163 623 -98 q 435 -261 517 -227 q 259 -296 352 -296 q 96 -252 159 -296 q 33 -140 33 -209 q 68 -66 33 -102 q 148 -8 104 -30 q 90 41 114 1 q 66 125 66 81 q 101 171 66 142 q 179 224 136 200 q 87 294 121 248 q 53 399 53 341 q 124 542 53 484 q 298 601 195 601 q 444 567 393 601 q 452 563 448 563 l 621 579 q 636 564 636 574 q 624 530 636 556 q 602 496 612 503 q 526 505 576 498 q 518 500 518 505 q 547 406 547 461 q 476 260 547 320 q 301 201 405 201 q 231 208 267 201 q 198 165 198 181 q 218 141 198 151 q 263 132 237 132 q 442 130 418 132 z "},"h":{"ha":791,"x_min":18,"x_max":785,"o":"m 498 605 q 577 592 545 605 q 630 554 610 578 q 663 490 651 530 q 679 401 674 449 q 683 285 683 353 l 683 197 q 694 69 683 96 q 781 45 701 51 q 785 19 785 37 q 781 -5 785 1 q 595 4 688 4 q 425 -5 518 4 q 421 19 421 1 q 425 45 420 37 q 496 69 488 50 q 507 197 507 96 l 507 304 q 416 495 507 495 q 337 468 377 495 q 296 419 296 441 l 296 197 q 307 69 296 96 q 385 45 315 50 q 389 19 389 37 q 385 -5 389 1 q 208 4 292 4 q 22 -5 115 4 q 18 19 18 1 q 22 45 18 37 q 109 69 102 51 q 120 197 120 96 l 120 757 q 111 822 120 799 q 77 840 106 833 q 29 846 47 846 q 25 856 26 846 q 25 877 24 866 q 29 890 26 887 q 114 901 72 894 q 186 915 156 907 q 240 928 216 922 q 277 939 264 935 q 291 943 290 943 q 303 933 296 942 q 311 920 310 925 q 296 781 296 836 l 296 505 q 298 496 296 498 q 307 503 300 496 q 396 572 338 539 q 498 605 454 605 z "},"i":{"ha":427,"x_min":35,"x_max":407,"o":"m 314 419 l 314 197 q 325 69 314 96 q 402 45 332 50 q 407 19 407 37 q 402 -5 406 1 q 226 4 309 4 q 40 -5 133 4 q 36 19 36 1 q 40 45 35 37 q 127 69 120 51 q 138 197 138 96 l 138 353 q 125 464 138 441 q 87 484 119 477 q 40 491 56 491 q 37 513 37 493 q 41 533 37 533 q 186 560 112 538 q 306 605 260 582 q 321 594 313 603 q 329 582 329 585 q 321 546 326 574 q 315 505 317 519 q 314 419 314 475 m 143 766 q 129 781 143 766 q 115 836 115 795 q 143 905 115 876 q 212 933 172 933 q 282 905 253 933 q 311 836 311 876 q 282 766 311 795 q 212 738 253 738 q 143 766 172 738 z "},"j":{"ha":388,"x_min":-16,"x_max":312,"o":"m 121 87 l 121 353 q 109 464 121 441 q 70 484 102 477 q 23 491 39 491 q 20 513 20 493 q 24 533 20 533 q 169 560 95 538 q 289 605 243 582 q 304 594 296 603 q 312 582 312 585 q 304 546 309 574 q 298 505 300 519 q 297 419 297 475 l 297 163 q 232 -138 297 -43 q 115 -249 188 -203 q 3 -296 41 -296 q -16 -273 -16 -285 q -15 -263 -16 -264 q 2 -253 -8 -260 q 35 -219 12 -246 q 75 -157 58 -192 q 106 -57 92 -121 q 121 87 121 8 m 127 764 q 112 779 127 764 q 98 836 98 793 q 127 907 98 878 q 198 936 156 936 q 269 907 240 936 q 298 836 298 878 q 269 764 298 793 q 198 735 240 735 q 127 764 156 735 z "},"k":{"ha":800,"x_min":18,"x_max":802,"o":"m 296 197 q 307 69 296 96 q 394 45 314 51 q 398 19 399 37 q 394 -5 398 1 q 208 4 301 4 q 22 -5 115 4 q 18 19 18 1 q 22 45 18 37 q 109 69 102 51 q 120 197 120 96 l 120 757 q 111 822 120 799 q 77 840 106 833 q 29 846 47 846 q 25 856 26 846 q 25 877 24 866 q 29 890 26 887 q 114 901 72 894 q 186 915 156 907 q 240 928 216 922 q 277 939 264 935 q 291 943 290 943 q 303 933 296 942 q 311 920 310 925 q 296 781 296 836 l 295 320 q 397 389 331 333 q 491 476 467 449 q 516 519 516 504 q 485 539 516 530 q 429 549 454 548 q 427 576 426 558 q 432 595 427 593 q 610 590 553 590 q 654 591 631 590 q 708 594 677 592 q 760 597 739 596 q 764 570 766 587 q 756 549 762 553 q 622 507 671 541 q 584 476 610 498 q 517 414 559 453 q 443 347 475 376 q 555 220 498 282 q 635 133 612 159 q 685 85 662 103 q 729 60 708 67 q 763 51 750 52 q 797 49 776 49 q 801 24 802 35 q 797 8 800 13 q 739 -3 780 2 q 660 -8 698 -8 q 554 14 602 -8 q 474 72 505 35 q 314 255 380 172 q 307 263 311 258 q 300 270 302 267 l 296 273 l 296 197 z "},"l":{"ha":415,"x_min":18,"x_max":399,"o":"m 120 757 q 111 822 120 799 q 77 840 106 833 q 29 846 47 846 q 25 856 26 846 q 25 877 24 866 q 29 890 26 887 q 114 901 72 894 q 186 915 156 907 q 240 928 216 922 q 277 939 264 935 q 291 943 290 943 q 303 933 296 942 q 311 920 310 925 q 296 781 296 836 l 296 197 q 307 69 296 96 q 394 45 314 51 q 398 19 399 37 q 394 -5 398 1 q 208 4 301 4 q 22 -5 115 4 q 18 19 18 1 q 22 45 18 37 q 109 69 102 51 q 120 197 120 96 l 120 757 z "},"m":{"ha":1198,"x_min":35,"x_max":1192,"o":"m 516 605 q 620 579 582 605 q 683 488 659 553 q 794 569 729 534 q 905 605 860 605 q 984 592 951 605 q 1037 554 1017 578 q 1069 490 1058 530 q 1085 401 1081 449 q 1090 285 1090 353 l 1090 197 q 1101 69 1090 96 q 1187 45 1107 51 q 1192 19 1192 37 q 1187 -5 1192 1 q 1002 4 1095 4 q 832 -5 925 4 q 828 19 828 1 q 832 45 827 37 q 903 69 895 50 q 913 197 913 96 l 913 304 q 823 495 913 495 q 739 468 783 495 q 695 420 695 441 l 695 412 q 701 285 701 336 l 701 197 q 711 69 701 96 q 795 45 718 51 q 800 19 800 37 q 795 -5 800 1 q 612 4 703 4 q 440 -5 533 4 q 436 19 436 1 q 440 45 435 37 q 513 69 506 50 q 524 197 524 96 l 524 304 q 433 495 524 495 q 354 468 395 495 q 314 419 314 441 l 314 197 q 325 69 314 96 q 402 45 332 50 q 407 19 407 37 q 402 -5 406 1 q 226 4 309 4 q 40 -5 133 4 q 36 19 36 1 q 40 45 35 37 q 127 69 120 51 q 138 197 138 96 l 138 353 q 125 464 138 441 q 87 484 119 477 q 40 491 56 491 q 37 513 37 493 q 41 533 37 533 q 186 560 112 538 q 306 605 260 582 q 321 594 313 603 q 329 582 329 585 q 320 540 326 574 q 315 505 314 506 q 317 496 315 498 q 326 503 319 496 q 415 572 358 539 q 516 605 473 605 z "},"n":{"ha":808,"x_min":35,"x_max":803,"o":"m 516 605 q 595 592 562 605 q 648 554 627 578 q 680 490 669 530 q 696 401 692 449 q 701 285 701 353 l 701 197 q 711 69 701 96 q 798 45 718 51 q 803 19 803 37 q 798 -5 802 1 q 612 4 705 4 q 443 -5 536 4 q 438 19 439 1 q 443 45 438 37 q 513 69 506 50 q 524 197 524 96 l 524 304 q 433 495 524 495 q 354 468 395 495 q 314 419 314 441 l 314 197 q 325 69 314 96 q 402 45 332 50 q 407 19 407 37 q 402 -5 406 1 q 226 4 309 4 q 40 -5 133 4 q 36 19 36 1 q 40 45 35 37 q 127 69 120 51 q 138 197 138 96 l 138 353 q 125 464 138 441 q 87 484 119 477 q 40 491 56 491 q 37 513 37 493 q 41 533 37 533 q 186 560 112 538 q 306 605 260 582 q 320 596 312 605 q 329 582 329 587 q 324 558 328 577 q 318 522 321 539 q 315 505 315 505 q 317 496 315 498 q 326 503 319 496 q 415 572 358 539 q 516 605 473 605 z "},"o":{"ha":722,"x_min":43,"x_max":678,"o":"m 345 551 q 286 530 309 551 q 253 472 263 509 q 239 400 243 434 q 236 321 236 366 q 250 197 236 257 q 296 92 263 137 q 376 47 329 47 q 425 62 404 47 q 457 98 446 77 q 475 153 469 120 q 484 212 482 185 q 486 274 486 239 q 472 400 486 339 q 425 506 458 460 q 345 551 391 551 m 359 606 q 589 521 499 606 q 678 305 678 435 q 637 148 678 220 q 523 33 595 76 q 362 -9 450 -9 q 133 78 222 -9 q 43 294 43 165 q 135 515 43 423 q 359 606 227 606 z "},"p":{"ha":750,"x_min":14,"x_max":707,"o":"m 441 608 q 583 566 521 608 q 676 459 644 525 q 707 317 707 393 q 676 179 707 243 q 597 75 646 115 q 490 12 548 35 q 375 -11 432 -11 q 340 -8 358 -11 q 310 -2 321 -5 q 296 1 298 1 q 292 -20 292 1 l 292 -94 q 303 -221 292 -194 q 390 -245 310 -239 q 394 -271 395 -253 q 390 -296 394 -290 q 204 -286 297 -286 q 18 -296 111 -286 q 14 -271 14 -290 q 18 -245 14 -253 q 105 -221 98 -239 q 116 -94 116 -194 l 116 353 q 104 464 116 441 q 65 484 97 477 q 18 491 34 491 q 15 513 15 493 q 20 533 15 533 q 164 560 90 538 q 284 605 239 582 q 299 594 291 603 q 307 582 307 585 q 303 572 307 581 q 297 554 299 563 q 295 536 295 545 q 298 526 295 526 q 300 528 299 526 q 372 585 332 562 q 441 608 411 608 m 367 509 q 326 500 344 509 q 300 484 307 492 q 292 471 292 475 l 292 130 q 319 70 292 92 q 385 49 347 49 q 424 62 403 49 q 465 100 444 75 q 498 170 485 125 q 512 270 512 214 q 367 509 512 509 z "},"q":{"ha":724,"x_min":43,"x_max":734,"o":"m 355 534 q 297 516 321 534 q 260 468 273 498 q 241 403 247 437 q 236 330 236 369 q 243 242 236 284 q 266 161 250 199 q 309 99 281 123 q 374 76 337 76 q 417 83 397 76 q 446 98 437 90 q 456 109 456 105 l 456 467 q 450 483 456 473 q 432 506 444 494 q 400 526 421 517 q 355 534 380 534 m 407 605 q 491 589 434 605 q 567 574 548 574 q 616 583 587 574 q 635 569 623 581 q 648 549 648 556 q 632 395 632 510 l 632 -94 q 643 -221 632 -194 q 730 -245 650 -239 q 734 -271 734 -253 q 730 -296 734 -290 q 544 -286 637 -286 q 358 -296 450 -286 q 354 -271 354 -290 q 358 -245 353 -253 q 445 -221 438 -239 q 456 -94 456 -194 l 456 23 q 456 30 456 28 q 455 37 456 33 q 452 42 454 42 q 448 41 450 42 q 380 7 426 24 q 293 -11 335 -11 q 117 70 191 -11 q 43 260 43 150 q 76 404 43 337 q 161 513 109 470 q 277 581 213 556 q 407 605 342 605 z "},"r":{"ha":609,"x_min":35,"x_max":593,"o":"m 493 606 q 578 583 553 606 q 588 556 583 576 q 593 517 593 536 q 569 445 593 479 q 512 410 545 410 q 494 414 503 410 q 480 421 485 418 q 465 433 476 424 q 454 444 454 443 q 446 451 452 446 q 436 459 439 457 q 428 466 433 462 q 417 471 422 469 q 405 472 412 472 q 341 431 368 472 q 314 362 314 391 l 314 197 q 325 69 314 96 q 425 45 332 52 q 429 19 429 37 q 425 -5 429 1 q 226 4 332 4 q 40 -5 133 4 q 36 19 36 1 q 40 45 35 37 q 127 69 120 51 q 138 197 138 96 l 138 353 q 125 464 138 441 q 87 484 119 477 q 40 491 56 491 q 37 513 37 493 q 41 533 37 533 q 186 560 112 538 q 306 605 260 582 q 321 594 313 603 q 329 582 329 585 q 321 532 326 574 q 315 475 315 490 q 317 470 315 471 q 321 469 319 469 q 323 471 323 469 q 352 517 338 497 q 388 559 366 537 q 436 594 409 582 q 493 606 463 606 z "},"s":{"ha":548,"x_min":52,"x_max":498,"o":"m 304 608 q 357 604 332 608 q 415 592 382 600 q 456 582 448 583 q 474 488 465 545 q 484 415 484 431 q 476 408 484 411 q 460 406 468 406 q 434 416 450 406 q 290 553 404 553 q 234 534 256 553 q 213 480 213 515 q 219 449 213 463 q 235 424 226 434 q 260 404 244 414 q 288 388 276 394 q 321 374 300 382 q 351 359 341 365 q 439 309 416 327 q 498 176 498 261 q 476 90 498 127 q 417 32 454 53 q 332 0 379 10 q 231 -11 286 -11 q 184 -7 210 -11 q 143 0 158 -3 q 101 10 127 3 q 72 18 75 17 q 65 107 68 38 q 61 194 61 176 q 81 203 61 203 q 99 199 90 203 q 111 190 109 195 q 134 118 118 148 q 172 72 150 87 q 214 50 193 57 q 258 43 235 43 q 314 65 292 43 q 335 117 335 87 q 327 152 335 136 q 303 179 319 167 q 273 199 288 191 q 234 218 258 207 q 195 237 209 230 q 139 272 161 256 q 95 310 116 288 q 62 360 73 332 q 52 420 52 387 q 76 506 52 469 q 138 565 100 544 q 219 597 176 587 q 304 608 261 608 z "},"t":{"ha":464,"x_min":8,"x_max":450,"o":"m 288 581 q 442 581 288 581 q 450 563 450 581 q 440 539 450 554 q 419 517 430 524 l 288 517 l 288 180 q 305 102 288 127 q 361 77 323 77 q 403 90 382 77 q 433 110 425 102 q 442 91 442 100 q 438 77 442 86 q 431 65 434 68 q 404 39 420 53 q 354 8 388 25 q 288 -9 319 -9 q 237 -4 261 -9 q 190 17 213 2 q 149 53 166 31 q 122 110 132 75 q 111 189 111 144 l 111 517 l 15 517 q 8 534 8 519 q 52 581 26 559 l 111 581 l 111 652 q 197 736 142 678 q 254 796 252 794 q 276 803 265 803 q 288 796 286 802 l 288 581 z "},"u":{"ha":768,"x_min":12,"x_max":736,"o":"m 482 353 q 470 464 482 441 q 432 484 463 477 q 385 491 400 491 q 381 513 381 493 q 386 533 381 533 q 531 560 456 538 q 650 605 605 582 q 665 594 657 603 q 673 582 673 585 q 666 546 671 574 q 660 505 661 519 q 659 419 659 475 l 659 146 q 671 95 659 109 q 732 81 683 81 q 736 64 736 77 q 728 38 736 50 q 638 23 693 35 q 542 1 583 11 q 494 -9 501 -9 q 486 0 490 -9 q 482 23 482 9 l 482 45 q 478 52 482 54 q 440 29 462 41 q 374 5 418 18 q 287 -7 330 -7 q 204 13 239 -7 q 150 67 170 33 q 122 144 131 102 q 113 236 113 186 l 113 353 q 101 464 113 441 q 63 484 94 477 q 16 491 31 491 q 12 513 12 493 q 17 533 12 533 q 162 560 87 538 q 281 605 236 582 q 296 594 288 603 q 304 582 304 585 q 297 546 302 574 q 291 505 292 519 q 290 419 290 475 l 290 297 q 312 129 290 182 q 395 76 335 76 q 453 93 423 76 q 482 126 482 111 l 482 353 z "},"v":{"ha":723,"x_min":-5,"x_max":729,"o":"m 183 591 q 354 601 275 591 q 359 576 359 595 q 354 551 359 557 q 305 540 336 551 q 274 514 274 529 q 277 494 274 500 l 416 227 q 524 464 479 363 q 538 514 538 494 q 526 534 538 526 q 494 545 513 542 q 463 550 475 549 q 442 551 450 551 q 437 575 437 555 q 441 601 437 594 q 583 591 512 591 q 724 601 653 591 q 729 577 728 595 q 724 551 729 558 q 692 548 711 551 q 648 535 673 546 q 614 506 623 524 l 406 61 q 345 -15 367 -15 q 328 -4 339 -15 q 220 220 303 48 q 85 499 138 392 q 45 538 74 526 q 0 551 16 551 q -5 577 -5 559 q 0 601 -5 594 q 183 591 82 591 z "},"w":{"ha":1070,"x_min":-5,"x_max":1075,"o":"m 174 591 q 354 601 275 591 q 359 576 359 595 q 354 551 359 557 q 305 540 336 551 q 274 514 274 529 q 277 494 274 500 l 408 233 q 498 454 498 434 q 486 499 498 475 q 444 537 473 524 q 400 551 415 551 q 394 577 393 559 q 399 601 394 594 q 582 591 447 595 q 753 601 673 591 q 758 576 758 595 q 753 551 758 557 q 704 540 734 551 q 673 514 673 529 q 675 494 673 500 l 789 244 q 882 464 838 365 q 897 514 897 501 q 884 534 897 526 q 852 545 871 542 q 821 550 833 549 q 800 551 808 551 q 795 575 795 555 q 799 601 795 594 q 941 591 870 591 q 1070 601 999 591 q 1075 577 1074 595 q 1070 551 1075 558 q 978 509 996 551 q 779 60 870 258 q 742 4 762 24 q 711 -15 722 -15 q 694 -4 705 -15 q 544 374 589 269 q 491 249 525 328 q 434 115 458 171 l 410 60 q 374 5 394 24 q 342 -15 353 -15 q 326 -4 336 -15 q 85 499 154 361 q 44 538 73 526 q 0 551 16 551 q -5 577 -5 559 q 0 601 -5 594 q 174 591 82 591 z "},"x":{"ha":757,"x_min":7,"x_max":752,"o":"m 211 591 q 382 601 302 591 q 387 576 387 595 q 382 551 387 557 q 340 543 363 551 q 317 521 317 536 q 330 502 317 519 l 417 391 q 522 514 522 503 q 509 534 522 526 q 477 545 496 542 q 446 550 458 549 q 425 551 433 551 q 420 575 420 555 q 424 601 420 594 q 566 591 495 591 q 730 601 659 591 q 735 577 734 595 q 730 551 735 558 q 618 507 660 551 q 462 334 564 451 q 555 216 494 292 q 654 90 615 140 q 701 56 672 66 q 745 45 730 45 q 752 19 752 36 q 747 -5 751 1 q 558 4 700 1 q 386 -5 465 4 q 381 19 381 0 q 386 45 381 39 q 428 52 405 45 q 451 75 451 60 q 437 94 451 77 l 341 212 q 308 177 332 201 q 266 134 284 153 q 239 102 248 115 q 229 81 229 88 q 241 62 229 70 q 273 50 254 54 q 304 46 292 47 q 325 45 317 45 q 330 21 330 40 q 326 -5 330 1 q 184 4 255 4 q 12 -5 83 4 q 7 19 7 0 q 12 45 7 37 q 68 57 34 45 q 125 91 103 70 q 223 191 164 128 q 296 270 281 254 q 239 348 272 303 q 179 429 206 392 q 119 507 151 466 q 71 540 101 530 q 25 551 41 551 q 19 577 18 559 q 24 601 19 594 q 211 591 71 595 z "},"y":{"ha":724,"x_min":-5,"x_max":729,"o":"m 183 591 q 354 601 275 591 q 359 576 359 595 q 354 551 359 557 q 305 540 336 551 q 274 514 274 529 q 277 494 274 500 l 416 227 q 524 464 479 363 q 538 514 538 494 q 526 534 538 526 q 494 545 513 542 q 463 550 475 549 q 442 551 450 551 q 437 575 437 555 q 441 601 437 594 q 583 591 512 591 q 724 601 653 591 q 729 577 728 595 q 724 551 729 558 q 692 548 711 551 q 648 535 673 546 q 614 506 623 524 q 391 34 476 212 q 363 -24 383 18 q 335 -83 344 -66 q 309 -129 327 -100 q 271 -182 292 -157 q 99 -296 180 -296 q 33 -274 58 -296 q 8 -224 8 -253 q 39 -160 8 -182 q 175 -140 127 -160 q 263 -54 224 -119 q 311 42 283 -20 l 85 499 q 45 538 74 526 q 0 551 16 551 q -5 577 -5 559 q 0 601 -5 594 q 183 591 82 591 z "},"z":{"ha":624,"x_min":39,"x_max":589,"o":"m 203 581 l 391 581 q 566 591 477 581 q 570 559 570 585 l 240 62 l 395 62 q 489 107 450 62 q 537 199 527 151 q 555 209 539 209 q 570 205 562 209 q 583 199 578 202 q 589 195 587 197 q 567 123 581 172 q 544 37 553 73 l 534 0 l 53 0 q 39 23 39 11 q 45 46 39 35 l 349 517 q 208 518 251 518 q 171 509 188 518 q 143 487 154 499 q 123 455 133 475 q 108 423 113 435 q 98 391 104 410 q 66 381 95 381 q 50 387 50 381 q 75 589 68 486 q 203 581 155 581 z "},"{":{"ha":552,"x_min":180,"x_max":393,"o":"m 180 213 q 180 248 180 213 q 277 407 295 314 q 231 547 270 442 q 197 740 195 642 q 314 1015 200 925 q 363 1019 346 1040 q 358 970 382 995 q 274 774 269 877 q 321 662 276 739 q 369 408 393 544 q 253 231 347 285 q 369 53 347 176 q 321 -201 393 -83 q 274 -313 276 -277 q 358 -509 269 -416 q 363 -558 382 -534 q 314 -554 346 -579 q 197 -279 200 -464 q 231 -86 195 -180 q 277 54 270 19 q 180 213 295 147 z "},"|":{"ha":274,"x_min":100,"x_max":173,"o":"m 173 -513 q 113 -533 173 -521 q 108 -534 109 -534 q 100 -529 101 -534 q 101 -526 100 -528 q 101 -523 101 -524 l 101 979 q 102 987 101 979 q 108 990 105 989 q 161 997 131 997 q 172 989 172 996 l 173 -513 z "},"}":{"ha":552,"x_min":155,"x_max":369,"o":"m 369 213 q 272 54 254 147 q 318 -86 279 19 q 352 -279 354 -180 q 235 -554 349 -464 q 186 -558 203 -579 q 191 -509 166 -534 q 275 -313 279 -416 q 227 -201 273 -277 q 180 53 155 -83 q 296 231 201 176 q 180 408 201 285 q 227 662 155 544 q 275 774 273 739 q 191 970 279 877 q 186 1019 166 995 q 235 1015 203 1040 q 352 740 349 925 q 318 547 354 642 q 272 407 279 442 q 369 248 254 314 l 369 213 z "},"~":{"ha":746,"x_min":65,"x_max":689,"o":"m 354 370 q 331 380 351 372 q 303 391 311 388 q 278 399 296 393 q 249 408 260 406 q 222 413 238 410 q 191 415 206 415 q 123 394 156 415 q 75 351 91 373 q 65 362 67 354 q 119 450 65 404 q 232 496 174 496 q 296 488 261 496 q 347 473 330 479 q 400 450 364 466 q 417 443 403 450 q 437 435 432 437 q 455 428 441 433 q 476 420 469 422 q 496 415 484 418 q 518 410 509 411 q 540 407 528 408 q 563 406 552 406 q 631 427 598 406 q 680 469 663 448 q 689 458 687 467 q 635 370 689 416 q 522 324 581 324 q 490 327 507 324 q 461 332 473 329 q 431 340 450 334 q 405 350 413 347 q 378 361 397 353 q 354 370 358 369 z "},"":{"ha":335,"x_min":66,"x_max":270,"o":"m 66 500 q 96 571 66 541 q 167 601 125 601 q 240 570 210 601 q 270 496 270 540 q 240 427 270 456 q 168 397 210 397 q 96 428 126 397 q 66 500 66 459 m 163 -285 q 104 -260 129 -285 q 79 -193 79 -235 q 100 13 79 -165 q 136 286 121 191 q 163 321 144 315 q 178 315 168 321 q 194 298 189 308 q 230 34 208 216 q 252 -194 252 -147 q 227 -260 252 -235 q 163 -285 201 -285 z "},"":{"ha":654,"x_min":60,"x_max":594,"o":"m 578 518 q 556 460 578 486 q 499 434 534 434 q 479 437 489 434 q 460 449 470 441 q 446 463 451 457 q 431 480 440 468 q 418 495 421 492 q 326 537 380 537 q 275 507 297 537 q 241 435 252 477 q 231 350 231 393 q 249 232 231 282 q 296 154 267 181 q 358 114 326 127 q 426 102 391 102 q 578 170 516 102 q 589 160 585 168 q 594 145 594 152 q 590 119 594 125 q 559 82 579 102 q 507 40 538 62 q 433 3 476 18 q 345 -12 390 -12 q 203 21 268 -12 q 99 120 139 54 q 60 271 60 185 q 89 393 60 332 q 166 502 118 454 q 280 578 214 549 q 414 608 345 608 q 500 600 464 608 q 551 583 536 592 q 578 518 578 553 m 381 652 q 429 642 429 652 l 316 -52 q 288 -48 304 -52 q 269 -39 271 -45 l 381 652 z "},"":{"ha":648,"x_min":58,"x_max":602,"o":"m 429 863 q 481 855 461 863 q 526 833 501 848 q 534 814 530 829 q 538 789 538 800 q 519 731 538 753 q 471 709 500 709 q 431 718 446 709 q 402 745 416 727 q 385 765 391 758 q 367 780 378 772 q 344 787 355 787 q 311 775 324 787 q 290 740 297 763 q 280 688 283 716 q 277 623 277 661 q 304 494 277 570 q 312 473 309 484 l 520 473 q 527 453 530 465 q 518 430 524 441 q 507 416 511 420 l 328 416 q 332 384 332 397 q 300 256 332 316 q 235 165 269 197 q 323 186 272 186 q 400 157 347 186 q 490 127 453 127 q 523 134 509 127 q 548 153 537 140 q 562 172 558 166 q 573 191 566 178 q 584 190 577 193 q 595 182 591 187 q 602 156 602 174 q 581 111 595 136 q 545 57 567 86 q 489 8 522 28 q 418 -11 456 -11 q 358 2 388 -11 q 307 29 328 14 q 254 57 286 44 q 189 69 222 69 q 160 59 177 69 q 133 40 144 50 q 105 12 122 30 q 85 -8 88 -5 q 70 2 77 -8 q 63 22 63 12 q 68 45 63 33 q 82 70 73 58 q 98 92 91 83 q 117 113 106 100 q 131 127 128 125 q 166 206 155 154 q 177 315 177 258 q 159 416 177 349 l 64 416 q 71 448 58 422 q 92 473 83 473 l 144 473 q 135 521 135 511 q 163 652 135 587 q 234 762 191 716 q 330 835 277 807 q 429 863 382 863 z "},"":{"ha":764,"x_min":99,"x_max":669,"o":"m 391 217 q 470 269 440 217 q 500 399 500 321 q 463 555 500 492 q 372 618 425 618 q 290 565 321 618 q 258 433 258 511 q 297 279 258 341 q 391 217 336 217 m 533 617 l 613 692 q 630 689 618 697 q 653 664 642 680 q 669 632 664 648 l 587 556 q 627 416 627 490 q 582 270 627 336 l 655 191 q 652 174 661 186 q 627 152 644 163 q 595 136 611 140 l 525 210 q 381 163 460 163 q 227 217 294 163 l 155 149 q 138 152 149 144 q 115 177 126 161 q 99 209 104 193 l 172 278 q 132 416 132 342 q 183 574 132 505 l 113 650 q 116 667 107 655 q 140 689 124 678 q 172 705 157 701 l 243 631 q 381 673 304 673 q 533 617 467 673 z "},"":{"ha":939,"x_min":38,"x_max":905,"o":"m 355 311 l 220 311 q 227 342 214 317 q 248 368 239 368 l 353 368 q 350 380 353 373 q 294 489 338 408 q 214 636 251 570 l 177 703 q 135 777 155 745 q 94 809 122 799 q 43 822 65 820 q 38 848 38 829 q 43 872 39 866 q 237 863 136 863 q 428 872 335 863 q 432 848 432 866 q 428 822 433 829 q 420 822 427 822 q 410 821 414 821 q 399 820 407 821 q 386 817 391 819 q 374 814 381 816 q 362 810 367 812 q 354 804 358 807 q 347 795 349 800 q 345 785 345 791 q 355 764 345 780 l 517 464 q 575 553 522 459 q 688 758 629 647 q 695 789 695 772 q 595 822 695 814 q 590 848 590 829 q 595 872 591 866 q 748 863 707 863 q 832 867 783 863 q 900 872 882 871 q 904 848 904 866 q 900 822 905 829 l 891 821 q 879 820 883 821 q 866 819 876 820 q 850 816 857 818 q 836 812 844 814 q 821 806 827 810 q 809 798 815 803 q 800 788 803 793 q 673 586 769 743 q 552 377 576 429 q 549 368 550 372 l 676 368 q 683 347 686 359 q 674 325 680 335 q 663 311 667 314 l 545 311 l 545 259 l 676 259 q 683 239 686 251 q 674 216 680 227 q 663 202 667 205 l 545 202 l 545 197 q 555 69 543 99 q 642 45 562 51 q 647 19 647 37 q 642 -5 646 1 q 448 4 549 4 q 257 -5 350 4 q 253 19 253 1 q 257 45 252 37 q 344 69 337 51 q 347 79 346 74 q 350 90 349 83 q 351 101 351 96 q 353 115 352 106 q 354 128 353 123 q 354 144 354 133 q 354 160 354 155 q 355 178 355 165 q 355 197 355 192 l 355 202 l 220 202 q 227 234 214 208 q 248 259 239 259 l 355 259 l 355 311 z "},"":{"ha":285,"x_min":100,"x_max":173,"o":"m 173 332 q 144 319 172 326 q 108 312 115 312 q 103 313 104 312 q 101 315 101 314 q 101 319 100 316 q 101 323 101 322 l 101 979 q 108 990 100 987 q 162 997 131 997 q 170 995 168 997 q 173 991 173 993 l 173 989 l 173 332 m 101 -522 l 101 127 q 108 138 100 136 q 162 145 131 145 q 170 143 168 145 q 173 139 173 141 l 173 137 l 173 -513 q 144 -526 172 -519 q 108 -533 115 -533 q 103 -532 104 -533 q 101 -530 101 -531 q 101 -526 100 -529 q 101 -522 101 -523 z "},"":{"ha":633,"x_min":49,"x_max":585,"o":"m 198 -125 q 386 -54 308 -125 q 395 -45 391 -50 q 395 -46 395 -46 q 447 0 416 -32 q 509 74 477 33 q 563 164 541 115 q 585 250 585 212 q 579 300 585 276 q 568 343 574 325 q 547 384 562 361 q 523 419 532 407 q 491 455 515 431 q 459 487 468 478 q 422 521 450 495 q 248 745 248 680 q 281 799 248 780 q 351 818 314 818 q 404 800 385 818 q 460 773 435 773 q 513 827 513 773 q 503 868 513 849 q 435 886 462 886 q 248 815 326 886 q 239 806 243 810 q 239 807 239 807 q 187 761 218 793 q 124 687 156 728 q 71 597 93 646 q 49 511 49 549 q 54 460 49 485 q 65 418 59 436 q 86 377 71 399 q 110 342 102 354 q 142 306 119 330 q 174 274 165 283 q 212 240 183 266 q 385 16 385 81 q 352 -38 385 -19 q 282 -57 319 -57 q 233 -42 248 -57 q 175 -12 203 -12 q 134 -29 147 -12 q 121 -71 121 -45 q 130 -106 121 -90 q 198 -125 168 -125 m 463 87 q 464 102 464 95 q 455 147 464 124 q 436 187 447 170 q 405 227 426 204 q 371 262 384 250 q 332 297 358 274 q 298 327 307 319 q 254 369 271 353 q 214 414 237 386 q 177 465 191 441 q 155 520 164 489 q 145 585 145 552 q 156 650 145 626 q 170 673 161 661 q 170 659 170 666 q 178 614 170 637 q 197 574 186 591 q 229 534 208 557 q 262 499 250 511 q 301 464 275 487 q 335 434 327 441 q 380 392 363 408 q 420 347 397 375 q 456 296 443 319 q 479 240 469 272 q 488 176 488 209 q 476 110 488 136 q 463 87 471 100 z "},"":{"ha":552,"x_min":52,"x_max":496,"o":"m 335 763 q 349 777 335 763 q 401 791 363 791 q 468 763 440 791 q 496 697 496 736 q 468 630 496 659 q 401 602 440 602 q 335 630 363 602 q 308 697 308 659 q 335 763 308 736 m 80 763 q 94 777 80 763 q 146 791 108 791 q 213 763 185 791 q 240 697 240 736 q 213 630 240 659 q 146 602 185 602 q 80 630 108 602 q 52 697 52 659 q 80 763 52 736 z "},"":{"ha":886,"x_min":72,"x_max":814,"o":"m 598 342 q 589 296 598 334 q 575 256 581 258 q 548 246 567 254 q 516 234 529 239 q 484 225 503 229 q 446 221 465 221 q 304 273 359 221 q 250 414 250 326 q 310 559 250 502 q 452 617 370 617 q 488 614 468 617 q 536 604 509 610 q 570 595 563 597 q 575 573 570 593 q 584 533 580 553 q 589 511 589 514 q 581 506 589 509 q 568 503 574 503 q 560 505 562 503 q 552 526 557 515 q 536 551 547 537 q 504 573 525 565 q 456 582 484 582 q 393 557 418 582 q 357 497 368 532 q 347 420 347 463 q 377 303 347 351 q 463 255 407 255 q 533 278 508 255 q 572 347 557 300 q 598 342 593 347 m 223 639 q 178 594 223 639 q 133 420 133 549 q 223 202 133 292 q 442 111 314 111 q 661 202 570 111 q 751 420 751 292 q 661 639 751 549 q 442 730 570 730 q 223 639 314 730 m 180 160 q 126 214 180 160 q 72 422 72 269 q 180 684 72 575 q 442 792 289 792 q 629 743 543 792 q 764 608 714 693 q 814 422 814 522 q 764 236 814 321 q 629 101 714 151 q 442 52 543 52 q 180 160 289 52 z "},"":{"ha":525,"x_min":58,"x_max":486,"o":"m 252 401 q 279 409 266 401 q 292 422 292 417 l 292 541 q 225 514 239 522 q 191 457 191 494 q 211 416 192 430 q 252 401 230 401 m 273 755 q 377 715 334 755 q 420 613 420 674 l 420 444 q 428 418 420 427 q 445 410 435 410 q 458 412 451 410 q 470 418 465 415 q 476 422 475 422 q 482 414 479 421 q 486 403 486 407 q 480 387 486 395 q 432 355 463 372 q 374 338 401 338 q 328 350 351 338 q 298 380 306 363 q 248 353 285 370 q 189 336 211 336 q 96 371 134 336 q 58 448 58 406 q 74 494 58 473 q 110 524 90 516 q 292 590 247 574 l 292 604 l 292 628 q 276 689 292 663 q 235 715 260 715 q 198 697 209 715 q 178 642 186 679 q 122 602 168 602 q 86 614 101 602 q 71 646 71 627 q 84 685 71 665 q 159 729 101 702 q 273 755 216 755 z "},"":{"ha":576,"x_min":47,"x_max":538,"o":"m 271 463 q 156 234 156 370 q 271 -2 156 97 q 279 -50 295 -22 q 231 -62 264 -79 q 96 60 144 -18 q 48 231 47 140 q 97 402 48 323 q 231 524 146 482 q 280 512 264 540 q 271 463 296 484 m 514 463 q 399 234 399 370 q 514 -2 399 97 q 522 -50 538 -22 q 473 -62 507 -79 q 338 60 387 -18 q 291 231 290 140 q 340 402 291 323 q 473 524 389 482 q 523 512 507 540 q 514 463 538 484 z "},"":{"ha":799,"x_min":62,"x_max":705,"o":"m 705 570 l 705 229 q 691 225 705 229 q 659 220 678 222 q 625 217 639 217 q 615 219 619 217 q 609 224 610 221 l 608 227 l 608 491 l 71 491 q 62 505 62 491 q 83 570 69 570 l 705 570 z "},"":{"ha":507,"x_min":77,"x_max":431,"o":"m 77 277 q 81 327 77 307 q 87 355 84 348 q 94 362 91 362 l 95 362 l 422 378 l 423 378 q 431 366 431 378 q 427 314 431 336 q 418 284 422 292 l 414 277 l 87 262 q 84 262 85 262 q 80 266 83 262 q 77 277 77 269 z "},"":{"ha":886,"x_min":72,"x_max":814,"o":"m 441 680 q 530 653 494 680 q 566 579 566 626 q 537 524 566 549 q 483 491 508 498 q 522 443 500 467 q 555 404 543 418 l 567 391 q 604 358 585 370 q 631 343 623 346 q 644 340 640 340 q 645 335 645 339 q 645 328 646 332 q 644 321 644 324 l 644 317 q 583 315 612 315 q 533 327 553 315 q 494 363 513 338 l 412 473 q 403 481 407 481 l 395 481 l 395 400 q 399 350 395 361 q 414 342 401 345 q 434 339 427 339 q 436 328 436 336 q 434 317 436 319 q 355 321 401 321 q 275 317 308 321 q 273 328 273 319 q 275 339 273 336 q 296 342 283 339 q 311 350 309 345 q 315 400 315 361 l 315 598 q 311 648 315 637 q 275 656 307 656 q 273 668 273 659 q 275 680 273 677 q 357 678 300 678 q 395 679 367 678 q 441 680 423 680 m 481 575 q 466 631 481 609 q 425 654 451 654 q 397 648 400 654 q 395 614 395 642 l 395 507 l 416 507 q 463 526 444 507 q 481 575 481 545 m 223 708 q 178 663 223 708 q 133 490 133 618 q 223 271 133 361 q 442 180 314 180 q 661 271 570 180 q 751 490 751 361 q 661 708 751 618 q 442 799 570 799 q 223 708 314 799 m 180 229 q 126 283 180 229 q 72 491 72 338 q 180 753 72 644 q 442 861 289 861 q 629 812 543 861 q 764 677 714 762 q 814 491 814 591 q 764 305 814 391 q 629 170 714 220 q 442 121 543 121 q 180 229 289 121 z "},"":{"ha":636,"x_min":762,"x_max":1077,"o":"m 762 754 q 763 764 762 758 q 765 783 764 771 q 770 802 766 794 q 779 810 773 810 l 1070 810 q 1077 800 1077 810 q 1069 751 1077 781 q 1065 746 1067 748 q 1061 743 1062 743 l 1059 742 l 770 742 q 768 742 770 742 q 765 745 767 742 q 762 754 762 748 z "},"":{"ha":393,"x_min":46,"x_max":347,"o":"m 135 791 q 122 778 135 791 q 110 728 110 765 q 135 665 110 692 q 197 639 160 639 q 259 665 233 639 q 285 728 285 692 q 259 791 285 765 q 197 817 233 817 q 135 791 160 817 m 46 728 q 90 834 46 790 q 197 878 134 878 q 303 834 259 878 q 347 728 347 790 q 303 621 347 666 q 197 576 258 576 q 91 621 135 576 q 46 728 46 666 z "},"":{"ha":789,"x_min":68,"x_max":720,"o":"m 83 91 l 708 91 q 717 85 713 91 q 720 72 720 79 q 700 12 720 38 l 76 12 q 68 34 68 12 q 72 61 68 42 q 83 91 76 81 m 83 494 l 353 494 l 353 764 q 381 775 362 771 q 410 779 400 779 q 431 766 431 779 l 431 494 l 708 494 q 717 488 713 494 q 720 475 720 481 q 700 415 720 441 l 431 415 l 431 146 q 368 132 409 132 q 357 135 361 132 q 353 142 353 138 l 353 415 l 76 415 q 68 437 68 415 q 72 464 68 445 q 83 494 76 484 z "},"":{"ha":477,"x_min":52,"x_max":420,"o":"m 420 518 q 394 425 414 492 q 369 345 374 359 l 61 345 q 52 363 56 349 q 213 555 144 465 q 262 636 248 600 q 277 712 277 673 q 251 775 277 751 q 190 799 226 799 q 151 789 170 799 q 122 769 132 779 q 103 745 113 758 l 94 732 q 86 733 90 732 q 77 739 81 734 q 72 751 72 744 q 93 784 79 766 q 130 822 107 802 q 183 857 152 843 q 248 871 215 871 q 363 834 321 871 q 406 730 406 798 q 375 636 406 680 q 296 547 345 592 q 167 441 227 484 l 319 441 q 337 445 328 441 q 351 453 346 449 q 363 467 357 457 q 372 482 370 477 q 380 500 374 487 q 387 515 386 513 q 401 522 389 522 q 420 518 414 522 z "},"":{"ha":458,"x_min":49,"x_max":412,"o":"m 243 871 q 331 842 288 871 q 373 757 373 812 q 362 706 373 728 q 334 672 351 684 q 302 655 317 661 q 274 647 288 650 q 299 642 283 646 q 334 628 314 638 q 372 603 355 617 q 400 564 389 588 q 412 511 412 540 q 390 433 412 468 q 333 376 368 397 q 256 343 297 355 q 174 332 215 332 q 105 341 136 332 q 61 361 75 349 q 49 397 49 379 q 61 430 49 414 q 92 445 73 445 q 146 403 119 445 q 173 378 156 387 q 208 369 191 369 q 269 397 247 369 q 290 480 290 425 q 262 565 290 528 q 193 601 233 601 q 149 597 163 601 q 141 617 141 609 q 144 633 141 628 q 181 642 162 636 q 219 658 199 647 q 252 687 239 669 q 264 730 264 706 q 242 786 264 764 q 183 808 220 808 q 142 798 163 808 q 111 779 121 787 q 96 764 101 770 q 82 771 90 765 q 77 787 75 778 q 150 845 102 820 q 243 871 197 871 z "},"":{"ha":320,"x_min":38,"x_max":273,"o":"m 210 932 q 257 918 241 932 q 273 892 273 905 q 222 823 273 869 q 120 743 172 777 q 61 708 69 708 q 46 717 54 708 q 38 732 38 726 q 59 769 38 736 q 110 848 79 803 q 164 920 141 893 q 210 932 176 932 z "},"":{"ha":693,"x_min":199,"x_max":836,"o":"m 312 298 q 322 252 315 275 q 342 206 330 229 q 374 169 354 183 q 418 155 393 155 q 525 198 477 155 q 572 294 572 241 q 563 446 563 370 q 560 572 563 469 q 601 605 581 605 q 663 584 614 605 q 712 551 712 562 q 708 513 712 536 q 701 474 705 490 q 688 426 696 458 q 677 382 680 395 q 661 323 671 361 q 644 264 650 286 q 651 199 644 225 q 670 161 658 172 q 693 145 682 149 q 715 141 703 141 q 749 148 733 141 q 777 169 764 155 q 794 191 789 183 q 808 213 800 199 q 822 199 814 213 q 833 175 830 184 q 830 148 836 164 q 720 -5 779 -5 q 664 20 689 -5 q 624 83 639 45 q 604 165 610 120 q 541 39 582 88 q 446 -11 500 -11 q 353 54 398 -11 q 300 186 309 119 q 303 122 300 181 q 309 2 306 64 q 321 -140 313 -60 q 339 -275 329 -220 q 316 -297 333 -286 q 282 -308 298 -308 q 232 -279 264 -308 q 199 -237 199 -251 q 211 -1 199 -204 q 233 293 222 202 q 222 405 233 309 q 212 515 212 500 q 216 575 212 559 q 250 605 227 605 q 310 584 263 605 q 357 551 357 562 q 338 418 357 507 q 322 346 332 387 q 312 298 313 305 z "},"":{"ha":718,"x_min":45,"x_max":659,"o":"m 481 458 q 481 811 481 458 q 442 818 475 818 q 404 810 412 818 q 404 452 404 810 q 447 454 416 452 q 481 458 478 456 m 480 396 q 458 394 475 395 q 428 392 442 393 q 404 391 414 391 l 404 160 q 411 71 404 90 q 442 64 413 64 q 472 69 469 64 q 480 152 480 87 l 480 396 m 548 406 l 548 159 q 555 81 548 100 q 598 56 561 65 q 654 46 635 46 q 659 20 659 37 q 656 -5 659 3 q 445 4 486 4 q 370 2 408 4 q 290 -2 332 1 q 233 -5 248 -5 q 230 13 230 0 q 231 35 229 25 q 233 45 232 45 q 287 55 253 45 q 328 80 321 64 q 336 157 336 98 l 336 389 q 124 453 203 389 q 45 636 45 517 q 62 734 45 690 q 105 805 79 778 q 168 851 132 833 q 238 877 203 869 q 308 884 273 884 q 381 882 348 884 q 454 879 414 879 q 536 881 495 879 q 597 884 576 883 l 617 886 q 622 860 622 880 q 616 836 621 839 q 578 828 599 836 q 553 808 558 820 q 549 722 549 794 l 549 467 q 569 470 552 466 q 601 479 586 475 l 616 484 q 621 471 621 484 q 608 441 620 460 q 590 419 597 422 q 548 406 565 408 z "},"":{"ha":327,"x_min":64,"x_max":263,"o":"m 64 359 q 93 429 64 400 q 164 458 123 458 q 234 429 205 458 q 263 359 263 400 q 235 287 263 318 q 167 256 207 256 q 94 287 125 256 q 64 359 64 318 z "},"":{"ha":616,"x_min":212,"x_max":414,"o":"m 316 -34 q 346 -31 338 -31 q 393 -51 373 -31 q 414 -98 414 -71 q 378 -179 414 -147 q 282 -212 342 -212 q 243 -205 262 -212 q 217 -190 225 -198 q 212 -163 212 -182 q 216 -153 212 -153 q 281 -174 256 -174 q 327 -162 313 -174 q 340 -133 340 -150 q 332 -102 340 -115 q 305 -88 324 -88 q 270 -98 294 -88 q 259 -90 267 -98 q 252 -77 252 -83 q 290 -3 277 -37 l 334 -3 q 316 -34 323 -22 z "},"":{"ha":395,"x_min":53,"x_max":352,"o":"m 155 693 q 148 739 155 721 q 129 757 141 757 q 68 735 115 757 q 58 745 63 736 q 53 762 53 754 q 54 772 53 770 q 149 814 96 789 q 234 854 202 839 q 266 869 265 869 l 267 869 q 279 858 271 869 q 289 842 288 846 q 273 727 273 783 l 273 469 q 286 395 273 408 q 316 382 293 387 q 350 377 340 377 q 352 360 352 377 q 350 342 351 343 q 214 347 220 347 q 76 342 206 347 q 73 361 73 345 q 76 377 73 377 q 111 383 87 377 q 141 396 135 389 q 150 429 146 401 q 155 471 155 457 l 155 693 z "},"":{"ha":551,"x_min":47,"x_max":503,"o":"m 263 709 q 232 703 245 709 q 211 685 219 697 q 197 660 203 673 q 190 628 192 646 q 186 594 187 609 q 186 560 186 579 q 195 479 186 517 q 229 411 205 440 q 286 382 252 382 q 329 396 312 382 q 353 433 345 409 q 362 478 360 456 q 365 529 365 500 q 355 611 365 572 q 321 680 345 650 q 263 709 297 709 m 274 750 q 438 693 374 750 q 503 549 503 635 q 437 402 503 463 q 275 340 371 340 q 112 398 176 340 q 47 543 47 456 q 113 689 47 629 q 274 750 179 750 z "},"":{"ha":576,"x_min":38,"x_max":529,"o":"m 305 -2 q 421 235 421 98 q 305 463 420 371 q 296 511 281 483 q 346 524 311 540 q 480 402 431 481 q 529 231 529 322 q 480 60 528 139 q 346 -62 431 -19 q 297 -51 313 -79 q 305 -2 281 -23 m 62 -2 q 178 235 178 98 q 62 463 178 371 q 53 512 38 483 q 103 524 68 541 q 237 402 188 481 q 286 231 286 322 q 237 60 286 139 q 103 -62 189 -19 q 54 -51 71 -79 q 62 -2 38 -23 z "},"":{"ha":1000,"x_min":43,"x_max":961,"o":"m 873 524 q 890 515 879 524 q 901 498 901 507 l 901 187 l 935 187 q 948 125 961 163 l 901 125 l 901 3 q 837 -4 873 -4 q 783 7 783 -4 l 783 125 l 575 125 q 564 134 569 127 q 559 148 559 140 q 856 513 583 176 q 873 524 865 524 m 783 187 l 783 355 q 708 265 766 335 q 644 187 651 195 l 644 187 l 644 187 l 644 187 l 644 187 l 644 187 l 644 187 l 644 187 l 644 187 l 645 187 l 645 187 l 645 187 l 646 187 l 646 187 l 646 187 l 646 187 l 647 187 l 647 187 l 648 187 l 648 187 l 648 187 l 649 187 l 650 187 l 650 187 l 651 187 l 652 187 l 652 187 l 653 187 l 654 187 l 654 187 l 655 187 l 656 187 l 656 187 l 657 187 l 658 187 l 659 187 l 659 187 l 660 187 l 661 187 l 661 187 l 662 187 l 663 187 l 663 187 l 664 187 l 665 187 l 665 187 l 666 187 l 667 187 l 667 187 l 668 187 l 669 187 l 669 187 l 670 187 l 671 187 l 671 187 l 672 187 l 673 187 l 673 187 l 674 187 l 675 187 l 675 187 l 676 187 l 677 187 l 677 187 l 678 187 l 679 187 l 680 187 l 680 187 l 681 187 l 682 187 l 682 187 l 683 187 l 684 187 l 684 187 l 685 187 l 686 187 l 686 187 l 687 187 l 688 187 l 688 187 l 689 187 l 690 187 l 690 187 l 691 187 l 692 187 l 692 187 l 693 187 l 694 187 l 694 187 l 695 187 l 696 187 l 696 187 l 697 187 l 699 187 l 699 187 l 700 187 l 701 187 l 701 187 l 702 187 l 703 187 l 703 187 l 704 187 l 705 187 l 705 187 l 706 187 l 707 187 l 707 187 l 708 187 l 709 187 l 710 187 l 711 187 l 711 187 l 712 187 l 713 187 l 713 187 l 714 187 l 715 187 l 715 187 l 716 187 l 718 187 l 718 187 l 719 187 l 720 187 l 720 187 l 721 187 l 722 187 l 722 187 l 723 187 l 724 187 l 725 187 l 726 187 l 726 187 l 727 187 l 728 187 l 728 187 l 729 187 l 730 187 l 731 187 l 732 187 l 732 187 l 733 187 l 734 187 l 734 187 l 735 187 l 736 187 l 737 187 l 738 187 l 739 187 l 739 187 l 740 187 l 741 187 l 742 187 l 743 187 l 743 187 l 744 187 l 745 187 l 745 187 l 746 187 l 747 187 l 748 187 l 749 187 l 749 187 l 750 187 l 751 187 l 751 187 l 752 187 l 753 187 l 754 187 l 755 187 l 755 187 l 756 187 l 757 187 l 758 187 l 759 187 l 760 187 l 760 187 l 761 187 l 762 187 l 762 187 l 763 187 l 764 187 l 764 187 l 766 187 l 766 187 l 767 187 l 768 187 l 768 187 l 769 187 l 770 187 l 770 187 l 771 187 l 772 187 l 772 187 l 774 187 l 774 187 l 775 187 l 776 187 l 777 187 l 783 187 m 263 727 l 263 469 q 277 395 263 408 q 307 382 283 387 q 340 377 330 377 q 342 360 342 377 q 340 342 342 343 q 205 347 210 347 q 66 342 197 347 q 64 361 64 345 q 66 377 64 377 q 101 383 77 377 q 132 396 125 389 q 141 429 136 401 q 145 471 145 457 l 145 693 q 138 739 145 721 q 119 757 132 757 q 58 735 106 757 q 48 753 54 736 q 45 772 43 770 q 140 814 87 789 q 225 854 193 839 q 258 869 257 869 q 279 842 278 846 q 263 727 263 783 m 297 -46 q 282 -45 288 -48 q 275 -38 277 -42 l 274 -34 l 742 899 q 791 928 755 920 q 807 927 800 930 q 815 918 814 924 l 347 -15 q 329 -32 344 -22 q 297 -46 313 -42 z "},"":{"ha":1015,"x_min":45,"x_max":969,"o":"m 797 524 q 912 487 870 524 q 954 382 954 451 q 924 289 954 333 q 844 199 894 245 q 715 94 775 137 l 867 94 q 886 98 877 94 q 900 106 895 102 q 912 120 905 110 q 921 135 918 130 q 929 153 923 140 q 935 168 935 166 q 950 175 937 175 q 969 171 963 175 q 943 78 963 144 q 918 -3 923 12 l 610 -3 q 600 16 605 2 q 762 208 692 118 q 811 289 796 252 q 825 365 825 326 q 800 428 825 404 q 739 452 774 452 q 699 442 718 452 q 671 421 680 432 q 652 398 661 411 l 642 385 q 634 386 639 385 q 625 392 630 387 q 621 404 621 397 q 642 436 627 418 q 678 475 656 454 q 732 510 701 496 q 797 524 764 524 m 265 727 l 265 469 q 279 395 265 408 q 309 382 286 387 q 342 377 332 377 q 344 360 345 377 q 342 342 344 343 q 207 347 212 347 q 68 342 199 347 q 65 361 65 345 q 68 377 65 377 q 103 383 79 377 q 134 396 127 389 q 143 429 138 401 q 147 471 147 457 l 147 693 q 140 739 147 721 q 121 757 134 757 q 60 735 108 757 q 50 750 56 736 q 47 772 45 764 q 142 814 89 789 q 227 854 195 839 q 260 869 259 869 q 281 842 279 850 q 265 727 265 783 m 787 918 l 319 -15 q 301 -32 316 -22 q 269 -46 286 -42 q 255 -45 260 -48 q 248 -38 249 -42 l 246 -34 l 714 899 q 763 928 728 920 q 779 927 772 930 q 787 918 786 924 z "},"":{"ha":1004,"x_min":46,"x_max":965,"o":"m 878 524 q 894 515 883 524 q 905 498 905 507 l 905 187 l 939 187 q 952 125 965 163 l 905 125 l 905 3 q 841 -4 878 -4 q 787 7 787 -4 l 787 125 l 579 125 q 568 134 573 127 q 563 148 563 140 q 860 513 587 176 q 878 524 869 524 m 787 187 l 787 355 q 712 265 770 335 q 648 187 655 195 l 648 187 l 648 187 l 648 187 l 648 187 l 648 187 l 648 187 l 648 187 l 648 187 l 649 187 l 649 187 l 649 187 l 650 187 l 650 187 l 650 187 l 650 187 l 651 187 l 651 187 l 652 187 l 652 187 l 652 187 l 653 187 l 654 187 l 654 187 l 655 187 l 656 187 l 656 187 l 657 187 l 658 187 l 659 187 l 659 187 l 660 187 l 661 187 l 661 187 l 662 187 l 663 187 l 663 187 l 664 187 l 665 187 l 665 187 l 666 187 l 667 187 l 667 187 l 668 187 l 669 187 l 669 187 l 670 187 l 671 187 l 671 187 l 672 187 l 673 187 l 673 187 l 674 187 l 675 187 l 675 187 l 676 187 l 677 187 l 677 187 l 678 187 l 679 187 l 680 187 l 680 187 l 681 187 l 682 187 l 682 187 l 683 187 l 684 187 l 684 187 l 685 187 l 686 187 l 686 187 l 687 187 l 688 187 l 688 187 l 689 187 l 690 187 l 690 187 l 691 187 l 692 187 l 692 187 l 693 187 l 694 187 l 694 187 l 695 187 l 696 187 l 696 187 l 697 187 l 698 187 l 699 187 l 699 187 l 700 187 l 701 187 l 701 187 l 703 187 l 703 187 l 704 187 l 705 187 l 705 187 l 706 187 l 707 187 l 707 187 l 708 187 l 709 187 l 709 187 l 710 187 l 711 187 l 711 187 l 712 187 l 713 187 l 714 187 l 715 187 l 715 187 l 716 187 l 717 187 l 718 187 l 718 187 l 719 187 l 720 187 l 720 187 l 722 187 l 722 187 l 723 187 l 724 187 l 724 187 l 725 187 l 726 187 l 726 187 l 727 187 l 728 187 l 729 187 l 730 187 l 730 187 l 731 187 l 732 187 l 732 187 l 733 187 l 734 187 l 735 187 l 736 187 l 736 187 l 737 187 l 738 187 l 739 187 l 739 187 l 741 187 l 741 187 l 742 187 l 743 187 l 743 187 l 744 187 l 745 187 l 746 187 l 747 187 l 747 187 l 748 187 l 749 187 l 749 187 l 750 187 l 751 187 l 752 187 l 753 187 l 753 187 l 754 187 l 755 187 l 755 187 l 756 187 l 758 187 l 758 187 l 759 187 l 760 187 l 760 187 l 761 187 l 762 187 l 763 187 l 764 187 l 764 187 l 765 187 l 766 187 l 766 187 l 767 187 l 768 187 l 768 187 l 770 187 l 770 187 l 771 187 l 772 187 l 772 187 l 773 187 l 774 187 l 774 187 l 775 187 l 776 187 l 777 187 l 778 187 l 779 187 l 779 187 l 780 187 l 781 187 l 787 187 m 240 871 q 328 842 286 871 q 370 757 370 812 q 359 706 370 728 q 331 672 349 684 q 300 655 314 661 q 271 647 286 650 q 296 642 281 646 q 332 628 311 638 q 369 603 352 617 q 398 564 386 588 q 410 511 410 540 q 388 433 410 468 q 330 376 366 397 q 253 343 294 355 q 171 332 212 332 q 102 341 133 332 q 58 361 72 349 q 46 397 46 379 q 58 430 46 414 q 90 445 70 445 q 144 403 117 445 q 171 378 153 387 q 205 369 188 369 q 266 397 244 369 q 288 480 288 425 q 259 565 288 528 q 190 601 231 601 q 146 597 160 601 q 138 617 138 609 q 141 633 138 628 q 178 642 159 636 q 217 658 197 647 q 249 687 237 669 q 262 730 262 706 q 239 786 262 764 q 180 808 217 808 q 139 798 160 808 q 109 779 119 787 q 94 764 98 770 q 80 771 87 765 q 75 787 73 778 q 147 845 100 820 q 240 871 194 871 m 833 918 l 365 -15 q 346 -32 361 -22 q 315 -46 331 -42 q 300 -45 306 -48 q 293 -38 294 -42 l 292 -34 l 760 899 q 808 928 773 920 q 824 927 817 930 q 833 918 831 924 z "},"":{"ha":526,"x_min":43,"x_max":465,"o":"m 448 498 q 418 427 448 456 q 350 399 389 399 q 278 428 307 399 q 248 498 248 456 q 276 571 248 540 q 345 602 304 602 q 416 572 384 602 q 448 498 448 542 m 384 305 q 402 245 393 284 q 411 170 411 206 q 402 118 411 142 q 374 74 393 94 q 341 43 356 55 q 302 15 326 31 q 159 -134 159 -80 q 178 -179 159 -159 q 232 -199 198 -199 q 268 -186 248 -199 q 303 -157 288 -173 q 341 -129 319 -142 q 381 -115 362 -115 q 442 -142 418 -115 q 465 -205 465 -170 q 459 -241 465 -222 q 445 -267 452 -261 q 323 -290 404 -290 q 270 -284 301 -290 q 198 -260 239 -277 q 124 -217 158 -243 q 67 -149 90 -192 q 43 -52 43 -105 q 48 -10 43 -30 q 59 25 53 10 q 79 56 66 40 q 101 81 92 72 q 129 104 111 91 q 157 123 148 118 q 187 142 165 129 q 214 159 208 155 q 243 176 222 163 q 276 196 264 189 q 302 216 288 203 q 326 240 317 229 q 330 250 328 244 q 332 262 332 255 q 333 275 332 269 q 333 288 333 280 q 332 297 332 295 q 341 313 334 304 q 353 321 348 321 q 384 305 368 321 z "},"":{"ha":916,"x_min":-19,"x_max":925,"o":"m 519 1015 q 513 998 519 1008 q 500 987 507 987 q 430 1011 489 987 q 314 1070 372 1035 q 256 1127 256 1105 q 282 1165 256 1152 q 332 1179 308 1179 q 357 1173 346 1179 q 460 1081 401 1139 q 519 1015 519 1022 m 127 182 l 416 846 q 440 880 423 861 q 467 898 456 898 q 484 895 475 898 q 495 888 493 892 l 773 201 q 794 148 783 178 q 811 103 806 117 q 836 71 819 84 q 870 53 852 58 q 899 46 888 48 q 918 45 910 45 q 924 17 923 36 q 921 -5 925 -1 q 842 0 909 -5 q 739 5 774 5 q 673 3 711 5 q 591 -2 635 1 q 534 -5 547 -5 q 529 22 529 0 q 534 45 529 45 q 577 51 554 45 q 614 69 601 58 q 627 92 627 79 q 606 149 627 98 q 566 250 586 201 l 545 298 q 536 304 540 304 q 406 305 510 305 q 264 304 312 305 q 255 297 258 304 q 206 183 221 221 q 176 91 176 109 q 191 69 176 79 q 225 54 205 59 q 259 47 244 50 q 281 45 275 45 q 286 18 286 37 q 282 -5 286 -1 q 136 5 187 5 q -12 -5 83 5 q -18 15 -16 -1 q -15 43 -19 32 q 35 58 0 43 q 80 87 71 72 q 127 182 103 125 m 400 646 l 285 380 q 288 374 285 374 q 400 370 328 370 q 509 373 467 370 q 511 374 510 373 q 513 378 513 377 l 513 380 l 400 646 z "},"":{"ha":916,"x_min":-19,"x_max":925,"o":"m 392 1015 q 451 1081 392 1022 q 555 1173 511 1139 q 579 1179 566 1179 q 629 1165 604 1179 q 655 1127 655 1152 q 597 1070 655 1105 q 481 1011 540 1035 q 411 987 422 987 q 398 998 404 987 q 392 1015 392 1008 m 127 182 l 416 846 q 440 880 423 861 q 467 898 456 898 q 484 895 475 898 q 495 888 493 892 l 773 201 q 794 148 783 178 q 811 103 806 117 q 836 71 819 84 q 870 53 852 58 q 899 46 888 48 q 918 45 910 45 q 924 17 923 36 q 921 -5 925 -1 q 842 0 909 -5 q 739 5 774 5 q 673 3 711 5 q 591 -2 635 1 q 534 -5 547 -5 q 529 22 529 0 q 534 45 529 45 q 577 51 554 45 q 614 69 601 58 q 627 92 627 79 q 606 149 627 98 q 566 250 586 201 l 545 298 q 536 304 540 304 q 406 305 510 305 q 264 304 312 305 q 255 297 258 304 q 206 183 221 221 q 176 91 176 109 q 191 69 176 79 q 225 54 205 59 q 259 47 244 50 q 281 45 275 45 q 286 18 286 37 q 282 -5 286 -1 q 136 5 187 5 q -12 -5 83 5 q -18 15 -16 -1 q -15 43 -19 32 q 35 58 0 43 q 80 87 71 72 q 127 182 103 125 m 400 646 l 285 380 q 288 374 285 374 q 400 370 328 370 q 509 373 467 370 q 511 374 510 373 q 513 378 513 377 l 513 380 l 400 646 z "},"":{"ha":916,"x_min":-19,"x_max":925,"o":"m 635 990 q 562 1023 621 994 q 472 1072 502 1053 q 384 1023 442 1052 q 309 990 326 994 q 296 1013 296 997 q 393 1101 311 1024 q 454 1166 421 1126 q 472 1180 466 1180 q 490 1166 476 1180 q 547 1107 522 1131 q 648 1013 623 1033 q 635 990 648 995 m 127 182 l 416 846 q 440 880 423 861 q 467 898 456 898 q 484 895 475 898 q 495 888 493 892 l 773 201 q 794 148 783 178 q 811 103 806 117 q 836 71 819 84 q 870 53 852 58 q 899 46 888 48 q 918 45 910 45 q 924 17 923 36 q 921 -5 925 -1 q 842 0 909 -5 q 739 5 774 5 q 673 3 711 5 q 591 -2 635 1 q 534 -5 547 -5 q 529 22 529 0 q 534 45 529 45 q 577 51 554 45 q 614 69 601 58 q 627 92 627 79 q 606 149 627 98 q 566 250 586 201 l 545 298 q 536 304 540 304 q 406 305 510 305 q 264 304 312 305 q 255 297 258 304 q 206 183 221 221 q 176 91 176 109 q 191 69 176 79 q 225 54 205 59 q 259 47 244 50 q 281 45 275 45 q 286 18 286 37 q 282 -5 286 -1 q 136 5 187 5 q -12 -5 83 5 q -18 15 -16 -1 q -15 43 -19 32 q 35 58 0 43 q 80 87 71 72 q 127 182 103 125 m 400 646 l 285 380 q 288 374 285 374 q 400 370 328 370 q 509 373 467 370 q 511 374 510 373 q 513 378 513 377 l 513 380 l 400 646 z "},"":{"ha":916,"x_min":-19,"x_max":925,"o":"m 373 1158 q 420 1152 397 1158 q 457 1139 443 1145 q 495 1119 471 1132 q 608 1076 574 1076 q 655 1086 633 1076 q 689 1108 677 1096 q 712 1132 701 1120 q 726 1145 722 1143 q 733 1138 730 1145 q 736 1126 736 1132 q 711 1061 736 1095 q 585 994 657 994 q 538 1001 561 994 q 500 1014 515 1007 q 463 1034 486 1021 q 446 1043 459 1036 q 429 1052 433 1050 q 414 1060 425 1055 q 397 1068 403 1065 q 382 1073 391 1070 q 365 1077 373 1076 q 350 1078 357 1078 q 303 1068 325 1078 q 269 1046 281 1058 q 246 1021 256 1034 q 232 1008 235 1009 q 224 1015 227 1008 q 221 1028 221 1022 q 247 1093 221 1059 q 373 1158 299 1158 m 127 182 l 416 846 q 440 880 423 861 q 467 898 456 898 q 484 895 475 898 q 495 888 493 892 l 773 201 q 794 148 783 178 q 811 103 806 117 q 836 71 819 84 q 870 53 852 58 q 899 46 888 48 q 918 45 910 45 q 924 17 923 36 q 921 -5 925 -1 q 842 0 909 -5 q 739 5 774 5 q 673 3 711 5 q 591 -2 635 1 q 534 -5 547 -5 q 529 22 529 0 q 534 45 529 45 q 577 51 554 45 q 614 69 601 58 q 627 92 627 79 q 606 149 627 98 q 566 250 586 201 l 545 298 q 536 304 540 304 q 406 305 510 305 q 264 304 312 305 q 255 297 258 304 q 206 183 221 221 q 176 91 176 109 q 191 69 176 79 q 225 54 205 59 q 259 47 244 50 q 281 45 275 45 q 286 18 286 37 q 282 -5 286 -1 q 136 5 187 5 q -12 -5 83 5 q -18 15 -16 -1 q -15 43 -19 32 q 35 58 0 43 q 80 87 71 72 q 127 182 103 125 m 400 646 l 285 380 q 288 374 285 374 q 400 370 328 370 q 509 373 467 370 q 511 374 510 373 q 513 378 513 377 l 513 380 l 400 646 z "},"":{"ha":916,"x_min":-19,"x_max":925,"o":"m 537 1016 q 523 1029 537 1016 q 510 1081 510 1042 q 537 1146 510 1120 q 602 1172 564 1172 q 668 1146 641 1172 q 694 1081 694 1120 q 668 1016 694 1042 q 602 989 641 989 q 537 1016 564 989 m 258 1016 q 245 1029 258 1016 q 232 1081 232 1042 q 258 1146 232 1120 q 323 1172 284 1172 q 388 1146 361 1172 q 415 1081 415 1120 q 388 1016 415 1042 q 323 989 361 989 q 258 1016 284 989 m 127 182 l 416 846 q 440 880 423 861 q 467 898 456 898 q 484 895 475 898 q 495 888 493 892 l 773 201 q 794 148 783 178 q 811 103 806 117 q 836 71 819 84 q 870 53 852 58 q 899 46 888 48 q 918 45 910 45 q 924 17 923 36 q 921 -5 925 -1 q 842 0 909 -5 q 739 5 774 5 q 673 3 711 5 q 591 -2 635 1 q 534 -5 547 -5 q 529 22 529 0 q 534 45 529 45 q 577 51 554 45 q 614 69 601 58 q 627 92 627 79 q 606 149 627 98 q 566 250 586 201 l 545 298 q 536 304 540 304 q 406 305 510 305 q 264 304 312 305 q 255 297 258 304 q 206 183 221 221 q 176 91 176 109 q 191 69 176 79 q 225 54 205 59 q 259 47 244 50 q 281 45 275 45 q 286 18 286 37 q 282 -5 286 -1 q 136 5 187 5 q -12 -5 83 5 q -18 15 -16 -1 q -15 43 -19 32 q 35 58 0 43 q 80 87 71 72 q 127 182 103 125 m 400 646 l 285 380 q 288 374 285 374 q 400 370 328 370 q 509 373 467 370 q 511 374 510 373 q 513 378 513 377 l 513 380 l 400 646 z "},"":{"ha":916,"x_min":-19,"x_max":925,"o":"m 422 1081 q 412 1071 422 1081 q 401 1029 401 1060 q 422 978 401 999 q 473 956 443 956 q 525 978 504 956 q 545 1029 545 999 q 525 1081 545 1060 q 473 1103 504 1103 q 422 1081 443 1103 m 379 935 q 359 955 379 935 q 339 1029 339 975 q 379 1123 339 1084 q 473 1162 418 1162 q 567 1123 528 1162 q 606 1029 606 1084 q 567 935 606 975 q 473 895 528 895 q 379 935 418 895 m 127 182 l 416 846 q 440 880 423 861 q 467 898 456 898 q 484 895 475 898 q 495 888 493 892 l 773 201 q 794 148 783 178 q 811 103 806 117 q 836 71 819 84 q 870 53 852 58 q 899 46 888 48 q 918 45 910 45 q 924 17 923 36 q 921 -5 925 -1 q 842 0 909 -5 q 739 5 774 5 q 673 3 711 5 q 591 -2 635 1 q 534 -5 547 -5 q 529 22 529 0 q 534 45 529 45 q 577 51 554 45 q 614 69 601 58 q 627 92 627 79 q 606 149 627 98 q 566 250 586 201 l 545 298 q 536 304 540 304 q 406 305 510 305 q 264 304 312 305 q 255 297 258 304 q 206 183 221 221 q 176 91 176 109 q 191 69 176 79 q 225 54 205 59 q 259 47 244 50 q 281 45 275 45 q 286 18 286 37 q 282 -5 286 -1 q 136 5 187 5 q -12 -5 83 5 q -18 15 -16 -1 q -15 43 -19 32 q 35 58 0 43 q 80 87 71 72 q 127 182 103 125 m 400 646 l 285 380 q 288 374 285 374 q 400 370 328 370 q 509 373 467 370 q 511 374 510 373 q 513 378 513 377 l 513 380 l 400 646 z "},"":{"ha":1222,"x_min":-31,"x_max":1192,"o":"m 555 373 l 555 705 l 350 380 q 351 374 349 374 q 454 370 392 370 q 555 373 518 370 m 651 891 q 875 896 684 891 q 1092 901 1067 900 q 1103 836 1096 870 q 1119 760 1109 802 q 1131 700 1128 718 q 1100 693 1124 693 q 1078 704 1082 693 q 1055 758 1066 736 q 1026 800 1043 779 q 985 831 1008 821 q 932 841 962 841 l 819 841 q 751 825 759 841 q 745 742 745 808 l 745 499 q 762 489 745 493 q 803 484 780 484 l 875 484 q 956 502 935 484 q 994 579 978 519 q 1010 590 996 590 q 1036 583 1029 590 l 1036 323 q 1012 317 1031 317 q 993 328 995 317 q 945 411 975 397 q 842 420 922 420 q 745 401 745 420 l 745 191 q 755 84 745 111 q 787 64 761 71 q 844 57 814 57 l 933 57 q 1059 102 1015 57 q 1133 231 1099 141 q 1152 239 1135 239 q 1176 236 1162 239 q 1192 231 1190 233 q 1176 186 1190 222 q 1157 132 1163 149 q 1142 86 1152 115 q 1127 36 1133 57 q 1119 -3 1122 14 q 658 -3 840 -3 q 457 -4 476 -3 q 453 20 453 2 q 457 46 452 39 q 544 69 537 52 q 555 197 555 96 l 555 305 l 448 305 q 315 304 362 305 q 304 297 307 304 q 229 179 251 217 q 183 90 186 106 q 192 68 181 77 q 220 54 203 58 q 251 47 237 50 q 270 45 264 45 q 275 18 275 38 q 271 -5 275 -1 q 121 5 179 5 q -27 -5 71 5 q -31 15 -31 -1 q -26 43 -31 31 q 29 58 -10 43 q 80 87 68 72 q 146 182 114 128 l 545 819 q 544 823 545 822 q 537 830 542 827 q 525 836 532 833 q 511 839 518 838 q 495 842 505 841 q 480 843 486 843 q 467 844 475 844 q 457 845 458 845 q 453 871 452 852 q 457 895 453 889 q 651 891 518 891 z "},"":{"ha":914,"x_min":56,"x_max":875,"o":"m 538 -35 q 571 -33 563 -33 q 623 -54 601 -33 q 644 -103 644 -75 q 606 -190 644 -155 q 503 -225 568 -225 q 433 -202 456 -225 q 427 -174 427 -194 q 431 -163 427 -163 q 500 -184 475 -184 q 550 -172 534 -184 q 566 -141 566 -159 q 528 -94 566 -94 q 490 -103 515 -94 q 478 -95 486 -103 q 471 -81 471 -87 q 511 -1 497 -39 l 557 -1 q 538 -35 545 -22 m 525 905 q 807 879 680 905 q 830 781 807 878 q 853 674 853 684 q 842 661 853 668 q 818 654 830 654 q 799 659 804 654 q 785 699 794 679 q 756 747 777 720 q 708 796 735 775 q 636 831 681 817 q 537 846 591 846 q 415 816 468 846 q 333 732 363 785 q 288 615 302 680 q 273 477 273 551 q 290 321 273 395 q 341 185 307 247 q 433 87 375 123 q 564 50 490 50 q 732 109 669 50 q 782 173 758 132 q 815 239 805 214 q 827 277 825 265 q 875 260 857 277 q 853 151 875 241 q 819 54 832 60 q 729 22 760 33 q 639 1 697 12 q 522 -9 581 -9 q 289 48 396 -9 q 119 208 182 105 q 56 437 56 311 q 93 620 56 533 q 193 769 130 707 q 343 868 256 831 q 525 905 430 905 z "},"":{"ha":817,"x_min":47,"x_max":787,"o":"m 507 1015 q 500 998 507 1008 q 488 987 494 987 q 417 1011 476 987 q 301 1070 359 1035 q 243 1127 243 1105 q 269 1165 243 1152 q 319 1179 295 1179 q 344 1173 333 1179 q 447 1081 388 1139 q 507 1015 507 1022 m 246 891 q 470 896 279 891 q 687 901 662 900 q 698 836 691 870 q 714 760 705 802 q 726 700 723 718 q 695 693 720 693 q 673 704 677 693 q 650 758 661 736 q 621 800 638 779 q 580 831 604 821 q 527 841 557 841 l 414 841 q 347 825 354 841 q 340 742 340 808 l 340 499 q 358 489 340 493 q 398 484 376 484 l 470 484 q 551 502 530 484 q 589 579 573 519 q 606 590 591 590 q 631 583 625 590 l 631 323 q 607 317 626 317 q 588 328 590 317 q 541 411 570 397 q 437 420 517 420 q 340 401 340 420 l 340 191 q 351 84 340 111 q 382 64 356 71 q 439 57 409 57 l 528 57 q 654 102 610 57 q 728 231 694 141 q 747 239 730 239 q 771 236 758 239 q 787 231 785 233 q 771 186 785 222 q 752 132 758 149 q 737 86 747 115 q 722 36 728 57 q 714 -3 717 14 q 52 -4 105 -3 q 48 20 48 2 q 52 46 47 39 q 139 69 132 52 q 150 197 150 96 l 150 696 q 139 823 150 796 q 52 845 133 839 q 48 871 47 852 q 52 895 48 889 q 246 891 113 891 z "},"":{"ha":817,"x_min":47,"x_max":787,"o":"m 311 1015 q 371 1081 311 1022 q 474 1173 430 1139 q 498 1179 485 1179 q 549 1165 523 1179 q 574 1127 574 1152 q 517 1070 574 1105 q 400 1011 459 1035 q 330 987 342 987 q 317 998 323 987 q 311 1015 311 1008 m 246 891 q 470 896 279 891 q 687 901 662 900 q 698 836 691 870 q 714 760 705 802 q 726 700 723 718 q 695 693 720 693 q 673 704 677 693 q 650 758 661 736 q 621 800 638 779 q 580 831 604 821 q 527 841 557 841 l 414 841 q 347 825 354 841 q 340 742 340 808 l 340 499 q 358 489 340 493 q 398 484 376 484 l 470 484 q 551 502 530 484 q 589 579 573 519 q 606 590 591 590 q 631 583 625 590 l 631 323 q 607 317 626 317 q 588 328 590 317 q 541 411 570 397 q 437 420 517 420 q 340 401 340 420 l 340 191 q 351 84 340 111 q 382 64 356 71 q 439 57 409 57 l 528 57 q 654 102 610 57 q 728 231 694 141 q 747 239 730 239 q 771 236 758 239 q 787 231 785 233 q 771 186 785 222 q 752 132 758 149 q 737 86 747 115 q 722 36 728 57 q 714 -3 717 14 q 52 -4 105 -3 q 48 20 48 2 q 52 46 47 39 q 139 69 132 52 q 150 197 150 96 l 150 696 q 139 823 150 796 q 52 845 133 839 q 48 871 47 852 q 52 895 48 889 q 246 891 113 891 z "},"":{"ha":817,"x_min":47,"x_max":787,"o":"m 568 990 q 494 1023 554 994 q 405 1072 435 1053 q 317 1023 375 1052 q 242 990 258 994 q 229 1013 229 997 q 326 1101 243 1024 q 387 1166 354 1126 q 405 1180 399 1180 q 422 1166 409 1180 q 479 1107 455 1131 q 581 1013 555 1033 q 568 990 581 995 m 246 891 q 470 896 279 891 q 687 901 662 900 q 698 836 691 870 q 714 760 705 802 q 726 700 723 718 q 695 693 720 693 q 673 704 677 693 q 650 758 661 736 q 621 800 638 779 q 580 831 604 821 q 527 841 557 841 l 414 841 q 347 825 354 841 q 340 742 340 808 l 340 499 q 358 489 340 493 q 398 484 376 484 l 470 484 q 551 502 530 484 q 589 579 573 519 q 606 590 591 590 q 631 583 625 590 l 631 323 q 607 317 626 317 q 588 328 590 317 q 541 411 570 397 q 437 420 517 420 q 340 401 340 420 l 340 191 q 351 84 340 111 q 382 64 356 71 q 439 57 409 57 l 528 57 q 654 102 610 57 q 728 231 694 141 q 747 239 730 239 q 771 236 758 239 q 787 231 785 233 q 771 186 785 222 q 752 132 758 149 q 737 86 747 115 q 722 36 728 57 q 714 -3 717 14 q 52 -4 105 -3 q 48 20 48 2 q 52 46 47 39 q 139 69 132 52 q 150 197 150 96 l 150 696 q 139 823 150 796 q 52 845 133 839 q 48 871 47 852 q 52 895 48 889 q 246 891 113 891 z "},"":{"ha":817,"x_min":47,"x_max":787,"o":"m 470 1016 q 456 1029 470 1016 q 443 1081 443 1042 q 470 1146 443 1120 q 535 1172 496 1172 q 601 1146 574 1172 q 627 1081 627 1120 q 601 1016 627 1042 q 535 989 574 989 q 470 1016 496 989 m 191 1016 q 178 1029 191 1016 q 165 1081 165 1042 q 191 1146 165 1120 q 256 1172 217 1172 q 321 1146 294 1172 q 348 1081 348 1120 q 321 1016 348 1042 q 256 989 294 989 q 191 1016 217 989 m 246 891 q 470 896 279 891 q 687 901 662 900 q 698 836 691 870 q 714 760 705 802 q 726 700 723 718 q 695 693 720 693 q 673 704 677 693 q 650 758 661 736 q 621 800 638 779 q 580 831 604 821 q 527 841 557 841 l 414 841 q 347 825 354 841 q 340 742 340 808 l 340 499 q 358 489 340 493 q 398 484 376 484 l 470 484 q 551 502 530 484 q 589 579 573 519 q 606 590 591 590 q 631 583 625 590 l 631 323 q 607 317 626 317 q 588 328 590 317 q 541 411 570 397 q 437 420 517 420 q 340 401 340 420 l 340 191 q 351 84 340 111 q 382 64 356 71 q 439 57 409 57 l 528 57 q 654 102 610 57 q 728 231 694 141 q 747 239 730 239 q 771 236 758 239 q 787 231 785 233 q 771 186 785 222 q 752 132 758 149 q 737 86 747 115 q 722 36 728 57 q 714 -3 717 14 q 52 -4 105 -3 q 48 20 48 2 q 52 46 47 39 q 139 69 132 52 q 150 197 150 96 l 150 696 q 139 823 150 796 q 52 845 133 839 q 48 871 47 852 q 52 895 48 889 q 246 891 113 891 z "},"":{"ha":488,"x_min":47,"x_max":442,"o":"m 341 1015 q 335 998 341 1008 q 322 987 329 987 q 252 1011 311 987 q 136 1070 193 1035 q 78 1127 78 1105 q 104 1165 78 1152 q 154 1179 130 1179 q 178 1173 168 1179 q 282 1081 222 1139 q 341 1015 341 1022 m 246 888 q 437 898 345 888 q 442 873 441 892 q 437 848 442 855 q 351 823 357 842 q 340 696 340 796 l 340 197 q 351 69 340 96 q 437 45 357 51 q 442 19 442 37 q 437 -5 441 1 q 243 4 345 4 q 52 -5 145 4 q 48 19 48 1 q 52 45 47 37 q 139 69 132 51 q 150 197 150 96 l 150 696 q 139 823 150 796 q 52 848 132 842 q 48 873 47 855 q 52 898 48 892 q 246 888 145 888 z "},"":{"ha":488,"x_min":47,"x_max":442,"o":"m 149 1015 q 208 1081 149 1022 q 311 1173 267 1139 q 336 1179 322 1179 q 386 1165 360 1179 q 412 1127 412 1152 q 354 1070 412 1105 q 238 1011 296 1035 q 168 987 179 987 q 155 998 161 987 q 149 1015 149 1008 m 246 888 q 437 898 345 888 q 442 873 441 892 q 437 848 442 855 q 351 823 357 842 q 340 696 340 796 l 340 197 q 351 69 340 96 q 437 45 357 51 q 442 19 442 37 q 437 -5 441 1 q 243 4 345 4 q 52 -5 145 4 q 48 19 48 1 q 52 45 47 37 q 139 69 132 51 q 150 197 150 96 l 150 696 q 139 823 150 796 q 52 848 132 842 q 48 873 47 855 q 52 898 48 892 q 246 888 145 888 z "},"":{"ha":488,"x_min":47,"x_max":442,"o":"m 410 990 q 337 1023 397 994 q 248 1072 277 1053 q 159 1023 218 1052 q 85 990 101 994 q 71 1013 71 997 q 169 1101 86 1024 q 230 1166 197 1126 q 248 1180 241 1180 q 265 1166 252 1180 q 322 1107 298 1131 q 424 1013 398 1033 q 410 990 424 995 m 246 888 q 437 898 345 888 q 442 873 441 892 q 437 848 442 855 q 351 823 357 842 q 340 696 340 796 l 340 197 q 351 69 340 96 q 437 45 357 51 q 442 19 442 37 q 437 -5 441 1 q 243 4 345 4 q 52 -5 145 4 q 48 19 48 1 q 52 45 47 37 q 139 69 132 51 q 150 197 150 96 l 150 696 q 139 823 150 796 q 52 848 132 842 q 48 873 47 855 q 52 898 48 892 q 246 888 145 888 z "},"":{"ha":488,"x_min":12,"x_max":475,"o":"m 317 1016 q 304 1029 317 1016 q 290 1081 290 1042 q 317 1146 290 1120 q 382 1172 344 1172 q 448 1146 421 1172 q 475 1081 475 1120 q 448 1016 475 1042 q 382 989 421 989 q 317 1016 344 989 m 38 1016 q 25 1029 38 1016 q 12 1081 12 1042 q 38 1146 12 1120 q 103 1172 64 1172 q 169 1146 142 1172 q 195 1081 195 1120 q 169 1016 195 1042 q 103 989 142 989 q 38 1016 64 989 m 247 888 q 438 898 345 888 q 443 873 442 892 q 438 848 443 855 q 351 823 358 842 q 340 696 340 796 l 340 197 q 351 69 340 96 q 438 45 358 51 q 443 19 443 37 q 438 -5 442 1 q 244 4 345 4 q 53 -5 146 4 q 48 19 49 1 q 53 45 48 37 q 140 69 133 51 q 151 197 151 96 l 151 696 q 140 823 151 796 q 53 848 133 842 q 48 873 48 855 q 53 898 49 892 q 247 888 146 888 z "},"":{"ha":1038,"x_min":39,"x_max":980,"o":"m 345 742 l 345 191 q 356 84 345 111 q 388 62 362 71 q 441 53 414 53 q 686 148 607 53 q 764 441 764 242 q 670 738 764 634 q 420 841 576 841 q 352 825 359 841 q 345 742 345 808 m 459 895 q 733 844 616 895 q 915 692 850 792 q 980 456 980 593 q 953 286 980 363 q 878 156 926 210 q 763 66 829 103 q 617 13 696 30 q 450 -4 539 -4 l 58 -4 q 53 20 54 2 q 58 46 53 39 q 144 69 138 52 q 155 197 155 96 l 155 696 q 144 823 155 796 q 58 845 138 839 q 53 871 53 852 q 58 895 54 889 q 252 891 119 891 q 358 893 284 891 q 459 895 433 895 m 519 418 l 45 418 q 41 429 42 418 q 41 453 39 439 q 46 472 42 467 l 519 472 q 524 450 524 472 q 519 418 524 427 z "},"":{"ha":1031,"x_min":39,"x_max":1004,"o":"m 422 1158 q 469 1152 446 1158 q 507 1139 492 1145 q 545 1119 521 1132 q 657 1076 623 1076 q 704 1086 682 1076 q 739 1108 726 1096 q 761 1132 751 1120 q 775 1145 772 1143 q 783 1138 780 1145 q 786 1126 786 1132 q 760 1061 786 1095 q 634 994 707 994 q 587 1001 610 994 q 550 1014 564 1007 q 512 1034 536 1021 q 496 1043 509 1036 q 478 1052 483 1050 q 463 1060 474 1055 q 446 1068 452 1065 q 431 1073 440 1070 q 415 1077 422 1076 q 399 1078 407 1078 q 352 1068 374 1078 q 318 1046 330 1058 q 295 1021 306 1034 q 281 1008 285 1009 q 274 1015 277 1008 q 271 1028 271 1022 q 296 1093 271 1059 q 422 1158 349 1158 m 204 888 q 352 898 276 888 q 421 791 370 861 q 523 659 473 722 q 659 493 574 597 q 787 336 745 390 q 790 392 790 346 l 790 646 q 786 748 790 691 q 775 819 782 805 q 730 842 768 835 q 665 849 691 849 q 663 859 664 849 q 662 881 661 869 q 665 899 662 894 q 743 893 690 898 q 831 888 796 888 q 926 893 865 888 q 1002 899 986 899 q 1004 874 1004 891 q 999 848 1004 857 q 966 846 986 848 q 919 837 947 845 q 886 817 891 829 q 877 746 882 803 q 873 650 873 689 l 873 189 q 878 -1 873 140 q 844 -7 873 -7 q 802 24 826 -7 l 250 704 l 250 213 q 255 137 250 178 q 265 81 260 96 q 314 56 271 65 q 376 46 356 46 q 382 20 382 37 q 379 -5 382 3 q 303 0 363 -5 q 208 5 243 5 q 120 1 174 5 q 43 -5 67 -4 q 39 13 39 0 q 40 35 39 25 q 43 45 41 45 q 104 55 64 45 q 151 80 144 64 q 163 136 158 95 q 168 217 168 177 l 168 697 q 143 819 168 783 q 103 839 135 831 q 54 848 71 848 q 47 870 48 848 q 51 898 46 892 q 92 895 63 897 q 149 890 121 892 q 204 888 176 888 z "},"":{"ha":1031,"x_min":54,"x_max":977,"o":"m 582 1015 q 576 998 582 1008 q 563 987 570 987 q 493 1011 551 987 q 376 1070 434 1035 q 319 1127 319 1105 q 345 1165 319 1152 q 395 1179 370 1179 q 419 1173 408 1179 q 523 1081 463 1139 q 582 1015 582 1022 m 483 846 q 400 825 437 846 q 339 769 363 804 q 300 688 315 734 q 278 592 284 641 q 271 492 271 544 q 278 387 271 439 q 297 284 284 335 q 332 191 310 233 q 383 115 354 148 q 454 63 412 82 q 544 45 495 45 q 628 66 591 45 q 690 121 666 87 q 730 202 714 155 q 753 296 746 248 q 760 396 760 345 q 750 523 760 460 q 720 644 741 585 q 668 748 699 703 q 589 819 637 792 q 483 846 541 846 m 343 868 q 385 886 343 868 q 515 905 427 905 q 688 868 604 905 q 836 770 772 831 q 938 624 899 709 q 977 445 977 538 q 938 267 977 352 q 836 120 899 181 q 688 23 772 59 q 515 -14 604 -14 q 343 23 427 -14 q 195 120 258 59 q 93 267 132 181 q 54 445 54 352 q 93 624 54 538 q 195 770 132 709 q 343 868 258 831 z "},"":{"ha":1031,"x_min":54,"x_max":977,"o":"m 433 1015 q 492 1081 433 1022 q 595 1173 551 1139 q 620 1179 606 1179 q 670 1165 644 1179 q 696 1127 696 1152 q 638 1070 696 1105 q 522 1011 581 1035 q 452 987 463 987 q 439 998 445 987 q 433 1015 433 1008 m 483 846 q 400 825 437 846 q 339 769 363 804 q 300 688 315 734 q 278 592 284 641 q 271 492 271 544 q 278 387 271 439 q 297 284 284 335 q 332 191 310 233 q 383 115 354 148 q 454 63 412 82 q 544 45 495 45 q 628 66 591 45 q 690 121 666 87 q 730 202 714 155 q 753 296 746 248 q 760 396 760 345 q 750 523 760 460 q 720 644 741 585 q 668 748 699 703 q 589 819 637 792 q 483 846 541 846 m 343 868 q 385 886 343 868 q 515 905 427 905 q 688 868 604 905 q 836 770 772 831 q 938 624 899 709 q 977 445 977 538 q 938 267 977 352 q 836 120 899 181 q 688 23 772 59 q 515 -14 604 -14 q 343 23 427 -14 q 195 120 258 59 q 93 267 132 181 q 54 445 54 352 q 93 624 54 538 q 195 770 132 709 q 343 868 258 831 z "},"":{"ha":1031,"x_min":54,"x_max":977,"o":"m 681 990 q 608 1023 667 994 q 518 1072 548 1053 q 430 1023 488 1052 q 355 990 372 994 q 342 1013 342 997 q 439 1101 357 1024 q 500 1166 467 1126 q 518 1180 512 1180 q 536 1166 522 1180 q 593 1107 568 1131 q 694 1013 669 1033 q 681 990 694 995 m 483 846 q 400 825 437 846 q 339 769 363 804 q 300 688 315 734 q 278 592 284 641 q 271 492 271 544 q 278 387 271 439 q 297 284 284 335 q 332 191 310 233 q 383 115 354 148 q 454 63 412 82 q 544 45 495 45 q 628 66 591 45 q 690 121 666 87 q 730 202 714 155 q 753 296 746 248 q 760 396 760 345 q 750 523 760 460 q 720 644 741 585 q 668 748 699 703 q 589 819 637 792 q 483 846 541 846 m 343 868 q 385 886 343 868 q 515 905 427 905 q 688 868 604 905 q 836 770 772 831 q 938 624 899 709 q 977 445 977 538 q 938 267 977 352 q 836 120 899 181 q 688 23 772 59 q 515 -14 604 -14 q 343 23 427 -14 q 195 120 258 59 q 93 267 132 181 q 54 445 54 352 q 93 624 54 538 q 195 770 132 709 q 343 868 258 831 z "},"":{"ha":1031,"x_min":54,"x_max":977,"o":"m 419 1158 q 466 1152 443 1158 q 503 1139 489 1145 q 541 1119 517 1132 q 654 1076 620 1076 q 701 1086 679 1076 q 735 1108 723 1096 q 758 1132 747 1120 q 772 1145 768 1143 q 780 1138 777 1145 q 783 1126 783 1132 q 757 1061 783 1095 q 631 994 703 994 q 584 1001 607 994 q 547 1014 561 1007 q 509 1034 532 1021 q 492 1043 505 1036 q 475 1052 479 1050 q 460 1060 471 1055 q 443 1068 449 1065 q 428 1073 437 1070 q 411 1077 419 1076 q 396 1078 404 1078 q 349 1068 371 1078 q 315 1046 327 1058 q 292 1021 302 1034 q 278 1008 281 1009 q 270 1015 273 1008 q 267 1028 267 1022 q 293 1093 267 1059 q 419 1158 345 1158 m 483 846 q 400 825 437 846 q 339 769 363 804 q 300 688 315 734 q 278 592 284 641 q 271 492 271 544 q 278 387 271 439 q 297 284 284 335 q 332 191 310 233 q 383 115 354 148 q 454 63 412 82 q 544 45 495 45 q 628 66 591 45 q 690 121 666 87 q 730 202 714 155 q 753 296 746 248 q 760 396 760 345 q 750 523 760 460 q 720 644 741 585 q 668 748 699 703 q 589 819 637 792 q 483 846 541 846 m 343 868 q 385 886 343 868 q 515 905 427 905 q 688 868 604 905 q 836 770 772 831 q 938 624 899 709 q 977 445 977 538 q 938 267 977 352 q 836 120 899 181 q 688 23 772 59 q 515 -14 604 -14 q 343 23 427 -14 q 195 120 258 59 q 93 267 132 181 q 54 445 54 352 q 93 624 54 538 q 195 770 132 709 q 343 868 258 831 z "},"":{"ha":1031,"x_min":54,"x_max":977,"o":"m 588 1016 q 575 1029 588 1016 q 562 1081 562 1042 q 588 1146 562 1120 q 654 1172 615 1172 q 719 1146 692 1172 q 746 1081 746 1120 q 719 1016 746 1042 q 654 989 692 989 q 588 1016 615 989 m 310 1016 q 297 1029 310 1016 q 283 1081 283 1042 q 310 1146 283 1120 q 374 1172 336 1172 q 440 1146 413 1172 q 467 1081 467 1120 q 440 1016 467 1042 q 374 989 413 989 q 310 1016 336 989 m 483 846 q 400 825 437 846 q 339 769 363 804 q 300 688 315 734 q 278 592 284 641 q 271 492 271 544 q 278 387 271 439 q 297 284 284 335 q 332 191 310 233 q 383 115 354 148 q 454 63 412 82 q 544 45 495 45 q 628 66 591 45 q 690 121 666 87 q 730 202 714 155 q 753 296 746 248 q 760 396 760 345 q 750 523 760 460 q 720 644 741 585 q 668 748 699 703 q 589 819 637 792 q 483 846 541 846 m 343 868 q 385 886 343 868 q 515 905 427 905 q 688 868 604 905 q 836 770 772 831 q 938 624 899 709 q 977 445 977 538 q 938 267 977 352 q 836 120 899 181 q 688 23 772 59 q 515 -14 604 -14 q 343 23 427 -14 q 195 120 258 59 q 93 267 132 181 q 54 445 54 352 q 93 624 54 538 q 195 770 132 709 q 343 868 258 831 z "},"":{"ha":631,"x_min":73,"x_max":557,"o":"m 266 336 l 73 529 q 87 564 73 543 q 111 585 102 585 q 121 582 118 585 q 320 389 317 392 l 514 582 q 522 585 517 585 q 544 561 531 585 q 557 525 557 536 q 370 339 374 343 l 557 145 q 545 108 557 129 q 522 87 533 87 q 513 90 515 87 l 316 286 l 117 87 q 109 84 114 84 q 86 109 100 84 q 73 145 73 134 q 266 336 260 331 z "},"":{"ha":1029,"x_min":54,"x_max":977,"o":"m 483 846 q 400 825 437 846 q 339 769 363 804 q 300 688 315 734 q 278 592 284 641 q 271 492 271 544 q 278 387 271 439 q 297 284 284 335 q 332 191 310 233 q 383 115 354 148 q 454 63 412 82 q 544 45 495 45 q 628 66 591 45 q 690 121 666 87 q 730 202 714 155 q 753 296 746 248 q 760 396 760 345 q 750 523 760 460 q 720 644 741 585 q 668 748 699 703 q 589 819 637 792 q 483 846 541 846 m 343 868 q 385 886 343 868 q 515 905 427 905 q 688 868 604 905 q 836 770 772 831 q 938 624 899 709 q 977 445 977 538 q 938 267 977 352 q 836 120 899 181 q 688 23 772 59 q 515 -14 604 -14 q 343 23 427 -14 q 195 120 258 59 q 93 267 132 181 q 54 445 54 352 q 93 624 54 538 q 195 770 132 709 q 343 868 258 831 m 734 917 q 739 916 734 917 q 745 913 743 914 q 753 910 748 911 q 761 906 758 909 q 768 903 764 905 q 776 899 773 901 q 781 895 779 898 q 785 892 784 894 q 785 888 787 890 l 274 -24 q 222 5 220 -4 l 734 917 z "},"":{"ha":990,"x_min":26,"x_max":990,"o":"m 621 1015 q 614 998 621 1008 q 602 987 608 987 q 531 1011 590 987 q 415 1070 473 1035 q 357 1127 357 1105 q 383 1165 357 1152 q 433 1179 409 1179 q 458 1173 447 1179 q 561 1081 502 1139 q 621 1015 621 1022 m 224 888 q 416 898 323 888 q 420 873 420 892 q 416 848 420 855 q 329 823 336 842 q 318 696 318 796 l 318 448 q 324 316 318 367 q 352 216 330 265 q 558 85 408 85 q 638 105 600 85 q 709 163 677 124 q 759 268 741 201 q 778 419 778 334 l 778 650 q 772 745 778 695 q 759 815 767 795 q 657 848 748 841 q 653 873 652 855 q 657 898 653 892 q 827 888 769 888 q 916 893 861 888 q 985 898 970 897 q 990 873 989 892 q 985 848 990 855 q 978 847 985 848 q 966 846 970 847 q 953 845 962 846 q 938 843 944 844 q 923 840 932 842 q 909 836 915 838 q 897 830 903 833 q 887 824 890 827 q 881 815 883 820 q 867 746 873 795 q 862 651 862 696 l 862 388 q 842 240 862 307 q 787 127 822 174 q 705 50 753 81 q 604 3 658 18 q 490 -12 550 -12 q 327 18 401 -12 q 204 107 252 48 q 128 408 128 203 l 128 696 q 117 823 128 796 q 31 848 111 842 q 26 873 26 855 q 31 898 26 892 q 224 888 123 888 z "},"":{"ha":990,"x_min":26,"x_max":990,"o":"m 422 1015 q 482 1081 422 1022 q 585 1173 541 1139 q 610 1179 596 1179 q 660 1165 634 1179 q 686 1127 686 1152 q 628 1070 686 1105 q 512 1011 570 1035 q 441 987 453 987 q 429 998 435 987 q 422 1015 422 1008 m 224 888 q 416 898 323 888 q 420 873 420 892 q 416 848 420 855 q 329 823 336 842 q 318 696 318 796 l 318 448 q 324 316 318 367 q 352 216 330 265 q 558 85 408 85 q 638 105 600 85 q 709 163 677 124 q 759 268 741 201 q 778 419 778 334 l 778 650 q 772 745 778 695 q 759 815 767 795 q 657 848 748 841 q 653 873 652 855 q 657 898 653 892 q 827 888 769 888 q 916 893 861 888 q 985 898 970 897 q 990 873 989 892 q 985 848 990 855 q 978 847 985 848 q 966 846 970 847 q 953 845 962 846 q 938 843 944 844 q 923 840 932 842 q 909 836 915 838 q 897 830 903 833 q 887 824 890 827 q 881 815 883 820 q 867 746 873 795 q 862 651 862 696 l 862 388 q 842 240 862 307 q 787 127 822 174 q 705 50 753 81 q 604 3 658 18 q 490 -12 550 -12 q 327 18 401 -12 q 204 107 252 48 q 128 408 128 203 l 128 696 q 117 823 128 796 q 31 848 111 842 q 26 873 26 855 q 31 898 26 892 q 224 888 123 888 z "},"":{"ha":990,"x_min":26,"x_max":990,"o":"m 698 990 q 625 1023 684 994 q 535 1072 565 1053 q 447 1023 505 1052 q 372 990 389 994 q 359 1013 359 997 q 456 1101 374 1024 q 517 1166 484 1126 q 535 1180 529 1180 q 553 1166 539 1180 q 610 1107 585 1131 q 711 1013 686 1033 q 698 990 711 995 m 224 888 q 416 898 323 888 q 420 873 420 892 q 416 848 420 855 q 329 823 336 842 q 318 696 318 796 l 318 448 q 324 316 318 367 q 352 216 330 265 q 558 85 408 85 q 638 105 600 85 q 709 163 677 124 q 759 268 741 201 q 778 419 778 334 l 778 650 q 772 745 778 695 q 759 815 767 795 q 657 848 748 841 q 653 873 652 855 q 657 898 653 892 q 827 888 769 888 q 916 893 861 888 q 985 898 970 897 q 990 873 989 892 q 985 848 990 855 q 978 847 985 848 q 966 846 970 847 q 953 845 962 846 q 938 843 944 844 q 923 840 932 842 q 909 836 915 838 q 897 830 903 833 q 887 824 890 827 q 881 815 883 820 q 867 746 873 795 q 862 651 862 696 l 862 388 q 842 240 862 307 q 787 127 822 174 q 705 50 753 81 q 604 3 658 18 q 490 -12 550 -12 q 327 18 401 -12 q 204 107 252 48 q 128 408 128 203 l 128 696 q 117 823 128 796 q 31 848 111 842 q 26 873 26 855 q 31 898 26 892 q 224 888 123 888 z "},"":{"ha":990,"x_min":26,"x_max":990,"o":"m 607 1016 q 593 1029 607 1016 q 580 1081 580 1042 q 607 1146 580 1120 q 672 1172 633 1172 q 738 1146 711 1172 q 764 1081 764 1120 q 738 1016 764 1042 q 672 989 711 989 q 607 1016 633 989 m 328 1016 q 315 1029 328 1016 q 302 1081 302 1042 q 328 1146 302 1120 q 393 1172 354 1172 q 458 1146 431 1172 q 485 1081 485 1120 q 458 1016 485 1042 q 393 989 431 989 q 328 1016 354 989 m 224 888 q 416 898 323 888 q 420 873 420 892 q 416 848 420 855 q 329 823 336 842 q 318 696 318 796 l 318 448 q 324 316 318 367 q 352 216 330 265 q 558 85 408 85 q 638 105 600 85 q 709 163 677 124 q 759 268 741 201 q 778 419 778 334 l 778 650 q 772 745 778 695 q 759 815 767 795 q 657 848 748 841 q 653 873 652 855 q 657 898 653 892 q 827 888 769 888 q 916 893 861 888 q 985 898 970 897 q 990 873 989 892 q 985 848 990 855 q 978 847 985 848 q 966 846 970 847 q 953 845 962 846 q 938 843 944 844 q 923 840 932 842 q 909 836 915 838 q 897 830 903 833 q 887 824 890 827 q 881 815 883 820 q 867 746 873 795 q 862 651 862 696 l 862 388 q 842 240 862 307 q 787 127 822 174 q 705 50 753 81 q 604 3 658 18 q 490 -12 550 -12 q 327 18 401 -12 q 204 107 252 48 q 128 408 128 203 l 128 696 q 117 823 128 796 q 31 848 111 842 q 26 873 26 855 q 31 898 26 892 q 224 888 123 888 z "},"":{"ha":846,"x_min":0,"x_max":867,"o":"m 394 1015 q 453 1081 394 1022 q 557 1173 513 1139 q 581 1179 568 1179 q 631 1165 606 1179 q 657 1127 657 1152 q 600 1070 657 1105 q 483 1011 542 1035 q 413 987 425 987 q 400 998 406 987 q 394 1015 394 1008 m 317 197 l 317 385 q 309 412 317 394 q 251 524 293 445 q 174 666 209 604 l 139 728 q 97 803 117 770 q 56 835 84 825 q 5 848 27 846 q 0 873 0 855 q 5 898 1 892 q 199 888 98 888 q 390 898 297 888 q 394 873 394 892 q 390 848 395 855 q 382 847 389 848 q 372 847 376 847 q 361 845 369 846 q 348 843 353 844 q 336 840 343 842 q 325 836 329 838 q 316 829 320 833 q 309 821 311 826 q 307 811 307 817 q 317 789 307 806 l 479 490 q 537 579 484 485 q 650 784 591 673 q 657 815 657 798 q 557 848 657 840 q 552 873 552 855 q 557 898 553 892 q 710 888 669 888 q 794 893 745 888 q 862 898 844 897 q 866 873 866 892 q 862 848 867 855 l 853 847 q 841 846 845 846 q 828 845 838 846 q 812 842 819 844 q 798 838 806 840 q 783 832 789 836 q 771 824 777 829 q 762 814 765 819 q 632 607 725 758 q 513 404 538 456 q 507 378 507 391 l 507 197 q 517 69 505 99 q 604 45 524 51 q 609 19 609 37 q 604 -5 608 1 q 410 4 511 4 q 219 -5 312 4 q 215 19 215 1 q 219 45 214 37 q 306 69 299 51 q 309 79 308 74 q 312 90 311 83 q 313 101 313 96 q 315 115 314 106 q 316 128 315 123 q 316 144 316 133 q 316 160 316 155 q 317 178 317 165 q 317 197 317 192 z "},"":{"ha":791,"x_min":47,"x_max":762,"o":"m 246 888 q 437 898 345 888 q 442 873 441 892 q 437 848 442 855 q 351 823 357 842 q 340 731 340 798 l 340 701 q 455 704 410 704 q 610 676 541 704 q 720 593 678 649 q 762 463 762 538 q 723 322 762 384 q 624 230 685 261 q 494 198 564 198 q 436 209 462 198 q 401 229 411 219 q 391 263 391 239 q 395 273 391 273 q 451 267 414 267 q 535 317 501 267 q 569 444 569 366 q 525 588 569 526 q 414 650 481 650 q 347 633 354 650 q 342 605 344 626 q 340 568 340 585 l 340 551 l 340 197 q 351 69 340 96 q 437 45 357 51 q 442 19 442 37 q 437 -5 441 1 q 243 4 345 4 q 52 -5 145 4 q 48 19 48 1 q 52 45 47 37 q 139 69 132 51 q 150 197 150 96 l 150 696 q 139 823 150 796 q 52 848 132 842 q 48 873 47 855 q 52 898 48 892 q 246 888 145 888 z "},"":{"ha":800,"x_min":26,"x_max":763,"o":"m 446 947 q 610 894 537 947 q 683 764 683 842 q 671 707 683 733 q 647 668 659 681 q 614 637 635 656 q 594 621 609 633 q 571 602 579 609 q 553 584 564 595 q 538 564 543 573 q 534 545 534 554 q 550 504 534 528 q 583 464 566 480 q 629 421 600 447 q 665 388 658 395 q 714 337 696 357 q 747 282 731 317 q 763 208 763 246 q 742 115 763 158 q 686 45 720 73 q 612 2 652 18 q 532 -14 572 -14 q 460 -3 496 -14 q 409 23 425 7 q 397 73 397 47 q 415 137 397 108 q 463 165 434 165 q 480 163 472 165 q 493 158 488 161 q 505 149 499 155 q 515 139 511 143 q 523 127 518 136 q 530 116 528 119 q 536 104 532 113 q 541 95 540 96 q 595 46 565 46 q 638 111 638 46 q 636 133 638 122 q 630 154 635 143 q 621 173 625 165 q 608 194 617 182 q 594 212 599 205 q 577 231 590 218 q 561 249 565 244 q 542 267 557 253 q 524 285 528 281 q 490 317 515 294 q 453 353 466 340 q 425 387 441 366 q 401 429 408 408 q 394 472 394 450 q 398 494 394 484 q 410 517 401 505 q 425 537 418 529 q 445 559 431 545 q 463 579 458 573 q 508 641 494 613 q 522 712 522 669 q 511 791 522 753 q 475 856 500 828 q 412 883 449 883 q 337 820 369 883 q 304 659 304 757 l 304 197 q 315 69 304 96 q 374 45 323 49 q 378 19 378 37 q 374 -5 378 1 q 216 4 281 4 q 31 -5 123 4 q 26 19 26 1 q 31 45 26 37 q 117 69 111 51 q 128 197 128 96 l 128 517 l 48 517 q 41 534 41 519 q 85 581 59 559 l 128 581 l 128 601 q 158 733 128 668 q 233 844 187 798 q 336 918 279 890 q 446 947 393 947 z "},"":{"ha":640,"x_min":42,"x_max":621,"o":"m 163 876 q 178 902 163 888 q 225 916 194 916 q 271 903 259 916 q 325 832 294 877 q 377 753 356 787 q 397 716 397 720 q 389 701 397 710 q 374 692 381 692 q 315 726 366 692 q 213 807 264 761 q 163 876 163 852 m 308 84 q 347 95 331 84 q 363 113 363 105 l 363 302 q 325 285 359 300 q 274 259 290 269 q 225 168 222 226 q 252 106 226 128 q 308 84 277 84 m 336 609 q 481 550 422 609 q 540 401 540 492 l 540 148 q 549 107 540 121 q 572 92 558 92 q 586 94 579 92 q 597 98 593 96 q 606 103 601 100 l 612 106 q 621 83 621 101 q 616 62 621 71 q 584 36 602 50 q 534 7 566 22 q 476 -8 502 -8 q 413 13 444 -8 q 373 60 382 34 q 304 17 356 45 q 220 -11 252 -11 q 94 40 145 -11 q 42 155 42 92 q 63 223 42 193 q 113 263 85 254 q 181 288 135 271 q 283 327 227 305 q 363 358 339 349 l 363 387 l 363 422 q 341 516 363 475 q 283 557 318 557 q 257 551 269 557 q 237 535 245 545 q 223 509 230 526 q 213 479 217 492 q 205 444 210 466 q 129 384 192 384 q 79 402 100 384 q 58 449 58 421 q 77 505 58 471 q 181 570 103 530 q 336 609 260 609 z "},"":{"ha":640,"x_min":42,"x_max":621,"o":"m 397 916 q 444 902 429 916 q 460 876 460 888 q 409 807 460 852 q 308 726 359 761 q 248 692 256 692 q 233 701 241 692 q 225 716 225 710 q 246 753 225 720 q 297 832 267 787 q 351 903 328 877 q 397 916 363 916 m 308 84 q 347 95 331 84 q 363 113 363 105 l 363 302 q 325 285 359 300 q 274 259 290 269 q 225 168 222 226 q 252 106 226 128 q 308 84 277 84 m 336 609 q 481 550 422 609 q 540 401 540 492 l 540 148 q 549 107 540 121 q 572 92 558 92 q 586 94 579 92 q 597 98 593 96 q 606 103 601 100 l 612 106 q 621 83 621 101 q 616 62 621 71 q 584 36 602 50 q 534 7 566 22 q 476 -8 502 -8 q 413 13 444 -8 q 373 60 382 34 q 304 17 356 45 q 220 -11 252 -11 q 94 40 145 -11 q 42 155 42 92 q 63 223 42 193 q 113 263 85 254 q 181 288 135 271 q 283 327 227 305 q 363 358 339 349 l 363 387 l 363 422 q 341 516 363 475 q 283 557 318 557 q 257 551 269 557 q 237 535 245 545 q 223 509 230 526 q 213 479 217 492 q 205 444 210 466 q 129 384 192 384 q 79 402 100 384 q 58 449 58 421 q 77 505 58 471 q 181 570 103 530 q 336 609 260 609 z "},"":{"ha":640,"x_min":42,"x_max":621,"o":"m 461 692 q 395 732 450 695 q 313 792 340 769 q 234 734 286 769 q 165 692 181 699 q 157 703 161 694 q 153 723 153 713 q 243 829 186 755 q 296 906 271 866 q 313 920 303 920 q 318 919 316 920 q 322 916 321 918 q 326 911 323 915 q 330 906 328 908 q 350 877 334 901 q 380 836 366 854 q 473 723 439 757 q 470 703 473 713 q 461 692 466 694 m 308 84 q 347 95 331 84 q 363 113 363 105 l 363 302 q 325 285 359 300 q 274 259 290 269 q 225 168 222 226 q 252 106 226 128 q 308 84 277 84 m 336 609 q 481 550 422 609 q 540 401 540 492 l 540 148 q 549 107 540 121 q 572 92 558 92 q 586 94 579 92 q 597 98 593 96 q 606 103 601 100 l 612 106 q 621 83 621 101 q 616 62 621 71 q 584 36 602 50 q 534 7 566 22 q 476 -8 502 -8 q 413 13 444 -8 q 373 60 382 34 q 304 17 356 45 q 220 -11 252 -11 q 94 40 145 -11 q 42 155 42 92 q 63 223 42 193 q 113 263 85 254 q 181 288 135 271 q 283 327 227 305 q 363 358 339 349 l 363 387 l 363 422 q 341 516 363 475 q 283 557 318 557 q 257 551 269 557 q 237 535 245 545 q 223 509 230 526 q 213 479 217 492 q 205 444 210 466 q 129 384 192 384 q 79 402 100 384 q 58 449 58 421 q 77 505 58 471 q 181 570 103 530 q 336 609 260 609 z "},"":{"ha":640,"x_min":42,"x_max":621,"o":"m 214 867 q 227 866 220 867 q 237 865 233 865 q 248 862 242 864 q 258 858 254 859 q 268 853 262 857 q 277 848 275 850 q 287 843 279 847 q 295 837 294 838 q 305 831 297 836 q 313 825 313 825 q 366 793 338 806 q 410 780 393 780 q 447 790 430 780 q 473 813 465 801 q 490 838 482 825 q 500 852 498 850 q 511 836 511 852 q 488 764 511 806 q 387 694 445 694 q 374 695 380 694 q 363 696 368 696 q 353 700 359 697 q 343 703 347 702 q 333 708 339 705 q 324 713 326 711 q 314 719 321 714 q 306 724 307 723 q 296 730 304 725 q 288 736 288 736 q 191 783 225 783 q 161 776 174 783 q 138 759 147 769 q 123 738 130 749 q 113 719 117 728 q 106 709 109 711 q 96 716 100 709 q 92 730 92 723 q 113 799 92 761 q 214 867 155 867 m 308 84 q 347 95 331 84 q 363 113 363 105 l 363 302 q 325 285 359 300 q 274 259 290 269 q 225 168 222 226 q 252 106 226 128 q 308 84 277 84 m 336 609 q 481 550 422 609 q 540 401 540 492 l 540 148 q 549 107 540 121 q 572 92 558 92 q 586 94 579 92 q 597 98 593 96 q 606 103 601 100 l 612 106 q 621 83 621 101 q 616 62 621 71 q 584 36 602 50 q 534 7 566 22 q 476 -8 502 -8 q 413 13 444 -8 q 373 60 382 34 q 304 17 356 45 q 220 -11 252 -11 q 94 40 145 -11 q 42 155 42 92 q 63 223 42 193 q 113 263 85 254 q 181 288 135 271 q 283 327 227 305 q 363 358 339 349 l 363 387 l 363 422 q 341 516 363 475 q 283 557 318 557 q 257 551 269 557 q 237 535 245 545 q 223 509 230 526 q 213 479 217 492 q 205 444 210 466 q 129 384 192 384 q 79 402 100 384 q 58 449 58 421 q 77 505 58 471 q 181 570 103 530 q 336 609 260 609 z "},"":{"ha":640,"x_min":42,"x_max":621,"o":"m 357 856 q 371 869 357 856 q 423 883 385 883 q 490 856 462 883 q 518 789 518 828 q 490 723 518 751 q 423 694 462 694 q 357 723 385 694 q 330 789 330 751 q 357 856 330 828 m 101 856 q 115 869 101 856 q 168 883 130 883 q 234 856 207 883 q 262 789 262 828 q 234 723 262 751 q 168 694 207 694 q 101 723 130 694 q 73 789 73 751 q 101 856 73 828 m 308 84 q 347 95 331 84 q 363 113 363 105 l 363 302 q 325 285 359 300 q 274 259 290 269 q 225 168 222 226 q 252 106 226 128 q 308 84 277 84 m 336 609 q 481 550 422 609 q 540 401 540 492 l 540 148 q 549 107 540 121 q 572 92 558 92 q 586 94 579 92 q 597 98 593 96 q 606 103 601 100 l 612 106 q 621 83 621 101 q 616 62 621 71 q 584 36 602 50 q 534 7 566 22 q 476 -8 502 -8 q 413 13 444 -8 q 373 60 382 34 q 304 17 356 45 q 220 -11 252 -11 q 94 40 145 -11 q 42 155 42 92 q 63 223 42 193 q 113 263 85 254 q 181 288 135 271 q 283 327 227 305 q 363 358 339 349 l 363 387 l 363 422 q 341 516 363 475 q 283 557 318 557 q 257 551 269 557 q 237 535 245 545 q 223 509 230 526 q 213 479 217 492 q 205 444 210 466 q 129 384 192 384 q 79 402 100 384 q 58 449 58 421 q 77 505 58 471 q 181 570 103 530 q 336 609 260 609 z "},"":{"ha":640,"x_min":42,"x_max":621,"o":"m 287 890 q 274 877 287 890 q 262 827 262 864 q 287 764 262 791 q 349 738 312 738 q 411 764 385 738 q 437 827 437 791 q 411 890 437 864 q 349 916 385 916 q 287 890 312 916 m 198 827 q 242 933 198 889 q 349 977 286 977 q 455 933 411 977 q 499 827 499 889 q 455 720 499 765 q 349 675 410 675 q 242 720 287 675 q 198 827 198 765 m 308 84 q 347 95 331 84 q 363 113 363 105 l 363 302 q 325 285 359 300 q 274 259 290 269 q 225 168 222 226 q 252 106 226 128 q 308 84 277 84 m 336 609 q 481 550 422 609 q 540 401 540 492 l 540 148 q 549 107 540 121 q 572 92 558 92 q 586 94 579 92 q 597 98 593 96 q 606 103 601 100 l 612 106 q 621 83 621 101 q 616 62 621 71 q 584 36 602 50 q 534 7 566 22 q 476 -8 502 -8 q 413 13 444 -8 q 373 60 382 34 q 304 17 356 45 q 220 -11 252 -11 q 94 40 145 -11 q 42 155 42 92 q 63 223 42 193 q 113 263 85 254 q 181 288 135 271 q 283 327 227 305 q 363 358 339 349 l 363 387 l 363 422 q 341 516 363 475 q 283 557 318 557 q 257 551 269 557 q 237 535 245 545 q 223 509 230 526 q 213 479 217 492 q 205 444 210 466 q 129 384 192 384 q 79 402 100 384 q 58 449 58 421 q 77 505 58 471 q 181 570 103 530 q 336 609 260 609 z "},"":{"ha":944,"x_min":42,"x_max":902,"o":"m 274 259 q 225 168 222 226 q 252 106 226 128 q 308 84 277 84 q 368 103 334 84 q 401 138 401 121 q 381 263 381 202 q 382 302 381 282 q 352 292 380 302 q 305 275 324 283 q 274 259 286 267 m 651 551 q 601 531 623 551 q 566 484 578 512 q 547 429 553 455 q 541 382 541 402 q 621 386 550 382 q 716 393 692 390 q 734 415 734 395 q 713 510 734 469 q 651 551 693 551 m 665 606 q 757 592 715 606 q 825 557 799 578 q 869 507 851 535 q 895 453 887 479 q 902 401 902 427 q 891 362 902 379 q 865 345 880 345 q 540 328 743 334 q 554 232 540 274 q 589 166 568 190 q 637 127 610 142 q 686 107 664 112 q 730 102 709 102 q 882 170 820 102 q 893 160 888 168 q 898 145 898 152 q 894 119 898 125 q 863 82 883 102 q 811 40 842 62 q 737 3 780 18 q 648 -12 694 -12 q 523 13 579 -12 q 431 87 467 39 q 318 18 380 46 q 220 -11 255 -11 q 94 40 145 -11 q 42 155 42 92 q 63 223 42 193 q 113 263 85 254 q 387 357 197 290 q 394 369 391 359 q 397 387 397 379 q 395 431 397 416 q 352 523 385 488 q 283 557 320 557 q 257 551 269 557 q 237 535 245 545 q 223 509 230 526 q 213 479 217 492 q 205 444 210 466 q 129 384 192 384 q 79 402 100 384 q 58 449 58 421 q 77 505 58 471 q 181 570 103 530 q 336 609 260 609 q 495 534 435 609 q 665 606 574 606 z "},"":{"ha":606,"x_min":42,"x_max":576,"o":"m 339 -34 q 369 -31 361 -31 q 416 -51 396 -31 q 437 -98 437 -71 q 401 -179 437 -147 q 305 -212 366 -212 q 267 -205 285 -212 q 240 -190 248 -198 q 235 -163 235 -182 q 239 -153 235 -153 q 304 -174 279 -174 q 350 -162 336 -174 q 363 -133 363 -150 q 355 -102 363 -115 q 328 -88 347 -88 q 293 -98 317 -88 q 282 -90 290 -98 q 275 -77 275 -83 q 313 -3 300 -37 l 357 -3 q 339 -34 346 -22 m 560 518 q 538 460 560 486 q 481 434 516 434 q 462 437 471 434 q 443 449 452 441 q 428 463 433 457 q 413 480 422 468 q 400 495 404 492 q 308 537 363 537 q 257 507 279 537 q 224 435 235 477 q 213 350 213 393 q 231 232 213 282 q 278 154 249 181 q 340 114 308 127 q 408 102 373 102 q 560 170 498 102 q 572 160 567 168 q 576 145 576 152 q 572 119 576 125 q 541 82 562 102 q 490 40 521 62 q 415 3 458 18 q 327 -12 372 -12 q 186 21 250 -12 q 82 120 121 54 q 42 271 42 185 q 71 393 42 332 q 149 502 100 454 q 262 578 197 549 q 396 608 328 608 q 483 600 446 608 q 533 583 519 592 q 560 518 560 553 z "},"":{"ha":624,"x_min":43,"x_max":582,"o":"m 172 876 q 188 902 172 888 q 235 916 203 916 q 281 903 269 916 q 335 832 304 877 q 386 753 366 787 q 407 716 407 720 q 399 701 407 710 q 384 692 391 692 q 325 726 376 692 q 223 807 273 761 q 172 876 172 852 m 221 382 q 301 386 230 382 q 396 393 372 390 q 414 415 414 395 q 393 510 414 469 q 331 551 373 551 q 280 531 303 551 q 245 484 258 512 q 227 429 233 455 q 221 382 221 402 m 220 328 q 234 232 220 274 q 269 166 248 190 q 317 127 290 142 q 366 107 344 112 q 410 102 389 102 q 562 170 500 102 q 573 160 568 168 q 578 145 578 152 q 574 119 578 125 q 543 82 563 102 q 491 40 522 62 q 417 3 460 18 q 328 -12 374 -12 q 187 21 252 -12 q 83 120 123 54 q 43 271 43 185 q 86 433 43 355 q 198 558 128 511 q 345 606 269 606 q 437 592 395 606 q 505 557 479 578 q 549 507 531 535 q 574 453 567 479 q 582 401 582 427 q 571 362 582 379 q 545 345 560 345 q 220 328 423 334 z "},"":{"ha":624,"x_min":43,"x_max":582,"o":"m 426 916 q 473 902 457 916 q 488 876 488 888 q 438 807 488 852 q 336 726 387 761 q 277 692 285 692 q 262 701 270 692 q 254 716 254 710 q 274 753 254 720 q 326 832 295 787 q 380 903 357 877 q 426 916 392 916 m 221 382 q 301 386 230 382 q 396 393 372 390 q 414 415 414 395 q 393 510 414 469 q 331 551 373 551 q 280 531 303 551 q 245 484 258 512 q 227 429 233 455 q 221 382 221 402 m 220 328 q 234 232 220 274 q 269 166 248 190 q 317 127 290 142 q 366 107 344 112 q 410 102 389 102 q 562 170 500 102 q 573 160 568 168 q 578 145 578 152 q 574 119 578 125 q 543 82 563 102 q 491 40 522 62 q 417 3 460 18 q 328 -12 374 -12 q 187 21 252 -12 q 83 120 123 54 q 43 271 43 185 q 86 433 43 355 q 198 558 128 511 q 345 606 269 606 q 437 592 395 606 q 505 557 479 578 q 549 507 531 535 q 574 453 567 479 q 582 401 582 427 q 571 362 582 379 q 545 345 560 345 q 220 328 423 334 z "},"":{"ha":624,"x_min":43,"x_max":582,"o":"m 476 692 q 410 732 465 695 q 328 792 355 769 q 249 734 301 769 q 180 692 196 699 q 172 703 176 694 q 168 723 168 713 q 258 829 201 755 q 311 906 286 866 q 328 920 318 920 q 333 919 331 920 q 337 916 336 918 q 340 911 338 915 q 345 906 343 908 q 365 877 349 901 q 395 836 380 854 q 488 723 454 757 q 485 703 488 713 q 476 692 481 694 m 221 382 q 301 386 230 382 q 396 393 372 390 q 414 415 414 395 q 393 510 414 469 q 331 551 373 551 q 280 531 303 551 q 245 484 258 512 q 227 429 233 455 q 221 382 221 402 m 220 328 q 234 232 220 274 q 269 166 248 190 q 317 127 290 142 q 366 107 344 112 q 410 102 389 102 q 562 170 500 102 q 573 160 568 168 q 578 145 578 152 q 574 119 578 125 q 543 82 563 102 q 491 40 522 62 q 417 3 460 18 q 328 -12 374 -12 q 187 21 252 -12 q 83 120 123 54 q 43 271 43 185 q 86 433 43 355 q 198 558 128 511 q 345 606 269 606 q 437 592 395 606 q 505 557 479 578 q 549 507 531 535 q 574 453 567 479 q 582 401 582 427 q 571 362 582 379 q 545 345 560 345 q 220 328 423 334 z "},"":{"ha":624,"x_min":43,"x_max":582,"o":"m 383 856 q 397 869 383 856 q 449 883 410 883 q 516 856 488 883 q 544 789 544 828 q 516 723 544 751 q 449 694 488 694 q 383 723 410 694 q 355 789 355 751 q 383 856 355 828 m 127 856 q 141 869 127 856 q 194 883 155 883 q 260 856 233 883 q 288 789 288 828 q 260 723 288 751 q 194 694 233 694 q 127 723 155 694 q 99 789 99 751 q 127 856 99 828 m 221 382 q 301 386 230 382 q 396 393 372 390 q 414 415 414 395 q 393 510 414 469 q 331 551 373 551 q 280 531 303 551 q 245 484 258 512 q 227 429 233 455 q 221 382 221 402 m 220 328 q 234 232 220 274 q 269 166 248 190 q 317 127 290 142 q 366 107 344 112 q 410 102 389 102 q 562 170 500 102 q 573 160 568 168 q 578 145 578 152 q 574 119 578 125 q 543 82 563 102 q 491 40 522 62 q 417 3 460 18 q 328 -12 374 -12 q 187 21 252 -12 q 83 120 123 54 q 43 271 43 185 q 86 433 43 355 q 198 558 128 511 q 345 606 269 606 q 437 592 395 606 q 505 557 479 578 q 549 507 531 535 q 574 453 567 479 q 582 401 582 427 q 571 362 582 379 q 545 345 560 345 q 220 328 423 334 z "},"":{"ha":427,"x_min":39,"x_max":411,"o":"m 81 876 q 96 902 81 888 q 143 916 112 916 q 189 903 177 916 q 243 832 212 877 q 295 753 274 787 q 315 716 315 720 q 307 701 315 710 q 292 692 299 692 q 233 726 284 692 q 131 807 182 761 q 81 876 81 852 m 318 419 l 318 197 q 329 69 318 96 q 406 45 336 50 q 411 19 411 37 q 406 -5 410 1 q 230 4 313 4 q 44 -5 137 4 q 40 19 40 1 q 44 45 39 37 q 131 69 124 51 q 142 197 142 96 l 142 353 q 130 464 142 441 q 91 484 123 477 q 44 491 60 491 q 41 513 41 493 q 45 533 41 533 q 190 560 116 538 q 310 605 264 582 q 325 594 317 603 q 333 582 333 585 q 326 546 330 574 q 319 505 321 519 q 318 419 318 475 z "},"":{"ha":427,"x_min":39,"x_max":411,"o":"m 302 916 q 349 902 333 916 q 364 876 364 888 q 314 807 364 852 q 212 726 263 761 q 153 692 161 692 q 138 701 146 692 q 130 716 130 710 q 150 753 130 720 q 202 832 171 787 q 256 903 233 877 q 302 916 268 916 m 318 419 l 318 197 q 329 69 318 96 q 406 45 336 50 q 411 19 411 37 q 406 -5 410 1 q 230 4 313 4 q 44 -5 137 4 q 40 19 40 1 q 44 45 39 37 q 131 69 124 51 q 142 197 142 96 l 142 353 q 130 464 142 441 q 91 484 123 477 q 44 491 60 491 q 41 513 41 493 q 45 533 41 533 q 190 560 116 538 q 310 605 264 582 q 325 594 317 603 q 333 582 333 585 q 326 546 330 574 q 319 505 321 519 q 318 419 318 475 z "},"":{"ha":427,"x_min":39,"x_max":411,"o":"m 363 692 q 297 732 352 695 q 215 792 242 769 q 135 734 188 769 q 67 692 83 699 q 59 703 62 694 q 55 723 55 713 q 144 829 87 755 q 197 906 173 866 q 215 920 205 920 q 220 919 218 920 q 223 916 222 918 q 227 911 224 915 q 231 906 230 908 q 251 877 235 901 q 281 836 267 854 q 375 723 341 757 q 371 703 375 713 q 363 692 368 694 m 318 419 l 318 197 q 329 69 318 96 q 406 45 336 50 q 411 19 411 37 q 406 -5 410 1 q 230 4 313 4 q 44 -5 137 4 q 40 19 40 1 q 44 45 39 37 q 131 69 124 51 q 142 197 142 96 l 142 353 q 130 464 142 441 q 91 484 123 477 q 44 491 60 491 q 41 513 41 493 q 45 533 41 533 q 190 560 116 538 q 310 605 264 582 q 325 594 317 603 q 333 582 333 585 q 326 546 330 574 q 319 505 321 519 q 318 419 318 475 z "},"":{"ha":427,"x_min":-7,"x_max":438,"o":"m 277 856 q 291 869 277 856 q 343 883 304 883 q 410 856 382 883 q 438 789 438 828 q 410 723 438 751 q 343 694 382 694 q 277 723 304 694 q 250 789 250 751 q 277 856 250 828 m 21 856 q 35 869 21 856 q 88 883 50 883 q 154 856 127 883 q 182 789 182 828 q 154 723 182 751 q 88 694 127 694 q 21 723 50 694 q -7 789 -7 751 q 21 856 -7 828 m 319 419 l 319 197 q 330 69 319 96 q 407 45 337 50 q 411 19 412 37 q 407 -5 411 1 q 231 4 314 4 q 45 -5 138 4 q 40 19 41 1 q 45 45 40 37 q 132 69 125 51 q 142 197 142 96 l 142 353 q 130 464 142 441 q 92 484 123 477 q 45 491 60 491 q 41 513 41 493 q 46 533 41 533 q 191 560 117 538 q 311 605 265 582 q 326 594 317 603 q 334 582 334 585 q 326 546 331 574 q 320 505 321 519 q 319 419 319 475 z "},"":{"ha":732,"x_min":45,"x_max":663,"o":"m 334 608 q 422 597 376 608 q 385 677 408 638 q 328 758 362 717 q 316 771 322 764 l 183 681 q 156 728 149 721 l 276 810 q 243 836 260 823 q 132 899 193 872 q 141 937 127 926 q 332 867 222 925 q 348 859 340 863 l 498 960 q 526 914 532 920 l 399 827 q 522 719 467 781 q 663 351 663 561 q 577 94 663 196 q 357 -8 490 -8 q 269 2 312 -8 q 185 37 226 13 q 113 95 144 61 q 63 181 82 130 q 45 296 45 233 q 71 432 45 371 q 140 531 98 494 q 233 588 182 568 q 334 608 283 608 m 358 551 q 298 528 323 551 q 259 465 273 505 q 238 381 245 425 q 232 288 232 337 q 273 114 232 179 q 359 49 314 49 q 415 71 392 49 q 451 132 439 94 q 469 213 464 170 q 475 305 475 256 q 435 509 475 430 q 358 551 406 551 z "},"":{"ha":808,"x_min":35,"x_max":803,"o":"m 317 867 q 329 866 323 867 q 340 865 335 865 q 351 862 345 864 q 360 858 357 859 q 371 853 364 857 q 379 848 377 850 q 389 843 382 847 q 398 837 396 838 q 407 831 399 836 q 416 825 415 825 q 468 793 441 806 q 512 780 496 780 q 550 790 532 780 q 576 813 567 801 q 592 838 585 825 q 603 852 600 850 q 614 836 614 852 q 591 764 614 806 q 489 694 547 694 q 477 695 483 694 q 466 696 471 696 q 455 700 461 697 q 445 703 449 702 q 435 708 441 705 q 426 713 429 711 q 417 719 424 714 q 408 724 410 723 q 398 730 406 725 q 390 736 391 736 q 294 783 328 783 q 263 776 277 783 q 241 759 250 769 q 226 738 232 749 q 215 719 220 728 q 208 709 211 711 q 198 716 202 709 q 195 730 195 723 q 215 799 195 761 q 317 867 257 867 m 516 605 q 595 592 562 605 q 648 554 627 578 q 680 490 669 530 q 696 401 692 449 q 701 285 701 353 l 701 197 q 711 69 701 96 q 798 45 718 51 q 803 19 803 37 q 798 -5 802 1 q 612 4 705 4 q 443 -5 536 4 q 438 19 439 1 q 443 45 438 37 q 513 69 506 50 q 524 197 524 96 l 524 304 q 433 495 524 495 q 354 468 395 495 q 314 419 314 441 l 314 197 q 325 69 314 96 q 402 45 332 50 q 407 19 407 37 q 402 -5 406 1 q 226 4 309 4 q 40 -5 133 4 q 36 19 36 1 q 40 45 35 37 q 127 69 120 51 q 138 197 138 96 l 138 353 q 125 464 138 441 q 87 484 119 477 q 40 491 56 491 q 37 513 37 493 q 41 533 37 533 q 186 560 112 538 q 306 605 260 582 q 320 596 312 605 q 329 582 329 587 q 324 558 328 577 q 318 522 321 539 q 315 505 315 505 q 317 496 315 498 q 326 503 319 496 q 415 572 358 539 q 516 605 473 605 z "},"":{"ha":722,"x_min":43,"x_max":678,"o":"m 199 876 q 215 902 199 888 q 262 916 231 916 q 308 903 296 916 q 362 832 331 877 q 413 753 393 787 q 434 716 434 720 q 426 701 434 710 q 411 692 418 692 q 352 726 403 692 q 250 807 300 761 q 199 876 199 852 m 345 551 q 286 530 309 551 q 253 472 263 509 q 239 400 243 434 q 236 321 236 366 q 250 197 236 257 q 296 92 263 137 q 376 47 329 47 q 425 62 404 47 q 457 98 446 77 q 475 153 469 120 q 484 212 482 185 q 486 274 486 239 q 472 400 486 339 q 425 506 458 460 q 345 551 391 551 m 359 606 q 589 521 499 606 q 678 305 678 435 q 637 148 678 220 q 523 33 595 76 q 362 -9 450 -9 q 133 78 222 -9 q 43 294 43 165 q 135 515 43 423 q 359 606 227 606 z "},"":{"ha":722,"x_min":43,"x_max":678,"o":"m 475 916 q 522 902 506 916 q 537 876 537 888 q 487 807 537 852 q 385 726 436 761 q 326 692 334 692 q 311 701 319 692 q 302 716 302 710 q 323 753 302 720 q 375 832 344 787 q 429 903 406 877 q 475 916 441 916 m 345 551 q 286 530 309 551 q 253 472 263 509 q 239 400 243 434 q 236 321 236 366 q 250 197 236 257 q 296 92 263 137 q 376 47 329 47 q 425 62 404 47 q 457 98 446 77 q 475 153 469 120 q 484 212 482 185 q 486 274 486 239 q 472 400 486 339 q 425 506 458 460 q 345 551 391 551 m 359 606 q 589 521 499 606 q 678 305 678 435 q 637 148 678 220 q 523 33 595 76 q 362 -9 450 -9 q 133 78 222 -9 q 43 294 43 165 q 135 515 43 423 q 359 606 227 606 z "},"":{"ha":722,"x_min":43,"x_max":678,"o":"m 511 692 q 446 732 500 695 q 363 792 391 769 q 284 734 336 769 q 216 692 231 699 q 207 703 211 694 q 203 723 203 713 q 293 829 236 755 q 346 906 321 866 q 363 920 353 920 q 369 919 366 920 q 372 916 371 918 q 376 911 373 915 q 380 906 378 908 q 400 877 384 901 q 430 836 416 854 q 524 723 490 757 q 520 703 524 713 q 511 692 516 694 m 345 551 q 286 530 309 551 q 253 472 263 509 q 239 400 243 434 q 236 321 236 366 q 250 197 236 257 q 296 92 263 137 q 376 47 329 47 q 425 62 404 47 q 457 98 446 77 q 475 153 469 120 q 484 212 482 185 q 486 274 486 239 q 472 400 486 339 q 425 506 458 460 q 345 551 391 551 m 359 606 q 589 521 499 606 q 678 305 678 435 q 637 148 678 220 q 523 33 595 76 q 362 -9 450 -9 q 133 78 222 -9 q 43 294 43 165 q 135 515 43 423 q 359 606 227 606 z "},"":{"ha":722,"x_min":43,"x_max":678,"o":"m 279 867 q 292 866 286 867 q 302 865 298 865 q 313 862 307 864 q 323 858 319 859 q 333 853 327 857 q 342 848 340 850 q 352 843 345 847 q 360 837 359 838 q 370 831 362 836 q 378 825 378 825 q 431 793 404 806 q 475 780 458 780 q 512 790 495 780 q 538 813 530 801 q 555 838 547 825 q 566 852 563 850 q 576 836 576 852 q 553 764 576 806 q 452 694 510 694 q 439 695 446 694 q 429 696 433 696 q 418 700 424 697 q 408 703 412 702 q 398 708 404 705 q 389 713 391 711 q 379 719 387 714 q 371 724 372 723 q 361 730 369 725 q 353 736 353 736 q 256 783 290 783 q 226 776 239 783 q 203 759 212 769 q 189 738 195 749 q 178 719 182 728 q 171 709 174 711 q 161 716 165 709 q 157 730 157 723 q 178 799 157 761 q 279 867 220 867 m 345 551 q 286 530 309 551 q 253 472 263 509 q 239 400 243 434 q 236 321 236 366 q 250 197 236 257 q 296 92 263 137 q 376 47 329 47 q 425 62 404 47 q 457 98 446 77 q 475 153 469 120 q 484 212 482 185 q 486 274 486 239 q 472 400 486 339 q 425 506 458 460 q 345 551 391 551 m 359 606 q 589 521 499 606 q 678 305 678 435 q 637 148 678 220 q 523 33 595 76 q 362 -9 450 -9 q 133 78 222 -9 q 43 294 43 165 q 135 515 43 423 q 359 606 227 606 z "},"":{"ha":722,"x_min":43,"x_max":678,"o":"m 415 856 q 429 869 415 856 q 481 883 443 883 q 548 856 520 883 q 576 789 576 828 q 548 723 576 751 q 481 694 520 694 q 415 723 443 694 q 388 789 388 751 q 415 856 388 828 m 160 856 q 174 869 160 856 q 227 883 188 883 q 293 856 265 883 q 320 789 320 828 q 293 723 320 751 q 227 694 265 694 q 160 723 188 694 q 132 789 132 751 q 160 856 132 828 m 345 551 q 286 530 309 551 q 253 472 263 509 q 239 400 243 434 q 236 321 236 366 q 250 197 236 257 q 296 92 263 137 q 376 47 329 47 q 425 62 404 47 q 457 98 446 77 q 475 153 469 120 q 484 212 482 185 q 486 274 486 239 q 472 400 486 339 q 425 506 458 460 q 345 551 391 551 m 359 606 q 589 521 499 606 q 678 305 678 435 q 637 148 678 220 q 523 33 595 76 q 362 -9 450 -9 q 133 78 222 -9 q 43 294 43 165 q 135 515 43 423 q 359 606 227 606 z "},"":{"ha":803,"x_min":77,"x_max":728,"o":"m 341 527 q 328 539 341 527 q 316 586 316 551 q 341 645 316 621 q 400 670 366 670 q 459 645 435 670 q 484 586 484 621 q 459 527 484 551 q 400 502 435 502 q 341 527 366 502 m 341 27 q 328 40 341 27 q 316 87 316 52 q 341 146 316 121 q 400 171 366 171 q 459 146 435 171 q 484 87 484 121 q 459 27 484 52 q 400 3 435 3 q 341 27 366 3 m 85 302 q 77 324 77 302 q 81 352 77 334 q 92 381 84 371 l 716 381 q 725 375 722 381 q 728 362 728 369 q 709 302 728 326 l 85 302 z "},"":{"ha":722,"x_min":43,"x_max":678,"o":"m 345 551 q 286 530 309 551 q 253 472 263 509 q 239 400 243 434 q 236 321 236 366 q 250 197 236 257 q 296 92 263 137 q 376 47 329 47 q 425 62 404 47 q 457 98 446 77 q 475 153 469 120 q 484 212 482 185 q 486 274 486 239 q 472 400 486 339 q 425 506 458 460 q 345 551 391 551 m 359 606 q 589 521 499 606 q 678 305 678 435 q 637 148 678 220 q 523 33 595 76 q 362 -9 450 -9 q 133 78 222 -9 q 43 294 43 165 q 135 515 43 423 q 359 606 227 606 m 506 617 q 549 591 552 600 l 206 -22 q 163 5 160 -4 l 506 617 z "},"":{"ha":768,"x_min":12,"x_max":736,"o":"m 181 876 q 197 902 181 888 q 243 916 212 916 q 290 903 277 916 q 343 832 313 877 q 395 753 374 787 q 416 716 416 720 q 408 701 416 710 q 393 692 399 692 q 333 726 385 692 q 232 807 282 761 q 181 876 181 852 m 482 353 q 470 464 482 441 q 432 484 463 477 q 385 491 400 491 q 381 513 381 493 q 386 533 381 533 q 531 560 456 538 q 650 605 605 582 q 665 594 657 603 q 673 582 673 585 q 666 546 671 574 q 660 505 661 519 q 659 419 659 475 l 659 146 q 671 95 659 109 q 732 81 683 81 q 736 64 736 77 q 728 38 736 50 q 638 23 693 35 q 542 1 583 11 q 494 -9 501 -9 q 486 0 490 -9 q 482 23 482 9 l 482 45 q 478 52 482 54 q 440 29 462 41 q 374 5 418 18 q 287 -7 330 -7 q 204 13 239 -7 q 150 67 170 33 q 122 144 131 102 q 113 236 113 186 l 113 353 q 101 464 113 441 q 63 484 94 477 q 16 491 31 491 q 12 513 12 493 q 17 533 12 533 q 162 560 87 538 q 281 605 236 582 q 296 594 288 603 q 304 582 304 585 q 297 546 302 574 q 291 505 292 519 q 290 419 290 475 l 290 297 q 312 129 290 182 q 395 76 335 76 q 453 93 423 76 q 482 126 482 111 l 482 353 z "},"":{"ha":768,"x_min":12,"x_max":736,"o":"m 508 916 q 555 902 539 916 q 570 876 570 888 q 520 807 570 852 q 418 726 469 761 q 359 692 367 692 q 344 701 352 692 q 336 716 336 710 q 356 753 336 720 q 408 832 377 787 q 462 903 439 877 q 508 916 474 916 m 482 353 q 470 464 482 441 q 432 484 463 477 q 385 491 400 491 q 381 513 381 493 q 386 533 381 533 q 531 560 456 538 q 650 605 605 582 q 665 594 657 603 q 673 582 673 585 q 666 546 671 574 q 660 505 661 519 q 659 419 659 475 l 659 146 q 671 95 659 109 q 732 81 683 81 q 736 64 736 77 q 728 38 736 50 q 638 23 693 35 q 542 1 583 11 q 494 -9 501 -9 q 486 0 490 -9 q 482 23 482 9 l 482 45 q 478 52 482 54 q 440 29 462 41 q 374 5 418 18 q 287 -7 330 -7 q 204 13 239 -7 q 150 67 170 33 q 122 144 131 102 q 113 236 113 186 l 113 353 q 101 464 113 441 q 63 484 94 477 q 16 491 31 491 q 12 513 12 493 q 17 533 12 533 q 162 560 87 538 q 281 605 236 582 q 296 594 288 603 q 304 582 304 585 q 297 546 302 574 q 291 505 292 519 q 290 419 290 475 l 290 297 q 312 129 290 182 q 395 76 335 76 q 453 93 423 76 q 482 126 482 111 l 482 353 z "},"":{"ha":768,"x_min":12,"x_max":736,"o":"m 515 692 q 449 732 504 695 q 367 792 394 769 q 287 734 340 769 q 219 692 235 699 q 211 703 214 694 q 207 723 207 713 q 296 829 239 755 q 349 906 325 866 q 367 920 357 920 q 372 919 370 920 q 375 916 374 918 q 379 911 376 915 q 383 906 382 908 q 403 877 387 901 q 433 836 419 854 q 527 723 493 757 q 523 703 527 713 q 515 692 519 694 m 482 353 q 470 464 482 441 q 432 484 463 477 q 385 491 400 491 q 381 513 381 493 q 386 533 381 533 q 531 560 456 538 q 650 605 605 582 q 665 594 657 603 q 673 582 673 585 q 666 546 671 574 q 660 505 661 519 q 659 419 659 475 l 659 146 q 671 95 659 109 q 732 81 683 81 q 736 64 736 77 q 728 38 736 50 q 638 23 693 35 q 542 1 583 11 q 494 -9 501 -9 q 486 0 490 -9 q 482 23 482 9 l 482 45 q 478 52 482 54 q 440 29 462 41 q 374 5 418 18 q 287 -7 330 -7 q 204 13 239 -7 q 150 67 170 33 q 122 144 131 102 q 113 236 113 186 l 113 353 q 101 464 113 441 q 63 484 94 477 q 16 491 31 491 q 12 513 12 493 q 17 533 12 533 q 162 560 87 538 q 281 605 236 582 q 296 594 288 603 q 304 582 304 585 q 297 546 302 574 q 291 505 292 519 q 290 419 290 475 l 290 297 q 312 129 290 182 q 395 76 335 76 q 453 93 423 76 q 482 126 482 111 l 482 353 z "},"":{"ha":768,"x_min":12,"x_max":736,"o":"m 427 856 q 441 869 427 856 q 493 883 454 883 q 560 856 532 883 q 588 789 588 828 q 560 723 588 751 q 493 694 532 694 q 427 723 454 694 q 399 789 399 751 q 427 856 399 828 m 171 856 q 185 869 171 856 q 238 883 199 883 q 304 856 277 883 q 332 789 332 828 q 304 723 332 751 q 238 694 277 694 q 171 723 199 694 q 143 789 143 751 q 171 856 143 828 m 482 353 q 470 464 482 441 q 432 484 463 477 q 385 491 400 491 q 381 513 381 493 q 386 533 381 533 q 531 560 456 538 q 650 605 605 582 q 665 594 657 603 q 673 582 673 585 q 666 546 671 574 q 660 505 661 519 q 659 419 659 475 l 659 146 q 671 95 659 109 q 732 81 683 81 q 736 64 736 77 q 728 38 736 50 q 638 23 693 35 q 542 1 583 11 q 494 -9 501 -9 q 486 0 490 -9 q 482 23 482 9 l 482 45 q 478 52 482 54 q 440 29 462 41 q 374 5 418 18 q 287 -7 330 -7 q 204 13 239 -7 q 150 67 170 33 q 122 144 131 102 q 113 236 113 186 l 113 353 q 101 464 113 441 q 63 484 94 477 q 16 491 31 491 q 12 513 12 493 q 17 533 12 533 q 162 560 87 538 q 281 605 236 582 q 296 594 288 603 q 304 582 304 585 q 297 546 302 574 q 291 505 292 519 q 290 419 290 475 l 290 297 q 312 129 290 182 q 395 76 335 76 q 453 93 423 76 q 482 126 482 111 l 482 353 z "},"":{"ha":724,"x_min":-5,"x_max":729,"o":"m 528 916 q 574 902 559 916 q 590 876 590 888 q 539 807 590 852 q 438 726 489 761 q 378 692 387 692 q 363 701 372 692 q 355 716 355 710 q 376 753 355 720 q 428 832 397 787 q 481 903 458 877 q 528 916 494 916 m 183 591 q 354 601 275 591 q 359 576 359 595 q 354 551 359 557 q 305 540 336 551 q 274 514 274 529 q 277 494 274 500 l 416 227 q 524 464 479 363 q 538 514 538 494 q 526 534 538 526 q 494 545 513 542 q 463 550 475 549 q 442 551 450 551 q 437 575 437 555 q 441 601 437 594 q 583 591 512 591 q 724 601 653 591 q 729 577 728 595 q 724 551 729 558 q 692 548 711 551 q 648 535 673 546 q 614 506 623 524 q 391 34 476 212 q 363 -24 383 18 q 335 -83 344 -66 q 309 -129 327 -100 q 271 -182 292 -157 q 99 -296 180 -296 q 33 -274 58 -296 q 8 -224 8 -253 q 39 -160 8 -182 q 175 -140 127 -160 q 263 -54 224 -119 q 311 42 283 -20 l 85 499 q 45 538 74 526 q 0 551 16 551 q -5 577 -5 559 q 0 601 -5 594 q 183 591 82 591 z "},"":{"ha":726,"x_min":-11,"x_max":683,"o":"m 417 608 q 558 566 496 608 q 651 459 620 525 q 683 317 683 393 q 652 179 683 243 q 572 75 621 115 q 466 12 524 35 q 351 -11 408 -11 q 315 -8 334 -11 q 285 -2 297 -5 q 272 1 273 1 q 268 -20 268 1 l 268 -94 q 279 -221 268 -194 q 366 -245 286 -239 q 370 -271 370 -253 q 366 -296 370 -290 q 180 -286 273 -286 q -6 -296 87 -286 q -11 -271 -10 -290 q -6 -245 -11 -253 q 81 -221 74 -239 q 92 -94 92 -194 l 92 757 q 82 822 92 799 q 48 840 77 833 q 1 846 19 846 q -3 856 -2 846 q -4 877 -5 866 q 1 890 -3 887 q 85 901 43 894 q 158 915 127 907 q 212 928 188 922 q 249 939 235 935 q 262 943 262 943 q 275 933 268 942 q 283 920 281 925 q 268 781 268 836 l 268 534 q 269 529 268 530 q 273 526 270 523 q 346 584 305 560 q 417 608 387 608 m 342 509 q 301 500 319 509 q 275 484 283 492 q 268 471 268 475 l 268 130 q 295 70 268 92 q 360 49 322 49 q 399 62 378 49 q 440 100 420 75 q 474 170 460 125 q 488 270 488 214 q 342 509 488 509 z "},"":{"ha":724,"x_min":-5,"x_max":729,"o":"m 447 856 q 460 869 447 856 q 513 883 474 883 q 579 856 551 883 q 608 789 608 828 q 579 723 608 751 q 513 694 551 694 q 447 723 474 694 q 419 789 419 751 q 447 856 419 828 m 191 856 q 205 869 191 856 q 258 883 219 883 q 324 856 296 883 q 351 789 351 828 q 324 723 351 751 q 258 694 296 694 q 191 723 219 694 q 163 789 163 751 q 191 856 163 828 m 183 591 q 354 601 275 591 q 359 576 359 595 q 354 551 359 557 q 305 540 336 551 q 274 514 274 529 q 277 494 274 500 l 416 227 q 524 464 479 363 q 538 514 538 494 q 526 534 538 526 q 494 545 513 542 q 463 550 475 549 q 442 551 450 551 q 437 575 437 555 q 441 601 437 594 q 583 591 512 591 q 724 601 653 591 q 729 577 728 595 q 724 551 729 558 q 692 548 711 551 q 648 535 673 546 q 614 506 623 524 q 391 34 476 212 q 363 -24 383 18 q 335 -83 344 -66 q 309 -129 327 -100 q 271 -182 292 -157 q 99 -296 180 -296 q 33 -274 58 -296 q 8 -224 8 -253 q 39 -160 8 -182 q 175 -140 127 -160 q 263 -54 224 -119 q 311 42 283 -20 l 85 499 q 45 538 74 526 q 0 551 16 551 q -5 577 -5 559 q 0 601 -5 594 q 183 591 82 591 z "},"":{"ha":916,"x_min":-19,"x_max":925,"o":"m 258 1017 q 262 1045 258 1033 q 271 1062 267 1057 q 278 1067 275 1067 l 667 1067 q 675 1054 675 1067 q 671 1025 675 1038 q 661 1008 666 1013 l 656 1002 l 266 1002 q 264 1002 265 1002 q 260 1006 262 1002 q 258 1017 258 1010 m 127 182 l 416 846 q 440 880 423 861 q 467 898 456 898 q 484 895 475 898 q 495 888 493 892 l 773 201 q 794 148 783 178 q 811 103 806 117 q 836 71 819 84 q 870 53 852 58 q 899 46 888 48 q 918 45 910 45 q 924 17 923 36 q 921 -5 925 -1 q 842 0 909 -5 q 739 5 774 5 q 673 3 711 5 q 591 -2 635 1 q 534 -5 547 -5 q 529 22 529 0 q 534 45 529 45 q 577 51 554 45 q 614 69 601 58 q 627 92 627 79 q 606 149 627 98 q 566 250 586 201 l 545 298 q 536 304 540 304 q 406 305 510 305 q 264 304 312 305 q 255 297 258 304 q 206 183 221 221 q 176 91 176 109 q 191 69 176 79 q 225 54 205 59 q 259 47 244 50 q 281 45 275 45 q 286 18 286 37 q 282 -5 286 -1 q 136 5 187 5 q -12 -5 83 5 q -18 15 -16 -1 q -15 43 -19 32 q 35 58 0 43 q 80 87 71 72 q 127 182 103 125 m 400 646 l 285 380 q 288 374 285 374 q 400 370 328 370 q 509 373 467 370 q 511 374 510 373 q 513 378 513 377 l 513 380 l 400 646 z "},"":{"ha":640,"x_min":42,"x_max":621,"o":"m 111 747 q 116 775 111 763 q 124 792 120 787 q 132 798 129 798 l 488 798 q 496 784 496 798 q 492 755 496 768 q 482 738 487 743 l 477 732 l 119 732 q 117 732 119 732 q 114 736 116 732 q 111 747 111 740 m 308 84 q 347 95 331 84 q 363 113 363 105 l 363 302 q 325 285 359 300 q 274 259 290 269 q 225 168 222 226 q 252 106 226 128 q 308 84 277 84 m 336 609 q 481 550 422 609 q 540 401 540 492 l 540 148 q 549 107 540 121 q 572 92 558 92 q 586 94 579 92 q 597 98 593 96 q 606 103 601 100 l 612 106 q 621 83 621 101 q 616 62 621 71 q 584 36 602 50 q 534 7 566 22 q 476 -8 502 -8 q 413 13 444 -8 q 373 60 382 34 q 304 17 356 45 q 220 -11 252 -11 q 94 40 145 -11 q 42 155 42 92 q 63 223 42 193 q 113 263 85 254 q 181 288 135 271 q 283 327 227 305 q 363 358 339 349 l 363 387 l 363 422 q 341 516 363 475 q 283 557 318 557 q 257 551 269 557 q 237 535 245 545 q 223 509 230 526 q 213 479 217 492 q 205 444 210 466 q 129 384 192 384 q 79 402 100 384 q 58 449 58 421 q 77 505 58 471 q 181 570 103 530 q 336 609 260 609 z "},"":{"ha":916,"x_min":-19,"x_max":925,"o":"m 589 1122 q 608 1110 596 1119 q 620 1095 620 1101 q 617 1085 620 1090 q 551 1013 589 1038 q 471 987 512 987 q 391 1013 429 987 q 324 1085 352 1038 q 321 1095 321 1090 q 333 1110 321 1101 q 353 1122 345 1119 q 403 1079 371 1098 q 471 1061 435 1061 q 542 1078 511 1061 q 589 1122 573 1096 m 127 182 l 416 846 q 440 880 423 861 q 467 898 456 898 q 484 895 475 898 q 495 888 493 892 l 773 201 q 794 148 783 178 q 811 103 806 117 q 836 71 819 84 q 870 53 852 58 q 899 46 888 48 q 918 45 910 45 q 924 17 923 36 q 921 -5 925 -1 q 842 0 909 -5 q 739 5 774 5 q 673 3 711 5 q 591 -2 635 1 q 534 -5 547 -5 q 529 22 529 0 q 534 45 529 45 q 577 51 554 45 q 614 69 601 58 q 627 92 627 79 q 606 149 627 98 q 566 250 586 201 l 545 298 q 536 304 540 304 q 406 305 510 305 q 264 304 312 305 q 255 297 258 304 q 206 183 221 221 q 176 91 176 109 q 191 69 176 79 q 225 54 205 59 q 259 47 244 50 q 281 45 275 45 q 286 18 286 37 q 282 -5 286 -1 q 136 5 187 5 q -12 -5 83 5 q -18 15 -16 -1 q -15 43 -19 32 q 35 58 0 43 q 80 87 71 72 q 127 182 103 125 m 400 646 l 285 380 q 288 374 285 374 q 400 370 328 370 q 509 373 467 370 q 511 374 510 373 q 513 378 513 377 l 513 380 l 400 646 z "},"":{"ha":640,"x_min":42,"x_max":621,"o":"m 429 856 q 446 845 435 856 q 457 826 457 833 q 456 817 457 819 q 401 726 440 761 q 309 692 363 692 q 211 727 255 692 q 152 817 168 762 q 151 826 151 819 q 160 845 151 833 q 176 856 170 856 q 227 798 186 829 q 309 766 267 766 q 385 795 354 766 q 429 856 415 825 m 308 84 q 347 95 331 84 q 363 113 363 105 l 363 302 q 325 285 359 300 q 274 259 290 269 q 225 168 222 226 q 252 106 226 128 q 308 84 277 84 m 336 609 q 481 550 422 609 q 540 401 540 492 l 540 148 q 549 107 540 121 q 572 92 558 92 q 586 94 579 92 q 597 98 593 96 q 606 103 601 100 l 612 106 q 621 83 621 101 q 616 62 621 71 q 584 36 602 50 q 534 7 566 22 q 476 -8 502 -8 q 413 13 444 -8 q 373 60 382 34 q 304 17 356 45 q 220 -11 252 -11 q 94 40 145 -11 q 42 155 42 92 q 63 223 42 193 q 113 263 85 254 q 181 288 135 271 q 283 327 227 305 q 363 358 339 349 l 363 387 l 363 422 q 341 516 363 475 q 283 557 318 557 q 257 551 269 557 q 237 535 245 545 q 223 509 230 526 q 213 479 217 492 q 205 444 210 466 q 129 384 192 384 q 79 402 100 384 q 58 449 58 421 q 77 505 58 471 q 181 570 103 530 q 336 609 260 609 z "},"":{"ha":910,"x_min":-19,"x_max":920,"o":"m 406 305 q 264 304 312 305 q 255 297 258 304 q 206 183 221 221 q 176 94 176 109 q 218 58 176 71 q 281 45 260 45 q 286 18 286 37 q 282 -5 286 -1 q 136 5 187 5 q -12 -5 83 5 q -18 15 -16 -1 q -15 43 -19 32 q 35 58 0 43 q 80 87 71 72 q 127 182 103 125 l 416 846 q 440 880 423 861 q 467 898 456 898 q 490 888 484 898 l 768 201 q 789 148 777 178 q 806 103 800 117 q 830 71 814 84 q 865 53 846 58 q 894 46 883 48 q 913 45 905 45 q 919 17 918 36 q 916 -5 920 -1 q 855 -1 895 -5 q 804 3 814 2 q 756 -27 771 -17 q 715 -57 741 -37 q 677 -96 689 -77 q 666 -137 666 -116 q 682 -181 666 -162 q 732 -201 698 -201 q 834 -148 768 -201 q 842 -163 842 -148 q 839 -180 842 -168 q 833 -197 836 -193 q 808 -223 823 -209 q 771 -255 793 -238 q 721 -284 749 -273 q 666 -296 692 -296 q 597 -267 628 -296 q 566 -190 566 -239 q 624 -74 566 -135 q 746 5 682 -14 l 739 5 q 673 3 711 5 q 591 -2 635 1 q 534 -5 547 -5 q 529 22 529 0 q 534 45 529 45 q 577 51 554 45 q 614 69 601 58 q 627 92 627 79 q 606 149 627 98 q 566 250 586 201 l 545 298 q 536 304 540 304 q 406 305 510 305 m 400 370 q 509 373 467 370 q 511 375 510 373 q 513 378 513 377 l 513 380 l 400 646 l 285 380 q 288 374 285 374 q 400 370 328 370 z "},"":{"ha":640,"x_min":42,"x_max":621,"o":"m 616 62 q 551 15 578 31 q 533 4 547 13 q 510 -9 518 -4 q 487 -24 503 -14 q 462 -41 471 -33 q 439 -58 452 -48 q 417 -78 425 -68 q 401 -97 409 -87 q 389 -117 393 -107 q 385 -137 385 -127 q 401 -181 385 -162 q 452 -201 417 -201 q 553 -148 487 -201 q 562 -163 562 -148 q 558 -180 562 -168 q 552 -197 555 -193 q 528 -223 543 -209 q 490 -255 513 -238 q 440 -284 468 -273 q 385 -296 412 -296 q 316 -267 347 -296 q 285 -190 285 -239 q 312 -115 285 -155 q 373 -47 340 -75 q 442 0 407 -20 q 401 24 424 4 q 373 60 379 43 q 304 17 356 45 q 220 -11 252 -11 q 94 40 145 -11 q 42 155 42 92 q 63 223 42 193 q 113 263 85 254 q 181 288 135 271 q 283 327 227 305 q 363 358 339 349 l 363 387 l 363 422 q 341 516 363 475 q 283 557 318 557 q 257 551 269 557 q 237 535 245 545 q 223 509 230 526 q 213 479 217 492 q 205 444 210 466 q 129 384 192 384 q 79 402 100 384 q 58 449 58 421 q 77 505 58 471 q 181 570 103 530 q 336 609 260 609 q 481 550 422 609 q 540 401 540 492 l 540 148 q 549 107 540 121 q 572 92 558 92 q 586 94 579 92 q 597 98 593 96 q 606 103 601 100 l 612 106 q 621 83 621 101 q 616 62 621 71 m 308 84 q 347 95 331 84 q 363 113 363 105 l 363 302 q 325 285 359 300 q 274 259 290 269 q 225 168 222 226 q 252 106 226 128 q 308 84 277 84 z "},"":{"ha":914,"x_min":54,"x_max":873,"o":"m 453 1015 q 512 1081 453 1022 q 616 1173 572 1139 q 640 1179 627 1179 q 690 1165 665 1179 q 716 1127 716 1152 q 659 1070 716 1105 q 542 1011 601 1035 q 472 987 484 987 q 459 998 465 987 q 453 1015 453 1008 m 524 905 q 806 879 679 905 q 829 781 806 878 q 852 674 852 684 q 840 661 852 668 q 817 654 829 654 q 798 659 803 654 q 784 699 793 679 q 754 747 775 720 q 707 796 734 775 q 635 831 680 817 q 536 846 590 846 q 414 816 467 846 q 331 732 361 785 q 286 615 301 680 q 271 477 271 551 q 289 321 271 395 q 340 185 306 247 q 431 87 374 123 q 563 50 489 50 q 731 109 668 50 q 780 173 757 132 q 813 239 804 214 q 826 277 823 265 q 873 260 855 277 q 852 151 873 241 q 818 54 831 60 q 727 22 759 33 q 637 1 696 12 q 521 -9 579 -9 q 288 48 395 -9 q 118 208 181 105 q 54 437 54 311 q 92 620 54 533 q 192 769 129 707 q 342 868 255 831 q 524 905 429 905 z "},"":{"ha":606,"x_min":42,"x_max":576,"o":"m 453 916 q 500 902 484 916 q 515 876 515 888 q 465 807 515 852 q 363 726 414 761 q 304 692 312 692 q 289 701 297 692 q 281 716 281 710 q 301 753 281 720 q 353 832 322 787 q 407 903 384 877 q 453 916 419 916 m 560 518 q 538 460 560 486 q 481 434 516 434 q 462 437 471 434 q 443 449 452 441 q 428 463 433 457 q 413 480 422 468 q 400 495 404 492 q 308 537 363 537 q 257 507 279 537 q 224 435 235 477 q 213 350 213 393 q 231 232 213 282 q 278 154 249 181 q 340 114 308 127 q 408 102 373 102 q 560 170 498 102 q 572 160 567 168 q 576 145 576 152 q 572 119 576 125 q 541 82 562 102 q 490 40 521 62 q 415 3 458 18 q 327 -12 372 -12 q 186 21 250 -12 q 82 120 121 54 q 42 271 42 185 q 71 393 42 332 q 149 502 100 454 q 262 578 197 549 q 396 608 328 608 q 483 600 446 608 q 533 583 519 592 q 560 518 560 553 z "},"":{"ha":914,"x_min":54,"x_max":873,"o":"m 699 990 q 625 1023 685 994 q 536 1072 566 1053 q 448 1023 506 1052 q 373 990 389 994 q 359 1013 359 997 q 457 1101 374 1024 q 518 1166 485 1126 q 536 1180 530 1180 q 553 1166 540 1180 q 610 1107 586 1131 q 712 1013 686 1033 q 699 990 712 995 m 524 905 q 806 879 679 905 q 829 781 806 878 q 852 674 852 684 q 840 661 852 668 q 817 654 829 654 q 798 659 803 654 q 784 699 793 679 q 754 747 775 720 q 707 796 734 775 q 635 831 680 817 q 536 846 590 846 q 414 816 467 846 q 331 732 361 785 q 286 615 301 680 q 271 477 271 551 q 289 321 271 395 q 340 185 306 247 q 431 87 374 123 q 563 50 489 50 q 731 109 668 50 q 780 173 757 132 q 813 239 804 214 q 826 277 823 265 q 873 260 855 277 q 852 151 873 241 q 818 54 831 60 q 727 22 759 33 q 637 1 696 12 q 521 -9 579 -9 q 288 48 395 -9 q 118 208 181 105 q 54 437 54 311 q 92 620 54 533 q 192 769 129 707 q 342 868 255 831 q 524 905 429 905 z "},"":{"ha":606,"x_min":42,"x_max":576,"o":"m 476 692 q 410 732 465 695 q 328 792 355 769 q 249 734 301 769 q 180 692 196 699 q 172 703 176 694 q 168 723 168 713 q 258 829 201 755 q 311 906 286 866 q 328 920 318 920 q 333 919 331 920 q 337 916 336 918 q 340 911 338 915 q 345 906 343 908 q 365 877 349 901 q 395 836 380 854 q 488 723 454 757 q 485 703 488 713 q 476 692 481 694 m 560 518 q 538 460 560 486 q 481 434 516 434 q 462 437 471 434 q 443 449 452 441 q 428 463 433 457 q 413 480 422 468 q 400 495 404 492 q 308 537 363 537 q 257 507 279 537 q 224 435 235 477 q 213 350 213 393 q 231 232 213 282 q 278 154 249 181 q 340 114 308 127 q 408 102 373 102 q 560 170 498 102 q 572 160 567 168 q 576 145 576 152 q 572 119 576 125 q 541 82 562 102 q 490 40 521 62 q 415 3 458 18 q 327 -12 372 -12 q 186 21 250 -12 q 82 120 121 54 q 42 271 42 185 q 71 393 42 332 q 149 502 100 454 q 262 578 197 549 q 396 608 328 608 q 483 600 446 608 q 533 583 519 592 q 560 518 560 553 z "},"":{"ha":914,"x_min":54,"x_max":873,"o":"m 478 1006 q 465 1020 478 1006 q 452 1072 452 1034 q 478 1137 452 1109 q 543 1164 505 1164 q 607 1137 580 1164 q 633 1072 633 1109 q 607 1006 633 1034 q 543 979 580 979 q 478 1006 505 979 m 524 905 q 806 879 679 905 q 829 781 806 878 q 852 674 852 684 q 840 661 852 668 q 817 654 829 654 q 798 659 803 654 q 784 699 793 679 q 754 747 775 720 q 707 796 734 775 q 635 831 680 817 q 536 846 590 846 q 414 816 467 846 q 331 732 361 785 q 286 615 301 680 q 271 477 271 551 q 289 321 271 395 q 340 185 306 247 q 431 87 374 123 q 563 50 489 50 q 731 109 668 50 q 780 173 757 132 q 813 239 804 214 q 826 277 823 265 q 873 260 855 277 q 852 151 873 241 q 818 54 831 60 q 727 22 759 33 q 637 1 696 12 q 521 -9 579 -9 q 288 48 395 -9 q 118 208 181 105 q 54 437 54 311 q 92 620 54 533 q 192 769 129 707 q 342 868 255 831 q 524 905 429 905 z "},"":{"ha":606,"x_min":42,"x_max":576,"o":"m 293 734 q 279 747 293 734 q 266 799 266 761 q 293 864 266 837 q 357 891 319 891 q 421 864 394 891 q 448 799 448 837 q 421 734 448 761 q 357 707 394 707 q 293 734 319 707 m 560 518 q 538 460 560 486 q 481 434 516 434 q 462 437 471 434 q 443 449 452 441 q 428 463 433 457 q 413 480 422 468 q 400 495 404 492 q 308 537 363 537 q 257 507 279 537 q 224 435 235 477 q 213 350 213 393 q 231 232 213 282 q 278 154 249 181 q 340 114 308 127 q 408 102 373 102 q 560 170 498 102 q 572 160 567 168 q 576 145 576 152 q 572 119 576 125 q 541 82 562 102 q 490 40 521 62 q 415 3 458 18 q 327 -12 372 -12 q 186 21 250 -12 q 82 120 121 54 q 42 271 42 185 q 71 393 42 332 q 149 502 100 454 q 262 578 197 549 q 396 608 328 608 q 483 600 446 608 q 533 583 519 592 q 560 518 560 553 z "},"":{"ha":914,"x_min":54,"x_max":873,"o":"m 525 1095 q 618 1148 560 1118 q 688 1179 676 1179 q 698 1171 694 1179 q 701 1153 701 1162 q 598 1058 669 1128 q 544 1000 593 1053 q 524 987 532 987 q 506 1000 516 987 q 448 1063 481 1029 q 349 1153 380 1128 q 352 1171 349 1162 q 362 1179 355 1179 q 432 1148 374 1179 q 525 1095 490 1118 m 524 905 q 806 879 679 905 q 829 781 806 878 q 852 674 852 684 q 840 661 852 668 q 817 654 829 654 q 798 659 803 654 q 784 699 793 679 q 754 747 775 720 q 707 796 734 775 q 635 831 680 817 q 536 846 590 846 q 414 816 467 846 q 331 732 361 785 q 286 615 301 680 q 271 477 271 551 q 289 321 271 395 q 340 185 306 247 q 431 87 374 123 q 563 50 489 50 q 731 109 668 50 q 780 173 757 132 q 813 239 804 214 q 826 277 823 265 q 873 260 855 277 q 852 151 873 241 q 818 54 831 60 q 727 22 759 33 q 637 1 696 12 q 521 -9 579 -9 q 288 48 395 -9 q 118 208 181 105 q 54 437 54 311 q 92 620 54 533 q 192 769 129 707 q 342 868 255 831 q 524 905 429 905 z "},"":{"ha":606,"x_min":42,"x_max":576,"o":"m 345 819 q 429 883 376 846 q 492 920 482 920 q 501 910 498 920 q 505 888 505 900 q 411 776 471 854 q 381 734 397 758 q 361 705 365 711 q 357 700 359 703 q 353 695 354 696 q 350 693 352 694 q 345 692 347 692 q 327 705 334 692 q 274 783 302 745 q 184 888 217 856 q 188 910 184 900 q 197 920 191 920 q 260 883 207 920 q 345 819 313 846 m 560 518 q 538 460 560 486 q 481 434 516 434 q 462 437 471 434 q 443 449 452 441 q 428 463 433 457 q 413 480 422 468 q 400 495 404 492 q 308 537 363 537 q 257 507 279 537 q 224 435 235 477 q 213 350 213 393 q 231 232 213 282 q 278 154 249 181 q 340 114 308 127 q 408 102 373 102 q 560 170 498 102 q 572 160 567 168 q 576 145 576 152 q 572 119 576 125 q 541 82 562 102 q 490 40 521 62 q 415 3 458 18 q 327 -12 372 -12 q 186 21 250 -12 q 82 120 121 54 q 42 271 42 185 q 71 393 42 332 q 149 502 100 454 q 262 578 197 549 q 396 608 328 608 q 483 600 446 608 q 533 583 519 592 q 560 518 560 553 z "},"":{"ha":1032,"x_min":47,"x_max":975,"o":"m 432 1095 q 525 1148 467 1118 q 595 1179 583 1179 q 605 1171 602 1179 q 608 1153 608 1162 q 505 1058 576 1128 q 451 1000 500 1053 q 431 987 439 987 q 413 1000 423 987 q 355 1063 389 1029 q 256 1153 288 1128 q 259 1171 256 1162 q 269 1179 262 1179 q 339 1148 281 1179 q 432 1095 397 1118 m 340 742 l 340 191 q 351 84 340 111 q 382 62 357 71 q 436 53 408 53 q 680 148 602 53 q 759 441 759 242 q 665 738 759 634 q 414 841 570 841 q 347 825 354 841 q 340 742 340 808 m 454 895 q 727 844 610 895 q 909 692 844 792 q 975 456 975 593 q 947 286 975 363 q 872 156 920 210 q 757 66 824 103 q 612 13 690 30 q 444 -4 534 -4 l 52 -4 q 48 20 48 2 q 52 46 47 39 q 139 69 132 52 q 150 197 150 96 l 150 696 q 139 823 150 796 q 52 845 133 839 q 48 871 47 852 q 52 895 48 889 q 246 891 113 891 q 353 893 279 891 q 454 895 427 895 z "},"":{"ha":784,"x_min":43,"x_max":876,"o":"m 810 916 q 850 906 825 916 q 876 821 876 871 q 840 704 876 766 q 746 589 804 642 q 725 595 737 589 q 712 606 712 601 q 769 730 769 668 q 761 772 769 754 q 743 798 753 789 q 726 820 734 806 q 718 850 718 833 q 744 894 718 873 q 810 916 770 916 m 399 605 q 453 602 431 605 q 460 633 460 602 q 460 757 460 633 q 450 822 460 799 q 416 840 446 833 q 369 846 387 846 q 365 856 366 846 q 365 877 363 866 q 369 890 366 887 q 454 901 412 894 q 526 915 496 907 q 580 928 556 922 q 617 939 604 935 q 631 943 630 943 q 643 933 636 942 q 651 920 650 925 q 636 783 636 859 l 636 146 q 648 95 636 109 q 709 81 661 81 q 713 64 713 77 q 705 38 713 50 q 616 23 671 35 q 520 1 561 11 q 472 -9 479 -9 q 464 0 467 -9 q 460 23 460 9 l 460 45 q 456 52 460 54 q 289 -11 365 -11 q 117 71 190 -11 q 43 271 43 153 q 68 394 43 337 q 133 489 94 451 q 220 553 172 526 q 314 593 269 581 q 399 605 360 605 m 354 536 q 285 506 313 536 q 247 432 258 476 q 236 330 236 387 q 273 146 236 216 q 373 76 311 76 q 430 94 400 76 q 460 126 460 112 l 460 475 q 427 515 460 494 q 354 536 395 536 z "},"":{"ha":1038,"x_min":39,"x_max":980,"o":"m 519 418 l 45 418 q 41 429 42 418 q 41 453 39 439 q 46 472 42 467 l 519 472 q 524 450 524 472 q 519 418 524 427 m 345 742 l 345 191 q 356 84 345 111 q 388 62 362 71 q 441 53 414 53 q 686 148 607 53 q 764 441 764 242 q 670 738 764 634 q 420 841 576 841 q 352 825 359 841 q 345 742 345 808 m 459 895 q 733 844 616 895 q 915 692 850 792 q 980 456 980 593 q 953 286 980 363 q 878 156 926 210 q 763 66 829 103 q 617 13 696 30 q 450 -4 539 -4 l 58 -4 q 53 20 54 2 q 58 46 53 39 q 144 69 138 52 q 155 197 155 96 l 155 696 q 144 823 155 796 q 58 845 138 839 q 53 871 53 852 q 58 895 54 889 q 252 891 119 891 q 358 893 284 891 q 459 895 433 895 z "},"":{"ha":738,"x_min":43,"x_max":715,"o":"m 399 605 q 453 602 431 605 q 460 633 460 602 q 460 757 460 633 q 450 822 460 799 q 416 840 446 833 q 369 846 387 846 q 365 856 366 846 q 365 877 363 866 q 369 890 366 887 q 454 901 412 894 q 526 915 496 907 q 580 928 556 922 q 617 939 604 935 q 631 943 630 943 q 643 933 636 942 q 651 920 650 925 q 636 783 636 859 l 636 146 q 648 95 636 109 q 709 81 661 81 q 713 64 713 77 q 705 38 713 50 q 616 23 671 35 q 520 1 561 11 q 472 -9 479 -9 q 464 0 467 -9 q 460 23 460 9 l 460 45 q 456 52 460 54 q 289 -11 365 -11 q 117 71 190 -11 q 43 271 43 153 q 68 394 43 337 q 133 489 94 451 q 220 553 172 526 q 314 593 269 581 q 399 605 360 605 m 354 536 q 285 506 313 536 q 247 432 258 476 q 236 330 236 387 q 273 146 236 216 q 373 76 311 76 q 430 94 400 76 q 460 126 460 112 l 460 475 q 427 515 460 494 q 354 536 395 536 m 711 715 l 264 715 q 260 724 262 715 q 260 747 259 734 q 266 765 262 760 l 711 765 q 715 745 715 765 q 711 715 715 724 z "},"":{"ha":817,"x_min":47,"x_max":787,"o":"m 185 1017 q 190 1045 185 1033 q 198 1062 194 1057 q 205 1067 203 1067 l 595 1067 q 603 1054 603 1067 q 598 1025 603 1038 q 589 1008 593 1013 l 584 1002 l 193 1002 q 191 1002 193 1002 q 188 1006 190 1002 q 185 1017 185 1010 m 246 891 q 470 896 279 891 q 687 901 662 900 q 698 836 691 870 q 714 760 705 802 q 726 700 723 718 q 695 693 720 693 q 673 704 677 693 q 650 758 661 736 q 621 800 638 779 q 580 831 604 821 q 527 841 557 841 l 414 841 q 347 825 354 841 q 340 742 340 808 l 340 499 q 358 489 340 493 q 398 484 376 484 l 470 484 q 551 502 530 484 q 589 579 573 519 q 606 590 591 590 q 631 583 625 590 l 631 323 q 607 317 626 317 q 588 328 590 317 q 541 411 570 397 q 437 420 517 420 q 340 401 340 420 l 340 191 q 351 84 340 111 q 382 64 356 71 q 439 57 409 57 l 528 57 q 654 102 610 57 q 728 231 694 141 q 747 239 730 239 q 771 236 758 239 q 787 231 785 233 q 771 186 785 222 q 752 132 758 149 q 737 86 747 115 q 722 36 728 57 q 714 -3 717 14 q 52 -4 105 -3 q 48 20 48 2 q 52 46 47 39 q 139 69 132 52 q 150 197 150 96 l 150 696 q 139 823 150 796 q 52 845 133 839 q 48 871 47 852 q 52 895 48 889 q 246 891 113 891 z "},"":{"ha":624,"x_min":43,"x_max":582,"o":"m 140 747 q 144 775 140 763 q 153 792 149 787 q 160 798 157 798 l 517 798 q 525 784 525 798 q 520 755 525 768 q 511 738 515 743 l 506 732 l 148 732 q 146 732 147 732 q 142 736 144 732 q 140 747 140 740 m 221 382 q 301 386 230 382 q 396 393 372 390 q 414 415 414 395 q 393 510 414 469 q 331 551 373 551 q 280 531 303 551 q 245 484 258 512 q 227 429 233 455 q 221 382 221 402 m 220 328 q 234 232 220 274 q 269 166 248 190 q 317 127 290 142 q 366 107 344 112 q 410 102 389 102 q 562 170 500 102 q 573 160 568 168 q 578 145 578 152 q 574 119 578 125 q 543 82 563 102 q 491 40 522 62 q 417 3 460 18 q 328 -12 374 -12 q 187 21 252 -12 q 83 120 123 54 q 43 271 43 185 q 86 433 43 355 q 198 558 128 511 q 345 606 269 606 q 437 592 395 606 q 505 557 479 578 q 549 507 531 535 q 574 453 567 479 q 582 401 582 427 q 571 362 582 379 q 545 345 560 345 q 220 328 423 334 z "},"":{"ha":817,"x_min":47,"x_max":787,"o":"m 519 1122 q 538 1110 526 1119 q 550 1095 550 1101 q 547 1085 550 1090 q 481 1013 519 1038 q 401 987 442 987 q 321 1013 359 987 q 254 1085 282 1038 q 252 1095 252 1090 q 263 1110 252 1101 q 283 1122 275 1119 q 333 1079 301 1098 q 401 1061 365 1061 q 472 1078 441 1061 q 519 1122 503 1096 m 246 891 q 470 896 279 891 q 687 901 662 900 q 698 836 691 870 q 714 760 705 802 q 726 700 723 718 q 695 693 720 693 q 673 704 677 693 q 650 758 661 736 q 621 800 638 779 q 580 831 604 821 q 527 841 557 841 l 414 841 q 347 825 354 841 q 340 742 340 808 l 340 499 q 358 489 340 493 q 398 484 376 484 l 470 484 q 551 502 530 484 q 589 579 573 519 q 606 590 591 590 q 631 583 625 590 l 631 323 q 607 317 626 317 q 588 328 590 317 q 541 411 570 397 q 437 420 517 420 q 340 401 340 420 l 340 191 q 351 84 340 111 q 382 64 356 71 q 439 57 409 57 l 528 57 q 654 102 610 57 q 728 231 694 141 q 747 239 730 239 q 771 236 758 239 q 787 231 785 233 q 771 186 785 222 q 752 132 758 149 q 737 86 747 115 q 722 36 728 57 q 714 -3 717 14 q 52 -4 105 -3 q 48 20 48 2 q 52 46 47 39 q 139 69 132 52 q 150 197 150 96 l 150 696 q 139 823 150 796 q 52 845 133 839 q 48 871 47 852 q 52 895 48 889 q 246 891 113 891 z "},"":{"ha":624,"x_min":43,"x_max":582,"o":"m 446 856 q 464 845 453 856 q 475 826 475 833 q 473 817 475 819 q 419 726 458 761 q 327 692 380 692 q 229 727 273 692 q 170 817 185 762 q 168 826 168 819 q 178 845 168 833 q 194 856 187 856 q 244 798 204 829 q 327 766 284 766 q 402 795 372 766 q 446 856 433 825 m 221 382 q 301 386 230 382 q 396 393 372 390 q 414 415 414 395 q 393 510 414 469 q 331 551 373 551 q 280 531 303 551 q 245 484 258 512 q 227 429 233 455 q 221 382 221 402 m 220 328 q 234 232 220 274 q 269 166 248 190 q 317 127 290 142 q 366 107 344 112 q 410 102 389 102 q 562 170 500 102 q 573 160 568 168 q 578 145 578 152 q 574 119 578 125 q 543 82 563 102 q 491 40 522 62 q 417 3 460 18 q 328 -12 374 -12 q 187 21 252 -12 q 83 120 123 54 q 43 271 43 185 q 86 433 43 355 q 198 558 128 511 q 345 606 269 606 q 437 592 395 606 q 505 557 479 578 q 549 507 531 535 q 574 453 567 479 q 582 401 582 427 q 571 362 582 379 q 545 345 560 345 q 220 328 423 334 z "},"":{"ha":817,"x_min":47,"x_max":787,"o":"m 342 1006 q 329 1020 342 1006 q 315 1072 315 1034 q 342 1137 315 1109 q 406 1164 369 1164 q 470 1137 444 1164 q 497 1072 497 1109 q 470 1006 497 1034 q 406 979 444 979 q 342 1006 369 979 m 246 891 q 470 896 279 891 q 687 901 662 900 q 698 836 691 870 q 714 760 705 802 q 726 700 723 718 q 695 693 720 693 q 673 704 677 693 q 650 758 661 736 q 621 800 638 779 q 580 831 604 821 q 527 841 557 841 l 414 841 q 347 825 354 841 q 340 742 340 808 l 340 499 q 358 489 340 493 q 398 484 376 484 l 470 484 q 551 502 530 484 q 589 579 573 519 q 606 590 591 590 q 631 583 625 590 l 631 323 q 607 317 626 317 q 588 328 590 317 q 541 411 570 397 q 437 420 517 420 q 340 401 340 420 l 340 191 q 351 84 340 111 q 382 64 356 71 q 439 57 409 57 l 528 57 q 654 102 610 57 q 728 231 694 141 q 747 239 730 239 q 771 236 758 239 q 787 231 785 233 q 771 186 785 222 q 752 132 758 149 q 737 86 747 115 q 722 36 728 57 q 714 -3 717 14 q 52 -4 105 -3 q 48 20 48 2 q 52 46 47 39 q 139 69 132 52 q 150 197 150 96 l 150 696 q 139 823 150 796 q 52 845 133 839 q 48 871 47 852 q 52 895 48 889 q 246 891 113 891 z "},"":{"ha":624,"x_min":43,"x_max":582,"o":"m 264 734 q 251 747 264 734 q 237 799 237 761 q 264 864 237 837 q 328 891 291 891 q 392 864 366 891 q 419 799 419 837 q 392 734 419 761 q 328 707 366 707 q 264 734 291 707 m 221 382 q 301 386 230 382 q 396 393 372 390 q 414 415 414 395 q 393 510 414 469 q 331 551 373 551 q 280 531 303 551 q 245 484 258 512 q 227 429 233 455 q 221 382 221 402 m 220 328 q 234 232 220 274 q 269 166 248 190 q 317 127 290 142 q 366 107 344 112 q 410 102 389 102 q 562 170 500 102 q 573 160 568 168 q 578 145 578 152 q 574 119 578 125 q 543 82 563 102 q 491 40 522 62 q 417 3 460 18 q 328 -12 374 -12 q 187 21 252 -12 q 83 120 123 54 q 43 271 43 185 q 86 433 43 355 q 198 558 128 511 q 345 606 269 606 q 437 592 395 606 q 505 557 479 578 q 549 507 531 535 q 574 453 567 479 q 582 401 582 427 q 571 362 582 379 q 545 345 560 345 q 220 328 423 334 z "},"":{"ha":817,"x_min":47,"x_max":787,"o":"m 246 891 q 470 896 279 891 q 687 901 662 900 q 698 836 691 870 q 714 760 705 802 q 726 700 723 718 q 695 693 720 693 q 673 704 677 693 q 650 758 661 736 q 621 800 638 779 q 580 831 604 821 q 527 841 557 841 l 414 841 q 347 825 354 841 q 340 742 340 808 l 340 499 q 358 489 340 493 q 398 484 376 484 l 470 484 q 551 502 530 484 q 589 579 573 519 q 606 590 591 590 q 631 583 625 590 l 631 323 q 607 317 626 317 q 588 328 590 317 q 541 411 570 397 q 437 420 517 420 q 340 401 340 420 l 340 191 q 351 84 340 111 q 382 64 356 71 q 439 57 409 57 l 528 57 q 654 102 610 57 q 728 231 694 141 q 747 239 730 239 q 771 236 758 239 q 787 231 785 233 q 771 186 785 222 q 752 132 758 149 q 737 86 747 115 q 722 36 728 57 q 714 -3 717 14 q 602 -57 656 -18 q 547 -137 547 -96 q 563 -181 547 -162 q 614 -201 579 -201 q 715 -148 650 -201 q 724 -163 724 -148 q 720 -180 724 -168 q 714 -197 717 -193 q 690 -223 705 -209 q 652 -255 675 -238 q 602 -284 630 -273 q 547 -296 574 -296 q 478 -267 509 -296 q 447 -190 447 -239 q 501 -81 447 -138 q 619 -3 555 -25 l 227 -3 q 52 -4 86 -3 q 48 20 48 2 q 52 46 47 39 q 139 69 132 52 q 150 197 150 96 l 150 696 q 139 823 150 796 q 52 845 133 839 q 48 871 47 852 q 52 895 48 889 q 246 891 113 891 z "},"":{"ha":624,"x_min":43,"x_max":582,"o":"m 506 50 q 411 -46 437 -4 q 385 -137 385 -89 q 401 -181 385 -162 q 452 -201 417 -201 q 553 -148 487 -201 q 562 -163 562 -148 q 558 -180 562 -168 q 552 -197 555 -193 q 528 -223 543 -209 q 490 -255 513 -238 q 440 -284 468 -273 q 385 -296 412 -296 q 316 -267 347 -296 q 285 -190 285 -239 q 312 -89 285 -138 q 376 -8 340 -39 q 328 -12 353 -12 q 187 21 252 -12 q 83 120 123 54 q 43 271 43 185 q 86 433 43 355 q 198 558 128 511 q 345 606 269 606 q 437 592 395 606 q 505 557 479 578 q 549 507 531 535 q 574 453 567 479 q 582 401 582 427 q 571 362 582 379 q 545 345 560 345 q 220 328 423 334 q 234 232 220 274 q 269 166 248 190 q 317 127 290 142 q 366 107 344 112 q 410 102 389 102 q 562 170 500 102 q 573 160 568 168 q 578 145 578 152 q 574 119 578 125 q 506 50 550 83 m 221 382 q 301 386 230 382 q 396 393 372 390 q 414 415 414 395 q 393 510 414 469 q 331 551 373 551 q 280 531 303 551 q 245 484 258 512 q 227 429 233 455 q 221 382 221 402 z "},"":{"ha":817,"x_min":47,"x_max":787,"o":"m 394 1095 q 487 1148 429 1118 q 557 1179 545 1179 q 567 1171 564 1179 q 570 1153 570 1162 q 467 1058 538 1128 q 413 1000 462 1053 q 393 987 401 987 q 375 1000 385 987 q 317 1063 351 1029 q 218 1153 250 1128 q 221 1171 218 1162 q 231 1179 224 1179 q 301 1148 243 1179 q 394 1095 359 1118 m 246 891 q 470 896 279 891 q 687 901 662 900 q 698 836 691 870 q 714 760 705 802 q 726 700 723 718 q 695 693 720 693 q 673 704 677 693 q 650 758 661 736 q 621 800 638 779 q 580 831 604 821 q 527 841 557 841 l 414 841 q 347 825 354 841 q 340 742 340 808 l 340 499 q 358 489 340 493 q 398 484 376 484 l 470 484 q 551 502 530 484 q 589 579 573 519 q 606 590 591 590 q 631 583 625 590 l 631 323 q 607 317 626 317 q 588 328 590 317 q 541 411 570 397 q 437 420 517 420 q 340 401 340 420 l 340 191 q 351 84 340 111 q 382 64 356 71 q 439 57 409 57 l 528 57 q 654 102 610 57 q 728 231 694 141 q 747 239 730 239 q 771 236 758 239 q 787 231 785 233 q 771 186 785 222 q 752 132 758 149 q 737 86 747 115 q 722 36 728 57 q 714 -3 717 14 q 52 -4 105 -3 q 48 20 48 2 q 52 46 47 39 q 139 69 132 52 q 150 197 150 96 l 150 696 q 139 823 150 796 q 52 845 133 839 q 48 871 47 852 q 52 895 48 889 q 246 891 113 891 z "},"":{"ha":624,"x_min":43,"x_max":582,"o":"m 331 819 q 416 883 363 846 q 479 920 469 920 q 488 910 484 920 q 491 888 491 900 q 397 776 457 854 q 367 734 383 758 q 347 705 351 711 q 343 700 346 703 q 339 695 340 696 q 336 693 338 694 q 331 692 334 692 q 313 705 321 692 q 260 783 289 745 q 171 888 203 856 q 174 910 171 900 q 183 920 178 920 q 246 883 193 920 q 331 819 299 846 m 221 382 q 301 386 230 382 q 396 393 372 390 q 414 415 414 395 q 393 510 414 469 q 331 551 373 551 q 280 531 303 551 q 245 484 258 512 q 227 429 233 455 q 221 382 221 402 m 220 328 q 234 232 220 274 q 269 166 248 190 q 317 127 290 142 q 366 107 344 112 q 410 102 389 102 q 562 170 500 102 q 573 160 568 168 q 578 145 578 152 q 574 119 578 125 q 543 82 563 102 q 491 40 522 62 q 417 3 460 18 q 328 -12 374 -12 q 187 21 252 -12 q 83 120 123 54 q 43 271 43 185 q 86 433 43 355 q 198 558 128 511 q 345 606 269 606 q 437 592 395 606 q 505 557 479 578 q 549 507 531 535 q 574 453 567 479 q 582 401 582 427 q 571 362 582 379 q 545 345 560 345 q 220 328 423 334 z "},"":{"ha":979,"x_min":54,"x_max":957,"o":"m 692 990 q 618 1023 678 994 q 529 1072 559 1053 q 441 1023 499 1052 q 366 990 382 994 q 353 1013 353 997 q 450 1101 368 1024 q 511 1166 478 1126 q 529 1180 523 1180 q 547 1166 533 1180 q 604 1107 579 1131 q 705 1013 680 1033 q 692 990 705 995 m 677 248 q 670 317 677 292 q 646 342 666 333 q 610 352 625 351 q 581 354 595 354 q 575 376 575 354 q 579 404 574 399 q 645 401 602 404 q 722 397 687 399 q 787 396 756 396 q 840 397 812 396 q 902 401 868 399 q 954 404 936 404 q 957 384 956 396 q 956 363 957 372 q 952 354 954 354 q 916 348 942 354 q 880 336 890 342 q 869 315 874 332 q 864 278 864 297 l 864 133 q 868 111 864 126 q 872 94 872 96 q 825 58 872 77 q 733 25 768 37 q 639 2 699 14 q 521 -9 579 -9 q 287 48 394 -9 q 117 209 180 106 q 54 437 54 311 q 117 669 54 562 q 289 841 180 777 q 524 905 397 905 q 806 879 679 905 q 829 781 806 878 q 852 674 852 684 q 840 661 852 668 q 817 654 829 654 q 798 659 803 654 q 784 700 792 680 q 755 748 776 720 q 709 796 735 776 q 637 831 682 817 q 538 846 593 846 q 434 825 480 846 q 357 769 387 804 q 308 685 328 734 q 280 583 288 635 q 271 471 271 530 q 290 315 271 390 q 343 181 308 241 q 434 85 378 121 q 559 49 490 49 q 665 71 616 49 q 677 91 677 77 l 677 248 z "},"":{"ha":648,"x_min":33,"x_max":636,"o":"m 450 692 q 385 732 439 695 q 302 792 330 769 q 223 734 275 769 q 155 692 170 699 q 146 703 150 694 q 142 723 142 713 q 232 829 175 755 q 285 906 260 866 q 302 920 292 920 q 308 919 305 920 q 311 916 310 918 q 315 911 312 915 q 319 906 317 908 q 339 877 323 901 q 369 836 355 854 q 463 723 429 757 q 459 703 463 713 q 450 692 455 694 m 292 551 q 251 539 267 551 q 228 505 235 528 q 219 464 221 483 q 217 416 217 445 q 226 339 217 375 q 257 277 235 304 q 313 251 280 251 q 339 256 328 251 q 358 267 351 260 q 370 286 365 273 q 377 308 375 299 q 381 334 380 316 q 382 360 382 352 q 382 387 382 368 q 375 463 382 428 q 346 524 368 498 q 292 551 325 551 m 353 -19 l 203 -19 q 182 -79 182 -44 q 227 -182 182 -144 q 345 -220 272 -220 q 424 -209 391 -220 q 474 -180 457 -198 q 497 -144 490 -162 q 505 -107 505 -126 q 462 -42 505 -66 q 353 -19 420 -19 m 442 130 q 523 111 486 127 q 579 70 559 94 q 611 23 600 47 q 623 -19 623 -1 q 570 -163 623 -98 q 435 -261 517 -227 q 259 -296 352 -296 q 96 -252 159 -296 q 33 -140 33 -209 q 68 -66 33 -102 q 148 -8 104 -30 q 90 41 114 1 q 66 125 66 81 q 101 171 66 142 q 179 224 136 200 q 87 294 121 248 q 53 399 53 341 q 124 542 53 484 q 298 601 195 601 q 444 567 393 601 q 452 563 448 563 l 621 579 q 636 564 636 574 q 624 530 636 556 q 602 496 612 503 q 526 505 576 498 q 518 500 518 505 q 547 406 547 461 q 476 260 547 320 q 301 201 405 201 q 231 208 267 201 q 198 165 198 181 q 218 141 198 151 q 263 132 237 132 q 442 130 418 132 z "},"":{"ha":979,"x_min":54,"x_max":957,"o":"m 624 1122 q 643 1110 631 1119 q 655 1095 655 1101 q 652 1085 655 1090 q 586 1013 625 1038 q 506 987 547 987 q 426 1013 465 987 q 359 1085 387 1038 q 357 1095 357 1090 q 369 1110 357 1101 q 388 1122 380 1119 q 438 1079 406 1098 q 506 1061 470 1061 q 577 1078 546 1061 q 624 1122 608 1096 m 677 248 q 670 317 677 292 q 646 342 666 333 q 610 352 625 351 q 581 354 595 354 q 575 376 575 354 q 579 404 574 399 q 645 401 602 404 q 722 397 687 399 q 787 396 756 396 q 840 397 812 396 q 902 401 868 399 q 954 404 936 404 q 957 384 956 396 q 956 363 957 372 q 952 354 954 354 q 916 348 942 354 q 880 336 890 342 q 869 315 874 332 q 864 278 864 297 l 864 133 q 868 111 864 126 q 872 94 872 96 q 825 58 872 77 q 733 25 768 37 q 639 2 699 14 q 521 -9 579 -9 q 287 48 394 -9 q 117 209 180 106 q 54 437 54 311 q 117 669 54 562 q 289 841 180 777 q 524 905 397 905 q 806 879 679 905 q 829 781 806 878 q 852 674 852 684 q 840 661 852 668 q 817 654 829 654 q 798 659 803 654 q 784 700 792 680 q 755 748 776 720 q 709 796 735 776 q 637 831 682 817 q 538 846 593 846 q 434 825 480 846 q 357 769 387 804 q 308 685 328 734 q 280 583 288 635 q 271 471 271 530 q 290 315 271 390 q 343 181 308 241 q 434 85 378 121 q 559 49 490 49 q 665 71 616 49 q 677 91 677 77 l 677 248 z "},"":{"ha":648,"x_min":33,"x_max":636,"o":"m 426 856 q 444 845 433 856 q 454 826 454 833 q 453 817 454 819 q 399 726 437 761 q 307 692 360 692 q 209 727 252 692 q 149 817 165 762 q 148 826 148 819 q 157 845 148 833 q 174 856 167 856 q 224 798 184 829 q 307 766 264 766 q 382 795 351 766 q 426 856 412 825 m 292 551 q 251 539 267 551 q 228 505 235 528 q 219 464 221 483 q 217 416 217 445 q 226 339 217 375 q 257 277 235 304 q 313 251 280 251 q 339 256 328 251 q 358 267 351 260 q 370 286 365 273 q 377 308 375 299 q 381 334 380 316 q 382 360 382 352 q 382 387 382 368 q 375 463 382 428 q 346 524 368 498 q 292 551 325 551 m 353 -19 l 203 -19 q 182 -79 182 -44 q 227 -182 182 -144 q 345 -220 272 -220 q 424 -209 391 -220 q 474 -180 457 -198 q 497 -144 490 -162 q 505 -107 505 -126 q 462 -42 505 -66 q 353 -19 420 -19 m 442 130 q 523 111 486 127 q 579 70 559 94 q 611 23 600 47 q 623 -19 623 -1 q 570 -163 623 -98 q 435 -261 517 -227 q 259 -296 352 -296 q 96 -252 159 -296 q 33 -140 33 -209 q 68 -66 33 -102 q 148 -8 104 -30 q 90 41 114 1 q 66 125 66 81 q 101 171 66 142 q 179 224 136 200 q 87 294 121 248 q 53 399 53 341 q 124 542 53 484 q 298 601 195 601 q 444 567 393 601 q 452 563 448 563 l 621 579 q 636 564 636 574 q 624 530 636 556 q 602 496 612 503 q 526 505 576 498 q 518 500 518 505 q 547 406 547 461 q 476 260 547 320 q 301 201 405 201 q 231 208 267 201 q 198 165 198 181 q 218 141 198 151 q 263 132 237 132 q 442 130 418 132 z "},"":{"ha":979,"x_min":54,"x_max":957,"o":"m 478 1006 q 465 1020 478 1006 q 452 1072 452 1034 q 478 1137 452 1109 q 543 1164 505 1164 q 607 1137 580 1164 q 633 1072 633 1109 q 607 1006 633 1034 q 543 979 580 979 q 478 1006 505 979 m 677 248 q 670 317 677 292 q 646 342 666 333 q 610 352 625 351 q 581 354 595 354 q 575 376 575 354 q 579 404 574 399 q 645 401 602 404 q 722 397 687 399 q 787 396 756 396 q 840 397 812 396 q 902 401 868 399 q 954 404 936 404 q 957 384 956 396 q 956 363 957 372 q 952 354 954 354 q 916 348 942 354 q 880 336 890 342 q 869 315 874 332 q 864 278 864 297 l 864 133 q 868 111 864 126 q 872 94 872 96 q 825 58 872 77 q 733 25 768 37 q 639 2 699 14 q 521 -9 579 -9 q 287 48 394 -9 q 117 209 180 106 q 54 437 54 311 q 117 669 54 562 q 289 841 180 777 q 524 905 397 905 q 806 879 679 905 q 829 781 806 878 q 852 674 852 684 q 840 661 852 668 q 817 654 829 654 q 798 659 803 654 q 784 700 792 680 q 755 748 776 720 q 709 796 735 776 q 637 831 682 817 q 538 846 593 846 q 434 825 480 846 q 357 769 387 804 q 308 685 328 734 q 280 583 288 635 q 271 471 271 530 q 290 315 271 390 q 343 181 308 241 q 434 85 378 121 q 559 49 490 49 q 665 71 616 49 q 677 91 677 77 l 677 248 z "},"":{"ha":648,"x_min":33,"x_max":636,"o":"m 238 734 q 225 747 238 734 q 212 799 212 761 q 238 864 212 837 q 302 891 265 891 q 367 864 340 891 q 393 799 393 837 q 367 734 393 761 q 302 707 340 707 q 238 734 265 707 m 292 551 q 251 539 267 551 q 228 505 235 528 q 219 464 221 483 q 217 416 217 445 q 226 339 217 375 q 257 277 235 304 q 313 251 280 251 q 339 256 328 251 q 358 267 351 260 q 370 286 365 273 q 377 308 375 299 q 381 334 380 316 q 382 360 382 352 q 382 387 382 368 q 375 463 382 428 q 346 524 368 498 q 292 551 325 551 m 353 -19 l 203 -19 q 182 -79 182 -44 q 227 -182 182 -144 q 345 -220 272 -220 q 424 -209 391 -220 q 474 -180 457 -198 q 497 -144 490 -162 q 505 -107 505 -126 q 462 -42 505 -66 q 353 -19 420 -19 m 442 130 q 523 111 486 127 q 579 70 559 94 q 611 23 600 47 q 623 -19 623 -1 q 570 -163 623 -98 q 435 -261 517 -227 q 259 -296 352 -296 q 96 -252 159 -296 q 33 -140 33 -209 q 68 -66 33 -102 q 148 -8 104 -30 q 90 41 114 1 q 66 125 66 81 q 101 171 66 142 q 179 224 136 200 q 87 294 121 248 q 53 399 53 341 q 124 542 53 484 q 298 601 195 601 q 444 567 393 601 q 452 563 448 563 l 621 579 q 636 564 636 574 q 624 530 636 556 q 602 496 612 503 q 526 505 576 498 q 518 500 518 505 q 547 406 547 461 q 476 260 547 320 q 301 201 405 201 q 231 208 267 201 q 198 165 198 181 q 218 141 198 151 q 263 132 237 132 q 442 130 418 132 z "},"":{"ha":979,"x_min":54,"x_max":957,"o":"m 552 -58 q 606 -71 582 -58 q 624 -123 624 -93 q 574 -225 624 -178 q 454 -296 524 -273 q 437 -287 445 -294 q 429 -277 429 -281 q 486 -241 456 -265 q 517 -191 517 -217 q 507 -175 517 -182 q 487 -163 498 -168 q 467 -145 476 -158 q 457 -115 457 -133 q 461 -101 457 -109 q 476 -82 466 -92 q 506 -65 486 -73 q 552 -58 526 -58 m 677 248 q 670 317 677 292 q 646 342 666 333 q 610 352 625 351 q 581 354 595 354 q 575 376 575 354 q 579 404 574 399 q 645 401 602 404 q 722 397 687 399 q 787 396 756 396 q 840 397 812 396 q 902 401 868 399 q 954 404 936 404 q 957 384 956 396 q 956 363 957 372 q 952 354 954 354 q 916 348 942 354 q 880 336 890 342 q 869 315 874 332 q 864 278 864 297 l 864 133 q 868 111 864 126 q 872 94 872 96 q 825 58 872 77 q 733 25 768 37 q 639 2 699 14 q 521 -9 579 -9 q 287 48 394 -9 q 117 209 180 106 q 54 437 54 311 q 117 669 54 562 q 289 841 180 777 q 524 905 397 905 q 806 879 679 905 q 829 781 806 878 q 852 674 852 684 q 840 661 852 668 q 817 654 829 654 q 798 659 803 654 q 784 700 792 680 q 755 748 776 720 q 709 796 735 776 q 637 831 682 817 q 538 846 593 846 q 434 825 480 846 q 357 769 387 804 q 308 685 328 734 q 280 583 288 635 q 271 471 271 530 q 290 315 271 390 q 343 181 308 241 q 434 85 378 121 q 559 49 490 49 q 665 71 616 49 q 677 91 677 77 l 677 248 z "},"":{"ha":648,"x_min":33,"x_max":636,"o":"m 300 705 q 245 718 270 705 q 228 770 228 740 q 278 872 228 825 q 397 943 328 920 q 415 934 407 941 q 423 924 423 928 q 366 888 396 912 q 335 838 335 864 q 345 822 335 829 q 365 810 354 815 q 385 792 376 805 q 395 762 395 780 q 390 748 395 756 q 376 729 386 739 q 346 712 366 720 q 300 705 326 705 m 292 551 q 251 539 267 551 q 228 505 235 528 q 219 464 221 483 q 217 416 217 445 q 226 339 217 375 q 257 277 235 304 q 313 251 280 251 q 339 256 328 251 q 358 267 351 260 q 370 286 365 273 q 377 308 375 299 q 381 334 380 316 q 382 360 382 352 q 382 387 382 368 q 375 463 382 428 q 346 524 368 498 q 292 551 325 551 m 353 -19 l 203 -19 q 182 -79 182 -44 q 227 -182 182 -144 q 345 -220 272 -220 q 424 -209 391 -220 q 474 -180 457 -198 q 497 -144 490 -162 q 505 -107 505 -126 q 462 -42 505 -66 q 353 -19 420 -19 m 442 130 q 523 111 486 127 q 579 70 559 94 q 611 23 600 47 q 623 -19 623 -1 q 570 -163 623 -98 q 435 -261 517 -227 q 259 -296 352 -296 q 96 -252 159 -296 q 33 -140 33 -209 q 68 -66 33 -102 q 148 -8 104 -30 q 90 41 114 1 q 66 125 66 81 q 101 171 66 142 q 179 224 136 200 q 87 294 121 248 q 53 399 53 341 q 124 542 53 484 q 298 601 195 601 q 444 567 393 601 q 452 563 448 563 l 621 579 q 636 564 636 574 q 624 530 636 556 q 602 496 612 503 q 526 505 576 498 q 518 500 518 505 q 547 406 547 461 q 476 260 547 320 q 301 201 405 201 q 231 208 267 201 q 198 165 198 181 q 218 141 198 151 q 263 132 237 132 q 442 130 418 132 z "},"":{"ha":1005,"x_min":47,"x_max":959,"o":"m 669 990 q 596 1023 656 994 q 507 1072 536 1053 q 418 1023 477 1052 q 344 990 360 994 q 330 1013 330 997 q 428 1101 345 1024 q 489 1166 456 1126 q 507 1180 500 1180 q 524 1166 511 1180 q 581 1107 557 1131 q 683 1013 657 1033 q 669 990 683 995 m 246 888 q 437 898 345 888 q 442 873 441 892 q 437 848 442 855 q 351 823 357 842 q 340 696 340 796 l 340 503 l 342 499 q 507 495 501 495 q 665 499 519 495 q 668 505 668 502 l 667 696 q 656 823 667 796 q 569 848 649 842 q 565 873 564 855 q 569 898 565 892 q 763 888 662 888 q 954 898 861 888 q 959 873 958 892 q 954 848 959 855 q 867 823 874 842 q 857 696 857 796 l 857 197 q 867 69 857 96 q 954 45 874 51 q 959 19 959 37 q 954 -5 958 1 q 760 4 861 4 q 569 -5 662 4 q 565 19 565 1 q 569 45 564 37 q 656 69 649 51 q 667 197 667 96 l 667 420 l 664 427 q 507 430 564 430 q 341 425 349 430 l 340 419 l 340 197 q 351 69 340 96 q 437 45 357 51 q 442 19 442 37 q 437 -5 441 1 q 243 4 345 4 q 52 -5 145 4 q 48 19 48 1 q 52 45 47 37 q 139 69 132 51 q 150 197 150 96 l 150 696 q 139 823 150 796 q 52 848 132 842 q 48 873 47 855 q 52 898 48 892 q 246 888 145 888 z "},"":{"ha":791,"x_min":18,"x_max":785,"o":"m 360 990 q 287 1023 347 994 q 197 1072 227 1053 q 109 1023 168 1052 q 35 990 51 994 q 21 1013 21 997 q 119 1101 36 1024 q 180 1166 146 1126 q 197 1180 191 1180 q 215 1166 201 1180 q 272 1107 248 1131 q 374 1013 348 1033 q 360 990 374 995 m 498 605 q 577 592 545 605 q 630 554 610 578 q 663 490 651 530 q 679 401 674 449 q 683 285 683 353 l 683 197 q 694 69 683 96 q 781 45 701 51 q 785 19 785 37 q 781 -5 785 1 q 595 4 688 4 q 425 -5 518 4 q 421 19 421 1 q 425 45 420 37 q 496 69 488 50 q 507 197 507 96 l 507 304 q 416 495 507 495 q 337 468 377 495 q 296 419 296 441 l 296 197 q 307 69 296 96 q 385 45 315 50 q 389 19 389 37 q 385 -5 389 1 q 208 4 292 4 q 22 -5 115 4 q 18 19 18 1 q 22 45 18 37 q 109 69 102 51 q 120 197 120 96 l 120 757 q 111 822 120 799 q 77 840 106 833 q 29 846 47 846 q 25 856 26 846 q 25 877 24 866 q 29 890 26 887 q 114 901 72 894 q 186 915 156 907 q 240 928 216 922 q 277 939 264 935 q 291 943 290 943 q 303 933 296 942 q 311 920 310 925 q 296 781 296 836 l 296 505 q 298 496 296 498 q 307 503 300 496 q 396 572 338 539 q 498 605 454 605 z "}}}
